shantell--light_Italic.ufo
<glyph name="numbersign" format="2">
	<unicode hex="0023"/>
	<advance width="937"/>
	<outline>
		<contour>
			<point x="553.219" y="770" type="curve" smooth="yes"/>
			<point x="558.219" y="793"/>
			<point x="543.219" y="812"/>
			<point x="522.219" y="812" type="curve" smooth="yes"/>
			<point x="503.219" y="812"/>
			<point x="491.219" y="798"/>
			<point x="487.219" y="782" type="curve" smooth="yes"/>
			<point x="452.219" y="620"/>
			<point x="156.219" y="160"/>
			<point x="114.219" y="-49" type="curve" smooth="yes"/>
			<point x="108.219" y="-78"/>
			<point x="122.219" y="-94"/>
			<point x="143.219" y="-95" type="curve" smooth="yes"/>
			<point x="158.219" y="-96"/>
			<point x="176.219" y="-82"/>
			<point x="179.219" y="-67" type="curve" smooth="yes"/>
			<point x="221.219" y="143"/>
			<point x="521.219" y="611"/>
		</contour>
		<contour>
			<point x="848.219" y="759" type="curve" smooth="yes"/>
			<point x="829.219" y="758"/>
			<point x="818.219" y="743"/>
			<point x="814.219" y="727" type="curve" smooth="yes"/>
			<point x="782.219" y="563"/>
			<point x="498.219" y="179"/>
			<point x="442.219" y="-102" type="curve" smooth="yes"/>
			<point x="436.219" y="-131"/>
			<point x="450.219" y="-147"/>
			<point x="470.219" y="-148" type="curve" smooth="yes"/>
			<point x="485.219" y="-149"/>
			<point x="503.219" y="-135"/>
			<point x="506.219" y="-120" type="curve" smooth="yes"/>
			<point x="566.219" y="178"/>
			<point x="849.219" y="559"/>
			<point x="879.219" y="710" type="curve" smooth="yes"/>
			<point x="886.219" y="743"/>
			<point x="868.219" y="760"/>
		</contour>
		<contour>
			<point x="73.219" y="215" type="curve" smooth="yes"/>
			<point x="54.219" y="215"/>
			<point x="39.219" y="206"/>
			<point x="35.219" y="188" type="curve" smooth="yes"/>
			<point x="30.219" y="169"/>
			<point x="40.219" y="146"/>
			<point x="72.219" y="146" type="curve" smooth="yes"/>
			<point x="287.219" y="146"/>
			<point x="588.219" y="187"/>
			<point x="817.219" y="187" type="curve" smooth="yes"/>
			<point x="850.219" y="187"/>
			<point x="873.219" y="206"/>
			<point x="877.219" y="225" type="curve" smooth="yes"/>
			<point x="881.219" y="245"/>
			<point x="869.219" y="253"/>
			<point x="853.219" y="253" type="curve" smooth="yes"/>
			<point x="614.219" y="253"/>
			<point x="325.219" y="215"/>
		</contour>
		<contour>
			<point x="254.219" y="558" type="curve" smooth="yes"/>
			<point x="233.219" y="558"/>
			<point x="217.219" y="548"/>
			<point x="213.219" y="529" type="curve" smooth="yes"/>
			<point x="209.219" y="510"/>
			<point x="217.219" y="493"/>
			<point x="255.219" y="488" type="curve" smooth="yes"/>
			<point x="459.219" y="461"/>
			<point x="657.219" y="457"/>
			<point x="881.219" y="457" type="curve" smooth="yes"/>
			<point x="914.219" y="457"/>
			<point x="938.219" y="474"/>
			<point x="942.219" y="498" type="curve" smooth="yes"/>
			<point x="944.219" y="516"/>
			<point x="932.219" y="522"/>
			<point x="910.219" y="522" type="curve" smooth="yes"/>
			<point x="406.219" y="522"/>
			<point x="321.219" y="558"/>
		</contour>
	</outline>
</glyph>
<glyph name="four" format="2">
	<unicode hex="0034"/>
	<advance width="700"/>
	<outline>
		<contour>
			<point x="431.387" y="157" type="curve" smooth="yes"/>
			<point x="408.387" y="39"/>
			<point x="411.387" y="-11"/>
			<point x="445.387" y="-11" type="curve" smooth="yes"/>
			<point x="463.387" y="-11"/>
			<point x="478.387" y="5"/>
			<point x="484.387" y="33" type="curve" smooth="yes"/>
			<point x="490.387" y="65"/>
			<point x="485.387" y="90"/>
			<point x="497.387" y="148" type="curve" smooth="yes"/>
			<point x="527.387" y="298"/>
			<point x="595.387" y="403"/>
			<point x="623.387" y="545" type="curve" smooth="yes"/>
			<point x="648.003" y="666.028"/>
			<point x="634" y="715"/>
			<point x="583" y="715" type="curve" smooth="yes"/>
			<point x="480" y="715"/>
			<point x="258.589" y="544.709"/>
			<point x="125.387" y="329" type="curve" smooth="yes"/>
			<point x="98.387" y="286"/>
			<point x="88.387" y="267"/>
			<point x="83.387" y="242" type="curve" smooth="yes"/>
			<point x="75.387" y="199"/>
			<point x="102.387" y="170"/>
			<point x="154.387" y="170" type="curve" smooth="yes"/>
			<point x="303.387" y="170"/>
			<point x="421.387" y="222"/>
			<point x="608.387" y="222" type="curve" smooth="yes"/>
			<point x="641.387" y="222"/>
			<point x="658.387" y="233"/>
			<point x="661.387" y="249" type="curve" smooth="yes"/>
			<point x="666.387" y="273"/>
			<point x="643.387" y="290"/>
			<point x="596.387" y="290" type="curve" smooth="yes"/>
			<point x="420.387" y="290"/>
			<point x="303.387" y="236"/>
			<point x="174.387" y="236" type="curve" smooth="yes"/>
			<point x="155.387" y="236"/>
			<point x="148.387" y="237"/>
			<point x="116.387" y="252" type="curve"/>
			<point x="133.387" y="214" type="line"/>
			<point x="226.387" y="404"/>
			<point x="388" y="578"/>
			<point x="590" y="663" type="curve"/>
			<point x="564.387" y="662" type="line"/>
			<point x="568.387" y="632"/>
			<point x="566.387" y="596"/>
			<point x="556.387" y="543" type="curve" smooth="yes"/>
			<point x="526.387" y="396"/>
			<point x="455.387" y="277"/>
		</contour>
	</outline>
</glyph>
<glyph name="five" format="2">
	<unicode hex="0035"/>
	<advance width="700"/>
	<outline>
		<contour>
			<point x="631.914" y="651" type="curve" smooth="yes"/>
			<point x="657.914" y="651"/>
			<point x="676.914" y="660"/>
			<point x="680.914" y="675" type="curve" smooth="yes"/>
			<point x="685.914" y="696"/>
			<point x="665.914" y="716"/>
			<point x="618.914" y="716" type="curve" smooth="yes"/>
			<point x="507.914" y="716"/>
			<point x="447.914" y="697"/>
			<point x="300.914" y="700" type="curve" smooth="yes"/>
			<point x="273.914" y="700"/>
			<point x="250" y="682"/>
			<point x="225.914" y="641" type="curve" smooth="yes"/>
			<point x="191" y="581"/>
			<point x="174" y="540"/>
			<point x="167" y="503" type="curve" smooth="yes"/>
			<point x="153" y="434"/>
			<point x="162.914" y="398"/>
			<point x="366.914" y="354" type="curve" smooth="yes"/>
			<point x="475.914" y="330"/>
			<point x="555.914" y="304"/>
			<point x="542.914" y="239" type="curve" smooth="yes"/>
			<point x="518.914" y="122"/>
			<point x="372" y="53"/>
			<point x="200.914" y="53" type="curve" smooth="yes"/>
			<point x="118" y="53"/>
			<point x="147" y="111"/>
			<point x="112" y="111" type="curve" smooth="yes"/>
			<point x="94" y="111"/>
			<point x="80" y="105"/>
			<point x="76" y="84" type="curve" smooth="yes"/>
			<point x="66" y="40"/>
			<point x="116" y="-12"/>
			<point x="201" y="-12" type="curve" smooth="yes"/>
			<point x="418" y="-12"/>
			<point x="580" y="82"/>
			<point x="609" y="223" type="curve" smooth="yes"/>
			<point x="624" y="307"/>
			<point x="591" y="374"/>
			<point x="414" y="412" type="curve" smooth="yes"/>
			<point x="231" y="452"/>
			<point x="225.914" y="457"/>
			<point x="232.914" y="489" type="curve" smooth="yes"/>
			<point x="242.914" y="539"/>
			<point x="270" y="600"/>
			<point x="319.914" y="666" type="curve"/>
			<point x="247.914" y="635" type="line"/>
			<point x="417.914" y="632"/>
			<point x="487.914" y="651"/>
		</contour>
	</outline>
</glyph>
<glyph name="eight" format="2">
	<unicode hex="0038"/>
	<advance width="700"/>
	<outline>
		<contour>
			<point x="526.933" y="646" type="curve" smooth="yes"/>
			<point x="542.933" y="645"/>
			<point x="559.933" y="656"/>
			<point x="562.933" y="669" type="curve" smooth="yes"/>
			<point x="566.933" y="690"/>
			<point x="548.933" y="711"/>
			<point x="498.933" y="711" type="curve" smooth="yes"/>
			<point x="283.933" y="711"/>
			<point x="179" y="660"/>
			<point x="156" y="557" type="curve" smooth="yes"/>
			<point x="141" y="484"/>
			<point x="162" y="423"/>
			<point x="371" y="343" type="curve" smooth="yes"/>
			<point x="504" y="292"/>
			<point x="528.933" y="253"/>
			<point x="515.933" y="192" type="curve" smooth="yes"/>
			<point x="497.933" y="99"/>
			<point x="376.933" y="53"/>
			<point x="258.933" y="53" type="curve"/>
			<point x="203.933" y="53"/>
			<point x="166.933" y="63"/>
			<point x="140.933" y="84" type="curve"/>
			<point x="174.933" y="41" type="line"/>
			<point x="157.933" y="66"/>
			<point x="163" y="92"/>
			<point x="169" y="121" type="curve" smooth="yes"/>
			<point x="180" y="179"/>
			<point x="234" y="237"/>
			<point x="407" y="336" type="curve" smooth="yes"/>
			<point x="562" y="427"/>
			<point x="635" y="527"/>
			<point x="650" y="601" type="curve" smooth="yes"/>
			<point x="654" y="625"/>
			<point x="647" y="643"/>
			<point x="627" y="643" type="curve" smooth="yes"/>
			<point x="609" y="643"/>
			<point x="599.933" y="631"/>
			<point x="584.933" y="602" type="curve" smooth="yes"/>
			<point x="540.933" y="512"/>
			<point x="476.933" y="456"/>
			<point x="363.933" y="389" type="curve" smooth="yes"/>
			<point x="138.933" y="255"/>
			<point x="112.933" y="193"/>
			<point x="97.933" y="125" type="curve" smooth="yes"/>
			<point x="83.933" y="58"/>
			<point x="117.933" y="-12"/>
			<point x="245.933" y="-12" type="curve"/>
			<point x="454.933" y="-12"/>
			<point x="561" y="72"/>
			<point x="582" y="175" type="curve" smooth="yes"/>
			<point x="596" y="247"/>
			<point x="597.933" y="328"/>
			<point x="406.933" y="403" type="curve" smooth="yes"/>
			<point x="227.933" y="473"/>
			<point x="212.933" y="504"/>
			<point x="220.933" y="545" type="curve" smooth="yes"/>
			<point x="234.933" y="617"/>
			<point x="334.933" y="650"/>
		</contour>
	</outline>
</glyph>
<glyph name="equal" format="2">
	<unicode hex="003D"/>
	<advance width="700"/>
	<outline>
		<contour>
			<point x="604.862" y="436" type="curve" smooth="yes"/>
			<point x="627.862" y="436"/>
			<point x="641.862" y="447"/>
			<point x="645.862" y="464" type="curve" smooth="yes"/>
			<point x="649.862" y="484"/>
			<point x="633.862" y="499"/>
			<point x="569.862" y="499" type="curve" smooth="yes"/>
			<point x="485.862" y="499"/>
			<point x="339.862" y="497"/>
			<point x="210.862" y="475" type="curve" smooth="yes"/>
			<point x="155.862" y="467"/>
			<point x="137.862" y="454"/>
			<point x="133.862" y="433" type="curve" smooth="yes"/>
			<point x="127.862" y="404"/>
			<point x="145.862" y="392"/>
			<point x="203.862" y="403" type="curve" smooth="yes"/>
			<point x="324.862" y="426"/>
			<point x="418.862" y="436"/>
		</contour>
		<contour>
			<point x="540.862" y="224" type="curve" smooth="yes"/>
			<point x="565.862" y="224"/>
			<point x="577.862" y="233"/>
			<point x="580.862" y="252" type="curve" smooth="yes"/>
			<point x="584.862" y="271"/>
			<point x="566.862" y="287"/>
			<point x="528.862" y="287" type="curve" smooth="yes"/>
			<point x="409.862" y="287"/>
			<point x="278.862" y="270"/>
			<point x="152.862" y="239" type="curve" smooth="yes"/>
			<point x="98.862" y="225"/>
			<point x="86.862" y="206"/>
			<point x="83.862" y="188" type="curve" smooth="yes"/>
			<point x="78.862" y="165"/>
			<point x="94.862" y="147"/>
			<point x="151.862" y="165" type="curve" smooth="yes"/>
			<point x="258.862" y="200"/>
			<point x="363.862" y="224"/>
		</contour>
	</outline>
</glyph>
<glyph name="at" format="2">
	<unicode hex="0040"/>
	<advance width="848"/>
	<outline>
		<contour>
			<point x="515.591" y="341" type="curve" smooth="yes"/>
			<point x="543.591" y="343"/>
			<point x="556.591" y="353"/>
			<point x="559.591" y="371" type="curve" smooth="yes"/>
			<point x="563.591" y="390"/>
			<point x="554.591" y="409"/>
			<point x="521.591" y="409" type="curve" smooth="yes"/>
			<point x="423.591" y="409"/>
			<point x="298" y="336"/>
			<point x="277" y="231" type="curve" smooth="yes"/>
			<point x="261" y="151"/>
			<point x="307" y="103"/>
			<point x="371" y="103" type="curve" smooth="yes"/>
			<point x="470" y="103"/>
			<point x="505" y="219"/>
			<point x="546" y="256" type="curve"/>
			<point x="518" y="256" type="line"/>
			<point x="543" y="241"/>
			<point x="547" y="224"/>
			<point x="554" y="189" type="curve" smooth="yes"/>
			<point x="561" y="154"/>
			<point x="575" y="112"/>
			<point x="645" y="112" type="curve" smooth="yes"/>
			<point x="697" y="112"/>
			<point x="760" y="149"/>
			<point x="786" y="280" type="curve" smooth="yes"/>
			<point x="814" y="420"/>
			<point x="765" y="620"/>
			<point x="515" y="620" type="curve" smooth="yes"/>
			<point x="324" y="620"/>
			<point x="111" y="446"/>
			<point x="74" y="261" type="curve" smooth="yes"/>
			<point x="28" y="30"/>
			<point x="183" y="-102"/>
			<point x="389" y="-102" type="curve" smooth="yes"/>
			<point x="513" y="-102"/>
			<point x="574" y="-75"/>
			<point x="619.591" y="-46" type="curve" smooth="yes"/>
			<point x="641.591" y="-32"/>
			<point x="649.591" y="-17"/>
			<point x="652.591" y="-1" type="curve" smooth="yes"/>
			<point x="656" y="20"/>
			<point x="651" y="34"/>
			<point x="629" y="34" type="curve" smooth="yes"/>
			<point x="594" y="34"/>
			<point x="572" y="-34"/>
			<point x="391.591" y="-34" type="curve" smooth="yes"/>
			<point x="234" y="-34"/>
			<point x="101" y="59"/>
			<point x="140" y="251" type="curve" smooth="yes"/>
			<point x="170" y="402"/>
			<point x="352" y="552"/>
			<point x="511" y="552" type="curve" smooth="yes"/>
			<point x="707" y="552"/>
			<point x="741.591" y="400"/>
			<point x="719.591" y="290" type="curve" smooth="yes"/>
			<point x="709.591" y="241"/>
			<point x="685.591" y="180"/>
			<point x="646.591" y="180" type="curve" smooth="yes"/>
			<point x="628.591" y="180"/>
			<point x="621.591" y="185"/>
			<point x="607.591" y="243" type="curve" smooth="yes"/>
			<point x="593.591" y="298"/>
			<point x="568.591" y="309"/>
			<point x="539.591" y="309" type="curve" smooth="yes"/>
			<point x="511.591" y="309"/>
			<point x="487.591" y="298"/>
			<point x="446.591" y="228" type="curve" smooth="yes"/>
			<point x="419.591" y="183"/>
			<point x="401.591" y="167"/>
			<point x="371.591" y="167" type="curve" smooth="yes"/>
			<point x="359.591" y="167"/>
			<point x="346.591" y="170"/>
			<point x="314.591" y="191" type="curve"/>
			<point x="344.591" y="148" type="line"/>
			<point x="335.591" y="188"/>
			<point x="338.591" y="204"/>
			<point x="341.591" y="219" type="curve" smooth="yes"/>
			<point x="352.591" y="275"/>
			<point x="415.591" y="334"/>
		</contour>
	</outline>
</glyph>
<glyph name="C" format="2">
	<unicode hex="0043"/>
	<advance width="618"/>
	<outline>
		<contour>
			<point x="298" y="-10" type="curve" smooth="yes"/>
			<point x="454" y="-10"/>
			<point x="536.168" y="87"/>
			<point x="546.168" y="136" type="curve" smooth="yes"/>
			<point x="550.168" y="154"/>
			<point x="543" y="169"/>
			<point x="527" y="169" type="curve" smooth="yes"/>
			<point x="494" y="169"/>
			<point x="472" y="55"/>
			<point x="297.168" y="55" type="curve" smooth="yes"/>
			<point x="176" y="55"/>
			<point x="116.168" y="138"/>
			<point x="146.168" y="288" type="curve" smooth="yes"/>
			<point x="182.168" y="471"/>
			<point x="326.168" y="646"/>
			<point x="484.168" y="646" type="curve" smooth="yes"/>
			<point x="545.168" y="646"/>
			<point x="548.168" y="618"/>
			<point x="542.168" y="590" type="curve" smooth="yes"/>
			<point x="536.168" y="558"/>
			<point x="523.168" y="530"/>
			<point x="553.168" y="530" type="curve" smooth="yes"/>
			<point x="583.168" y="530"/>
			<point x="604.168" y="562"/>
			<point x="611.168" y="595" type="curve" smooth="yes"/>
			<point x="625.168" y="665"/>
			<point x="587" y="711"/>
			<point x="489" y="711" type="curve" smooth="yes"/>
			<point x="290" y="711"/>
			<point x="123" y="512"/>
			<point x="80" y="295" type="curve" smooth="yes"/>
			<point x="46" y="127"/>
			<point x="102" y="-10"/>
		</contour>
	</outline>
	<anchor name="bottom" x="283.168" y="0"/>
	<anchor name="top" x="466.169" y="700"/>
</glyph>
<glyph name="F" format="2">
	<unicode hex="0046"/>
	<advance width="559"/>
	<outline>
		<contour>
			<point x="169.127" y="270" type="curve" smooth="yes"/>
			<point x="185.127" y="363"/>
			<point x="245.127" y="514"/>
			<point x="280.127" y="604" type="curve" smooth="yes"/>
			<point x="289.127" y="632"/>
			<point x="292.127" y="652"/>
			<point x="274.127" y="652" type="curve" smooth="yes"/>
			<point x="245.127" y="652"/>
			<point x="223.127" y="632"/>
			<point x="198.127" y="572" type="curve" smooth="yes"/>
			<point x="161.127" y="483"/>
			<point x="124" y="386"/>
			<point x="108" y="304" type="curve" smooth="yes"/>
			<point x="84" y="185"/>
			<point x="86.127" y="117"/>
			<point x="101.127" y="63" type="curve" smooth="yes"/>
			<point x="115.127" y="8"/>
			<point x="125.127" y="-10"/>
			<point x="151.127" y="-10" type="curve" smooth="yes"/>
			<point x="168.127" y="-10"/>
			<point x="180.127" y="4"/>
			<point x="183.127" y="22" type="curve" smooth="yes"/>
			<point x="191.127" y="61"/>
			<point x="139.127" y="96"/>
		</contour>
		<contour>
			<point x="553.127" y="646" type="curve" smooth="yes"/>
			<point x="586.127" y="646"/>
			<point x="599.127" y="654"/>
			<point x="602.127" y="671" type="curve" smooth="yes"/>
			<point x="607.127" y="695"/>
			<point x="589.127" y="711"/>
			<point x="549.127" y="711" type="curve" smooth="yes"/>
			<point x="430.127" y="711"/>
			<point x="259.127" y="695"/>
			<point x="158.127" y="675" type="curve" smooth="yes"/>
			<point x="136.127" y="670"/>
			<point x="127.127" y="658"/>
			<point x="123.127" y="642" type="curve" smooth="yes"/>
			<point x="120.127" y="626"/>
			<point x="134.127" y="614"/>
			<point x="159.127" y="614" type="curve" smooth="yes"/>
			<point x="203.127" y="614"/>
			<point x="341.127" y="646"/>
		</contour>
		<contour>
			<point x="202.127" y="303" type="curve" smooth="yes"/>
			<point x="256.127" y="313"/>
			<point x="298.127" y="315"/>
			<point x="397.127" y="322" type="curve" smooth="yes"/>
			<point x="463.127" y="327"/>
			<point x="489" y="334"/>
			<point x="495" y="362" type="curve"/>
			<point x="499" y="382"/>
			<point x="488.127" y="389"/>
			<point x="448.127" y="389" type="curve" smooth="yes"/>
			<point x="373.127" y="388"/>
			<point x="275.127" y="379"/>
			<point x="197.127" y="368" type="curve" smooth="yes"/>
			<point x="153.127" y="362"/>
			<point x="140.127" y="351"/>
			<point x="135.127" y="326" type="curve" smooth="yes"/>
			<point x="133.127" y="316"/>
			<point x="137.127" y="291"/>
		</contour>
	</outline>
	<anchor name="bottom" x="149.127" y="0"/>
	<anchor name="top" x="389.128" y="700"/>
</glyph>
<glyph name="K" format="2">
	<unicode hex="004B"/>
	<advance width="654"/>
	<outline>
		<contour>
			<point x="85.354" y="-11" type="curve" smooth="yes"/>
			<point x="101.354" y="-11"/>
			<point x="113.354" y="0"/>
			<point x="117.354" y="19" type="curve" smooth="yes"/>
			<point x="128.354" y="73"/>
			<point x="115.354" y="69"/>
			<point x="146.354" y="225" type="curve" smooth="yes"/>
			<point x="167.354" y="332"/>
			<point x="219.354" y="467"/>
			<point x="236.354" y="552" type="curve" smooth="yes"/>
			<point x="249.354" y="617"/>
			<point x="262.354" y="710"/>
			<point x="216.354" y="710" type="curve" smooth="yes"/>
			<point x="201.354" y="710"/>
			<point x="187.354" y="700"/>
			<point x="182.354" y="676" type="curve" smooth="yes"/>
			<point x="174.354" y="637"/>
			<point x="183.354" y="618"/>
			<point x="169.354" y="552" type="curve" smooth="yes"/>
			<point x="156.354" y="484"/>
			<point x="104.354" y="346"/>
			<point x="72.354" y="187" type="curve" smooth="yes"/>
			<point x="43.354" y="41"/>
			<point x="46.354" y="-11"/>
		</contour>
		<contour>
			<point x="528" y="-11" type="curve" smooth="yes"/>
			<point x="550" y="-11"/>
			<point x="561" y="-4"/>
			<point x="564" y="9" type="curve" smooth="yes"/>
			<point x="568" y="27"/>
			<point x="559" y="38"/>
			<point x="501" y="55" type="curve" smooth="yes"/>
			<point x="314.409" y="107.325"/>
			<point x="210" y="229"/>
			<point x="227" y="316" type="curve" smooth="yes"/>
			<point x="241" y="385"/>
			<point x="363.422" y="501.751"/>
			<point x="578" y="615" type="curve" smooth="yes"/>
			<point x="623" y="639"/>
			<point x="643.354" y="657"/>
			<point x="648.354" y="680" type="curve" smooth="yes"/>
			<point x="651.354" y="697"/>
			<point x="643.354" y="705"/>
			<point x="625.354" y="705" type="curve" smooth="yes"/>
			<point x="604.354" y="705"/>
			<point x="578.354" y="689"/>
			<point x="529.354" y="662" type="curve" smooth="yes"/>
			<point x="332.354" y="556"/>
			<point x="184" y="431"/>
			<point x="162" y="317" type="curve" smooth="yes"/>
			<point x="130" y="159"/>
			<point x="381" y="-11"/>
		</contour>
	</outline>
	<anchor name="bottom" x="261.354" y="0"/>
	<anchor name="top" x="401.355" y="700"/>
</glyph>
<glyph name="Y" format="2">
	<unicode hex="0059"/>
	<advance width="598"/>
	<outline>
		<contour>
			<point x="613.204" y="614" type="curve" smooth="yes"/>
			<point x="657.204" y="652"/>
			<point x="663.204" y="659"/>
			<point x="668.204" y="683" type="curve" smooth="yes"/>
			<point x="671.204" y="702"/>
			<point x="658" y="713"/>
			<point x="645" y="713" type="curve" smooth="yes"/>
			<point x="630" y="713"/>
			<point x="614" y="708"/>
			<point x="582" y="680" type="curve" smooth="yes"/>
			<point x="391" y="509"/>
			<point x="236" y="264"/>
			<point x="157" y="69" type="curve" smooth="yes"/>
			<point x="131" y="8"/>
			<point x="141.204" y="-14"/>
			<point x="167.204" y="-14" type="curve" smooth="yes"/>
			<point x="192.204" y="-14"/>
			<point x="207.204" y="-2"/>
			<point x="226.204" y="48" type="curve" smooth="yes"/>
			<point x="309.204" y="267"/>
			<point x="450.204" y="470"/>
		</contour>
		<contour>
			<point x="177" y="679" type="curve" smooth="yes"/>
			<point x="168" y="702"/>
			<point x="159" y="712"/>
			<point x="140" y="712" type="curve" smooth="yes"/>
			<point x="123" y="712"/>
			<point x="113.204" y="701"/>
			<point x="110.204" y="684" type="curve" smooth="yes"/>
			<point x="107.204" y="668"/>
			<point x="109.204" y="659"/>
			<point x="123.204" y="620" type="curve" smooth="yes"/>
			<point x="161.204" y="525"/>
			<point x="197.204" y="483"/>
			<point x="256.204" y="338" type="curve" smooth="yes"/>
			<point x="262.204" y="321"/>
			<point x="272.204" y="309"/>
			<point x="290.204" y="309" type="curve" smooth="yes"/>
			<point x="322.204" y="309"/>
			<point x="323" y="344"/>
			<point x="317" y="362" type="curve" smooth="yes"/>
			<point x="267" y="512"/>
			<point x="225" y="540"/>
		</contour>
	</outline>
	<anchor name="bottom" x="171.204" y="0"/>
	<anchor name="top" x="387.204" y="700"/>
</glyph>
<glyph name="e" format="2">
	<unicode hex="0065"/>
	<advance width="562"/>
	<outline>
		<contour>
			<point x="219" y="180" type="curve" smooth="yes"/>
			<point x="354" y="180"/>
			<point x="467.544" y="245.698"/>
			<point x="489" y="354" type="curve" smooth="yes"/>
			<point x="507.376" y="448.781"/>
			<point x="461" y="495"/>
			<point x="363" y="495" type="curve"/>
			<point x="215" y="495"/>
			<point x="85.073" y="343"/>
			<point x="58.073" y="210" type="curve" smooth="yes"/>
			<point x="31.937" y="81.331"/>
			<point x="78.315" y="-10"/>
			<point x="238" y="-10" type="curve" smooth="yes"/>
			<point x="346.297" y="-10"/>
			<point x="467" y="64"/>
			<point x="477" y="111" type="curve" smooth="yes"/>
			<point x="481" y="131"/>
			<point x="474" y="143"/>
			<point x="461" y="143" type="curve" smooth="yes"/>
			<point x="427" y="143"/>
			<point x="369.029" y="55"/>
			<point x="228.073" y="55" type="curve" smooth="yes"/>
			<point x="130.073" y="55"/>
			<point x="107.073" y="121"/>
			<point x="123.073" y="201" type="curve" smooth="yes"/>
			<point x="147.073" y="320"/>
			<point x="248.073" y="429"/>
			<point x="357.073" y="429" type="curve" smooth="yes"/>
			<point x="415.009" y="429"/>
			<point x="431.738" y="406.69"/>
			<point x="423" y="363" type="curve" smooth="yes"/>
			<point x="407.8" y="290.259"/>
			<point x="329.034" y="241"/>
			<point x="219.073" y="241" type="curve" smooth="yes"/>
			<point x="175.073" y="241"/>
			<point x="158.073" y="249"/>
			<point x="143.073" y="249" type="curve" smooth="yes"/>
			<point x="124.073" y="249"/>
			<point x="116.073" y="242"/>
			<point x="113.073" y="227" type="curve" smooth="yes"/>
			<point x="109.145" y="203.431"/>
			<point x="129.286" y="180"/>
		</contour>
	</outline>
	<anchor name="bottom" x="223.073" y="0"/>
	<anchor name="ogonek" x="380.473" y="32"/>
	<anchor name="top" x="347.073" y="485"/>
</glyph>
<glyph name="f" format="2">
	<unicode hex="0066"/>
	<advance width="349"/>
	<outline>
		<contour>
			<point x="326.6" y="434" type="curve" smooth="yes"/>
			<point x="352.6" y="434"/>
			<point x="365.6" y="443"/>
			<point x="368.6" y="458" type="curve" smooth="yes"/>
			<point x="371.6" y="476"/>
			<point x="361.6" y="494"/>
			<point x="331.6" y="494" type="curve" smooth="yes"/>
			<point x="279.6" y="494"/>
			<point x="235.6" y="489"/>
			<point x="190.6" y="481" type="curve" smooth="yes"/>
			<point x="162.6" y="475"/>
			<point x="148.6" y="457"/>
			<point x="145.6" y="440" type="curve" smooth="yes"/>
			<point x="142.6" y="426"/>
			<point x="152.6" y="419"/>
			<point x="165.6" y="419" type="curve" smooth="yes"/>
			<point x="193.6" y="419"/>
			<point x="222.6" y="434"/>
		</contour>
		<contour>
			<point x="80.6" y="-13" type="curve" smooth="yes"/>
			<point x="98.6" y="-13"/>
			<point x="109.6" y="-4"/>
			<point x="116.6" y="29" type="curve" smooth="yes"/>
			<point x="151.6" y="203"/>
			<point x="152.6" y="300"/>
			<point x="171.6" y="396" type="curve" smooth="yes"/>
			<point x="203.6" y="553"/>
			<point x="250.6" y="666"/>
			<point x="426.6" y="700" type="curve" smooth="yes"/>
			<point x="451.6" y="705"/>
			<point x="464.6" y="718"/>
			<point x="467.6" y="733" type="curve" smooth="yes"/>
			<point x="470.6" y="751"/>
			<point x="450.6" y="760"/>
			<point x="434.6" y="760" type="curve" smooth="yes"/>
			<point x="292.6" y="760"/>
			<point x="151.6" y="646"/>
			<point x="110.6" y="439" type="curve" smooth="yes"/>
			<point x="79.6" y="284"/>
			<point x="85.6" y="223"/>
			<point x="49.6" y="46" type="curve" smooth="yes"/>
			<point x="42.6" y="9"/>
			<point x="59.6" y="-13"/>
		</contour>
	</outline>
	<anchor name="bottom" x="75.6" y="0"/>
	<anchor name="top" x="342.601" y="750"/>
</glyph>
<glyph name="l" format="2">
	<unicode hex="006C"/>
	<advance width="304"/>
	<outline>
		<contour>
			<point x="259.213" y="701" type="curve" smooth="yes"/>
			<point x="268.213" y="744"/>
			<point x="259.213" y="760"/>
			<point x="240.213" y="760" type="curve" smooth="yes"/>
			<point x="222.213" y="760"/>
			<point x="209.213" y="743"/>
			<point x="189.213" y="691" type="curve" smooth="yes"/>
			<point x="152.213" y="586"/>
			<point x="121" y="491"/>
			<point x="86" y="317" type="curve" smooth="yes"/>
			<point x="28" y="31"/>
			<point x="87" y="-11"/>
			<point x="165" y="-11" type="curve" smooth="yes"/>
			<point x="208" y="-11"/>
			<point x="250.213" y="15"/>
			<point x="256.213" y="45" type="curve" smooth="yes"/>
			<point x="259.213" y="62"/>
			<point x="256.213" y="74"/>
			<point x="238.213" y="74" type="curve" smooth="yes"/>
			<point x="217.213" y="74"/>
			<point x="207.213" y="56"/>
			<point x="166.213" y="56" type="curve" smooth="yes"/>
			<point x="130.213" y="56"/>
			<point x="114.213" y="114"/>
			<point x="150.213" y="297" type="curve" smooth="yes"/>
			<point x="200.213" y="544"/>
			<point x="245.213" y="628"/>
		</contour>
	</outline>
	<anchor name="bottom" x="154.213" y="0"/>
	<anchor name="top" x="239.214" y="750"/>
</glyph>
<glyph name="n" format="2">
	<unicode hex="006E"/>
	<advance width="600"/>
	<outline>
		<contour>
			<point x="470.43" y="-9" type="curve" smooth="yes"/>
			<point x="495.43" y="-9"/>
			<point x="507.43" y="4"/>
			<point x="510.43" y="18" type="curve" smooth="yes"/>
			<point x="512.43" y="31"/>
			<point x="511.43" y="40"/>
			<point x="501.43" y="50" type="curve" smooth="yes"/>
			<point x="463.43" y="88"/>
			<point x="486.43" y="181"/>
			<point x="518.43" y="342" type="curve" smooth="yes"/>
			<point x="537.43" y="437"/>
			<point x="516.43" y="496"/>
			<point x="454.43" y="496" type="curve" smooth="yes"/>
			<point x="357.43" y="496"/>
			<point x="223" y="349"/>
			<point x="101" y="74" type="curve"/>
			<point x="115.43" y="81" type="line"/>
			<point x="141.43" y="260"/>
			<point x="195.43" y="339"/>
			<point x="213.43" y="429" type="curve" smooth="yes"/>
			<point x="223.43" y="478"/>
			<point x="203.43" y="495"/>
			<point x="186.43" y="495" type="curve" smooth="yes"/>
			<point x="169.43" y="495"/>
			<point x="156.43" y="482"/>
			<point x="153.43" y="465" type="curve" smooth="yes"/>
			<point x="128.43" y="340"/>
			<point x="89.43" y="288"/>
			<point x="61.43" y="151" type="curve" smooth="yes"/>
			<point x="43.43" y="58"/>
			<point x="53.43" y="-9"/>
			<point x="99.43" y="-9" type="curve" smooth="yes"/>
			<point x="124.43" y="-9"/>
			<point x="135" y="5"/>
			<point x="161" y="65" type="curve" smooth="yes"/>
			<point x="254" y="273"/>
			<point x="387.43" y="429"/>
			<point x="441.43" y="429" type="curve" smooth="yes"/>
			<point x="460.43" y="429"/>
			<point x="468.43" y="423"/>
			<point x="478.43" y="396" type="curve"/>
			<point x="485.43" y="442"/>
			<point x="469.43" y="462"/>
			<point x="431.43" y="459" type="curve"/>
			<point x="458.43" y="427"/>
			<point x="465.43" y="415"/>
			<point x="435.43" y="265" type="curve" smooth="yes"/>
			<point x="394.43" y="62"/>
			<point x="417.43" y="-9"/>
		</contour>
	</outline>
	<anchor name="bottom" x="270.43" y="0"/>
	<anchor name="top" x="353.43" y="485"/>
</glyph>
<glyph name="p" format="2">
	<unicode hex="0070"/>
	<advance width="550"/>
	<outline>
		<contour>
			<point x="160" y="384" type="curve" smooth="yes"/>
			<point x="168" y="423"/>
			<point x="161" y="456"/>
			<point x="137" y="456" type="curve" smooth="yes"/>
			<point x="115" y="456"/>
			<point x="101" y="441"/>
			<point x="94" y="406" type="curve" smooth="yes"/>
			<point x="63" y="249"/>
			<point x="90" y="93"/>
			<point x="61" y="-50" type="curve" smooth="yes"/>
			<point x="35" y="-181"/>
			<point x="-2" y="-195"/>
			<point x="-9" y="-228" type="curve" smooth="yes"/>
			<point x="-13" y="-249"/>
			<point x="-7" y="-261"/>
			<point x="13" y="-261" type="curve" smooth="yes"/>
			<point x="57" y="-261"/>
			<point x="102" y="-186"/>
			<point x="130" y="-46" type="curve" smooth="yes"/>
			<point x="159" y="101"/>
			<point x="128" y="223"/>
		</contour>
		<contour>
			<point x="240" y="494" type="curve" smooth="yes"/>
			<point x="158" y="494"/>
			<point x="123" y="473"/>
			<point x="117" y="447" type="curve" smooth="yes"/>
			<point x="114" y="432"/>
			<point x="121" y="418"/>
			<point x="140" y="418" type="curve" smooth="yes"/>
			<point x="160" y="418"/>
			<point x="199" y="429"/>
			<point x="234" y="429" type="curve" smooth="yes"/>
			<point x="365" y="429"/>
			<point x="443" y="335"/>
			<point x="415" y="197" type="curve" smooth="yes"/>
			<point x="395" y="94"/>
			<point x="332" y="56"/>
			<point x="252" y="56" type="curve" smooth="yes"/>
			<point x="146" y="56"/>
			<point x="150" y="92"/>
			<point x="126" y="92" type="curve" smooth="yes"/>
			<point x="110" y="92"/>
			<point x="104" y="81"/>
			<point x="101" y="67" type="curve" smooth="yes"/>
			<point x="94" y="29"/>
			<point x="158" y="-10"/>
			<point x="248" y="-10" type="curve" smooth="yes"/>
			<point x="362" y="-10"/>
			<point x="454" y="55"/>
			<point x="480" y="184" type="curve" smooth="yes"/>
			<point x="517" y="369"/>
			<point x="413" y="494"/>
		</contour>
	</outline>
	<anchor name="bottom" x="18" y="-250"/>
	<anchor name="top" x="318.001" y="485"/>
</glyph>
<glyph name="q" format="2">
	<unicode hex="0071"/>
	<advance width="558"/>
	<outline>
		<contour>
			<point x="153.91" y="-10" type="curve" smooth="yes"/>
			<point x="241.91" y="-10"/>
			<point x="347.91" y="50"/>
			<point x="413.91" y="155" type="curve"/>
			<point x="397.91" y="175" type="line"/>
			<point x="355.91" y="-2"/>
			<point x="365.91" y="-11"/>
			<point x="324.91" y="-214" type="curve" smooth="yes"/>
			<point x="317.91" y="-248"/>
			<point x="329.91" y="-260"/>
			<point x="348.91" y="-260" type="curve" smooth="yes"/>
			<point x="367.91" y="-260"/>
			<point x="403.91" y="-238"/>
			<point x="451.91" y="-205" type="curve" smooth="yes"/>
			<point x="480.91" y="-184"/>
			<point x="491.91" y="-170"/>
			<point x="495.91" y="-152" type="curve" smooth="yes"/>
			<point x="498.91" y="-135"/>
			<point x="489.91" y="-124"/>
			<point x="474.91" y="-124" type="curve" smooth="yes"/>
			<point x="457.91" y="-124"/>
			<point x="442.91" y="-142"/>
			<point x="381.91" y="-181" type="curve"/>
			<point x="396.91" y="-183" type="line"/>
			<point x="430.91" y="-15"/>
			<point x="428.91" y="41"/>
			<point x="472.91" y="228" type="curve"/>
			<point x="491.91" y="266"/>
			<point x="500.91" y="292"/>
			<point x="507.91" y="324" type="curve" smooth="yes"/>
			<point x="512.91" y="348"/>
			<point x="505.91" y="368"/>
			<point x="488.91" y="368" type="curve" smooth="yes"/>
			<point x="466.91" y="368"/>
			<point x="451.91" y="356"/>
			<point x="443.91" y="335" type="curve" smooth="yes"/>
			<point x="374.91" y="161"/>
			<point x="267.91" y="55"/>
			<point x="166.91" y="55" type="curve" smooth="yes"/>
			<point x="106.91" y="55"/>
			<point x="80.91" y="91"/>
			<point x="94.91" y="159" type="curve" smooth="yes"/>
			<point x="120.91" y="289"/>
			<point x="249.91" y="429"/>
			<point x="345.91" y="429" type="curve" smooth="yes"/>
			<point x="386.91" y="429"/>
			<point x="399.91" y="412"/>
			<point x="419.91" y="370" type="curve" smooth="yes"/>
			<point x="425.91" y="355"/>
			<point x="434.91" y="347"/>
			<point x="448.91" y="347" type="curve" smooth="yes"/>
			<point x="463.91" y="347"/>
			<point x="479.91" y="361"/>
			<point x="482.91" y="376" type="curve" smooth="yes"/>
			<point x="493.91" y="428"/>
			<point x="446" y="495"/>
			<point x="359" y="495" type="curve" smooth="yes"/>
			<point x="215" y="495"/>
			<point x="62" y="326"/>
			<point x="32" y="178" type="curve" smooth="yes"/>
			<point x="9" y="65"/>
			<point x="48.714" y="-10"/>
		</contour>
	</outline>
	<anchor name="bottom" x="351.91" y="-250"/>
	<anchor name="top" x="356.911" y="485"/>
</glyph>
<glyph name="braceleft" format="2">
	<unicode hex="007B"/>
	<advance width="512"/>
	<outline>
		<contour>
			<point x="571.085" y="736" type="curve" smooth="yes"/>
			<point x="597.085" y="742"/>
			<point x="611.085" y="748"/>
			<point x="613.085" y="762" type="curve" smooth="yes"/>
			<point x="618.085" y="787"/>
			<point x="605.085" y="807"/>
			<point x="577.085" y="807" type="curve" smooth="yes"/>
			<point x="535.085" y="807"/>
			<point x="332" y="745"/>
			<point x="304" y="604" type="curve" smooth="yes"/>
			<point x="290" y="536"/>
			<point x="310.085" y="471"/>
			<point x="297.085" y="406" type="curve" smooth="yes"/>
			<point x="285.085" y="347"/>
			<point x="180.085" y="293"/>
			<point x="83.085" y="265" type="curve" smooth="yes"/>
			<point x="65.085" y="260"/>
			<point x="55.085" y="252"/>
			<point x="52.085" y="237" type="curve" smooth="yes"/>
			<point x="48.085" y="215"/>
			<point x="55.085" y="200"/>
			<point x="74.085" y="197" type="curve" smooth="yes"/>
			<point x="201.085" y="179"/>
			<point x="279.085" y="141"/>
			<point x="266.085" y="74" type="curve" smooth="yes"/>
			<point x="255" y="18"/>
			<point x="213" y="-1"/>
			<point x="201" y="-60" type="curve" smooth="yes"/>
			<point x="177" y="-180"/>
			<point x="315" y="-264"/>
			<point x="374.085" y="-264" type="curve" smooth="yes"/>
			<point x="402.085" y="-264"/>
			<point x="424.085" y="-250"/>
			<point x="428.085" y="-230" type="curve" smooth="yes"/>
			<point x="431.085" y="-215"/>
			<point x="426.085" y="-207"/>
			<point x="400.085" y="-198" type="curve" smooth="yes"/>
			<point x="321.085" y="-172"/>
			<point x="259.085" y="-121"/>
			<point x="268.085" y="-74" type="curve" smooth="yes"/>
			<point x="281.085" y="-11"/>
			<point x="322.085" y="6"/>
			<point x="335.085" y="70" type="curve" smooth="yes"/>
			<point x="350.085" y="146"/>
			<point x="318.085" y="217"/>
			<point x="171.085" y="253" type="curve"/>
			<point x="165.085" y="229" type="line"/>
			<point x="284.085" y="271"/>
			<point x="352.085" y="337"/>
			<point x="366.085" y="400" type="curve" smooth="yes"/>
			<point x="382.085" y="476"/>
			<point x="359.085" y="525"/>
			<point x="371.085" y="587" type="curve" smooth="yes"/>
			<point x="385.085" y="654"/>
			<point x="469.085" y="714"/>
		</contour>
	</outline>
</glyph>
<glyph name="mu.math" format="2">
	<unicode hex="00B5"/>
	<advance width="700"/>
	<outline>
		<contour>
			<point x="205.554" y="437" type="curve" smooth="yes"/>
			<point x="213.554" y="474"/>
			<point x="201.554" y="496"/>
			<point x="177.554" y="496" type="curve" smooth="yes"/>
			<point x="143.554" y="496"/>
			<point x="105.554" y="446"/>
			<point x="81.554" y="323" type="curve" smooth="yes"/>
			<point x="66.554" y="250"/>
			<point x="67.554" y="204"/>
			<point x="76.554" y="160" type="curve"/>
			<point x="52.554" y="54"/>
			<point x="26.554" y="-64"/>
			<point x="3.554" y="-179" type="curve" smooth="yes"/>
			<point x="-10.446" y="-250"/>
			<point x="4.554" y="-261"/>
			<point x="20.554" y="-261" type="curve" smooth="yes"/>
			<point x="33.554" y="-261"/>
			<point x="53.554" y="-251"/>
			<point x="60.554" y="-216" type="curve" smooth="yes"/>
			<point x="71.554" y="-159"/>
			<point x="95.554" y="-58"/>
			<point x="121.554" y="57" type="curve"/>
			<point x="152.554" y="17"/>
			<point x="195.554" y="-10"/>
			<point x="252.554" y="-10" type="curve" smooth="yes"/>
			<point x="338.554" y="-10"/>
			<point x="422.554" y="45"/>
			<point x="470.554" y="139" type="curve"/>
			<point x="477.554" y="85"/>
			<point x="495.554" y="49"/>
			<point x="517.554" y="15" type="curve" smooth="yes"/>
			<point x="525.554" y="2"/>
			<point x="534.554" y="-7"/>
			<point x="550.554" y="-7" type="curve" smooth="yes"/>
			<point x="579.554" y="-7"/>
			<point x="594.554" y="28"/>
			<point x="580.554" y="51" type="curve" smooth="yes"/>
			<point x="532.554" y="136"/>
			<point x="513.554" y="224"/>
			<point x="553.554" y="423" type="curve" smooth="yes"/>
			<point x="561.554" y="466"/>
			<point x="544.554" y="494"/>
			<point x="516.554" y="494" type="curve" smooth="yes"/>
			<point x="498.554" y="494"/>
			<point x="491.554" y="483"/>
			<point x="487.554" y="466" type="curve" smooth="yes"/>
			<point x="476.554" y="411"/>
			<point x="474.554" y="386"/>
			<point x="457.554" y="299" type="curve" smooth="yes"/>
			<point x="423.554" y="132"/>
			<point x="349.554" y="55"/>
			<point x="253.554" y="55" type="curve" smooth="yes"/>
			<point x="206.554" y="55"/>
			<point x="166.554" y="105"/>
			<point x="148.554" y="169" type="curve"/>
			<point x="168.554" y="259"/>
			<point x="189.554" y="353"/>
		</contour>
	</outline>
</glyph>
<glyph name="Thorn" format="2">
	<unicode hex="00DE"/>
	<advance width="575"/>
	<outline>
		<contour>
			<point x="85.354" y="-11" type="curve" smooth="yes"/>
			<point x="101.354" y="-11"/>
			<point x="113.354" y="0"/>
			<point x="117.354" y="19" type="curve" smooth="yes"/>
			<point x="128.354" y="73"/>
			<point x="115.354" y="69"/>
			<point x="146.354" y="225" type="curve" smooth="yes"/>
			<point x="169.354" y="338"/>
			<point x="217.354" y="480"/>
			<point x="235.354" y="570" type="curve" smooth="yes"/>
			<point x="247.354" y="628"/>
			<point x="258.354" y="710"/>
			<point x="216.354" y="710" type="curve" smooth="yes"/>
			<point x="201.354" y="710"/>
			<point x="187.354" y="700"/>
			<point x="182.354" y="676" type="curve" smooth="yes"/>
			<point x="176.354" y="643"/>
			<point x="179.354" y="626"/>
			<point x="168.354" y="570" type="curve" smooth="yes"/>
			<point x="154.354" y="499"/>
			<point x="106.354" y="354"/>
			<point x="72.354" y="187" type="curve" smooth="yes"/>
			<point x="43.354" y="41"/>
			<point x="46.354" y="-11"/>
		</contour>
		<contour>
			<point x="232.354" y="469" type="curve" smooth="yes"/>
			<point x="261.354" y="506"/>
			<point x="307.354" y="523"/>
			<point x="365.354" y="523" type="curve" smooth="yes"/>
			<point x="442.354" y="523"/>
			<point x="505.354" y="476"/>
			<point x="486.354" y="380" type="curve" smooth="yes"/>
			<point x="468.354" y="289"/>
			<point x="371.354" y="208"/>
			<point x="250.354" y="208" type="curve" smooth="yes"/>
			<point x="185.354" y="208"/>
			<point x="177.354" y="236"/>
			<point x="147.354" y="236" type="curve" smooth="yes"/>
			<point x="136.354" y="236"/>
			<point x="127.354" y="228"/>
			<point x="124.354" y="213" type="curve" smooth="yes"/>
			<point x="116.328" y="176.885"/>
			<point x="166.99" y="143"/>
			<point x="248" y="143" type="curve" smooth="yes"/>
			<point x="398.981" y="143"/>
			<point x="526.977" y="249.883"/>
			<point x="549" y="360" type="curve" smooth="yes"/>
			<point x="577.451" y="504.445"/>
			<point x="491.069" y="588"/>
			<point x="369" y="588" type="curve" smooth="yes"/>
			<point x="287.614" y="588"/>
			<point x="228.513" y="555.905"/>
			<point x="186.354" y="501" type="curve" smooth="yes"/>
			<point x="169.354" y="479"/>
			<point x="176.354" y="453"/>
			<point x="196.354" y="453" type="curve" smooth="yes"/>
			<point x="210.354" y="453"/>
			<point x="223.354" y="458"/>
		</contour>
	</outline>
</glyph>
<glyph name="Eng" format="2">
	<unicode hex="014A"/>
	<advance width="753"/>
	<outline>
		<contour>
			<point x="66.41" y="-8" type="curve" smooth="yes"/>
			<point x="84.41" y="-8"/>
			<point x="101.41" y="8"/>
			<point x="111.41" y="29" type="curve" smooth="yes"/>
			<point x="156.41" y="114"/>
			<point x="187.41" y="217"/>
			<point x="212.41" y="342" type="curve" smooth="yes"/>
			<point x="228.41" y="420"/>
			<point x="242.41" y="515"/>
			<point x="254.41" y="641" type="curve"/>
			<point x="246" y="640" type="line"/>
			<point x="389" y="535"/>
			<point x="327" y="-7"/>
			<point x="520" y="-7" type="curve" smooth="yes"/>
			<point x="551" y="-7"/>
			<point x="564.41" y="13"/>
			<point x="568.41" y="37" type="curve" smooth="yes"/>
			<point x="571.41" y="52"/>
			<point x="561" y="62"/>
			<point x="541" y="62" type="curve" smooth="yes"/>
			<point x="397" y="62"/>
			<point x="447.41" y="710"/>
			<point x="249.41" y="710" type="curve" smooth="yes"/>
			<point x="217.41" y="710"/>
			<point x="194.41" y="678"/>
			<point x="186.41" y="638" type="curve" smooth="yes"/>
			<point x="179.41" y="605"/>
			<point x="165.41" y="457"/>
			<point x="142.41" y="342" type="curve" smooth="yes"/>
			<point x="102.41" y="140"/>
			<point x="53.41" y="96"/>
			<point x="43.41" y="43" type="curve" smooth="yes"/>
			<point x="35.41" y="4"/>
			<point x="48.41" y="-8"/>
		</contour>
		<contour>
			<point x="332.41" y="-194" type="curve" smooth="yes"/>
			<point x="287.452" y="-194"/>
			<point x="272.466" y="-174"/>
			<point x="235" y="-174" type="curve" smooth="yes"/>
			<point x="220.119" y="-174"/>
			<point x="208.137" y="-184.369"/>
			<point x="204.41" y="-203" type="curve" smooth="yes"/>
			<point x="198.41" y="-234"/>
			<point x="242.41" y="-260"/>
			<point x="328.41" y="-260" type="curve" smooth="yes"/>
			<point x="475.205" y="-260"/>
			<point x="582.307" y="-161.559"/>
			<point x="622" y="34" type="curve" smooth="yes"/>
			<point x="667.766" y="262.83"/>
			<point x="665.103" y="444.706"/>
			<point x="741.41" y="637" type="curve" smooth="yes"/>
			<point x="756.41" y="674"/>
			<point x="749.41" y="707"/>
			<point x="724.41" y="707" type="curve" smooth="yes"/>
			<point x="703.41" y="707"/>
			<point x="690.41" y="694"/>
			<point x="676.41" y="662" type="curve" smooth="yes"/>
			<point x="604.41" y="489"/>
			<point x="599.41" y="271"/>
			<point x="553.41" y="39" type="curve" smooth="yes"/>
			<point x="522.41" y="-116"/>
			<point x="443.41" y="-194"/>
		</contour>
	</outline>
</glyph>
<glyph name="tcaron" format="2">
	<unicode hex="0165"/>
	<advance width="443"/>
	<outline>
		<contour>
			<point x="463.27" y="809" type="curve" smooth="yes"/>
			<point x="437.27" y="809"/>
			<point x="423.27" y="793"/>
			<point x="416.27" y="758" type="curve" smooth="yes"/>
			<point x="408.27" y="719"/>
			<point x="396.27" y="690"/>
			<point x="373.27" y="658" type="curve" smooth="yes"/>
			<point x="349.27" y="625"/>
			<point x="344.27" y="615"/>
			<point x="341.27" y="602" type="curve" smooth="yes"/>
			<point x="338.27" y="587"/>
			<point x="347.27" y="578"/>
			<point x="366.27" y="578" type="curve" smooth="yes"/>
			<point x="384.27" y="578"/>
			<point x="402.27" y="585"/>
			<point x="423.27" y="606" type="curve" smooth="yes"/>
			<point x="464.27" y="647"/>
			<point x="494.27" y="707"/>
			<point x="502.27" y="745" type="curve" smooth="yes"/>
			<point x="511.27" y="792"/>
			<point x="495.27" y="809"/>
		</contour>
		<component base="t" xOffset="0.478"/>
	</outline>
	<anchor name="bottom" x="195.748" y="0"/>
	<anchor name="top" x="242.749" y="700"/>
</glyph>
<glyph name="Tbar" format="2">
	<unicode hex="0166"/>
	<advance width="647"/>
	<outline>
		<contour>
			<point x="159.307" y="300" type="curve" smooth="yes"/>
			<point x="212.307" y="300"/>
			<point x="299.307" y="310"/>
			<point x="537.307" y="310" type="curve" smooth="yes"/>
			<point x="569.307" y="310"/>
			<point x="590.307" y="321"/>
			<point x="594.307" y="339" type="curve" smooth="yes"/>
			<point x="596.307" y="352"/>
			<point x="579.307" y="373"/>
			<point x="517.307" y="373" type="curve" smooth="yes"/>
			<point x="392.307" y="373"/>
			<point x="272.307" y="367"/>
			<point x="140.307" y="359" type="curve" smooth="yes"/>
			<point x="114.307" y="357"/>
			<point x="104.307" y="341"/>
			<point x="102.307" y="330" type="curve" smooth="yes"/>
			<point x="99.307" y="315"/>
			<point x="118.307" y="300"/>
		</contour>
		<component base="T" xOffset="-0.486"/>
	</outline>
	<anchor name="bottom" x="268.257" y="0"/>
	<anchor name="top" x="408.257" y="700"/>
</glyph>
<glyph name="uhorn" format="2">
	<unicode hex="01B0"/>
	<advance width="619"/>
	<outline>
		<contour>
			<point x="508.634" y="473" type="curve" smooth="yes"/>
			<point x="485.634" y="473"/>
			<point x="470.634" y="458"/>
			<point x="467.634" y="444" type="curve" smooth="yes"/>
			<point x="464.634" y="428"/>
			<point x="472.634" y="414"/>
			<point x="496.634" y="414" type="curve" smooth="yes"/>
			<point x="595.634" y="414"/>
			<point x="653" y="448"/>
			<point x="667" y="514" type="curve" smooth="yes"/>
			<point x="680" y="581"/>
			<point x="660.634" y="628"/>
			<point x="629.634" y="628" type="curve" smooth="yes"/>
			<point x="611.634" y="628"/>
			<point x="598.634" y="616"/>
			<point x="595.634" y="598" type="curve" smooth="yes"/>
			<point x="590.634" y="573"/>
			<point x="610.634" y="559"/>
			<point x="604.634" y="528" type="curve" smooth="yes"/>
			<point x="597.634" y="494"/>
			<point x="565.634" y="473"/>
		</contour>
		<component base="u"/>
	</outline>
	<anchor name="bottom" x="238.634" y="0"/>
	<anchor name="ogonek" x="320.034" y="12"/>
	<anchor name="top" x="335.635" y="485"/>
</glyph>
<glyph name="jdotless" format="2">
	<unicode hex="0237"/>
	<advance width="241"/>
	<outline>
		<contour>
			<point x="186.712" y="444" type="curve" smooth="yes"/>
			<point x="188.712" y="488"/>
			<point x="174.712" y="496"/>
			<point x="155.712" y="496" type="curve" smooth="yes"/>
			<point x="141.712" y="496"/>
			<point x="122.712" y="485"/>
			<point x="116.712" y="457" type="curve" smooth="yes"/>
			<point x="104.712" y="393"/>
			<point x="125.712" y="260"/>
			<point x="59.712" y="-72" type="curve" smooth="yes"/>
			<point x="42.712" y="-154"/>
			<point x="9.712" y="-195"/>
			<point x="-32.288" y="-195" type="curve" smooth="yes"/>
			<point x="-63.288" y="-195"/>
			<point x="-72.288" y="-172"/>
			<point x="-97.288" y="-172" type="curve" smooth="yes"/>
			<point x="-115.288" y="-172"/>
			<point x="-129.288" y="-182"/>
			<point x="-133.288" y="-200" type="curve" smooth="yes"/>
			<point x="-139.288" y="-231"/>
			<point x="-107.288" y="-260"/>
			<point x="-40.288" y="-260" type="curve" smooth="yes"/>
			<point x="37.712" y="-260"/>
			<point x="98" y="-215"/>
			<point x="124" y="-83" type="curve" smooth="yes"/>
			<point x="161" y="101"/>
			<point x="180.712" y="266"/>
		</contour>
	</outline>
	<anchor name="top" x="159.713" y="485"/>
</glyph>
<glyph name="brevecomb" format="2">
	<unicode hex="0306"/>
	<outline>
		<contour>
			<point x="71" y="636" type="curve" smooth="yes"/>
			<point x="22" y="636"/>
			<point x="-13" y="657"/>
			<point x="-13" y="706" type="curve" smooth="yes"/>
			<point x="-13" y="753"/>
			<point x="-21" y="764"/>
			<point x="-42" y="764" type="curve" smooth="yes"/>
			<point x="-61.262" y="764"/>
			<point x="-78" y="751"/>
			<point x="-80.525" y="711" type="curve" smooth="yes"/>
			<point x="-86" y="638"/>
			<point x="-49.525" y="571"/>
			<point x="64.475" y="571" type="curve" smooth="yes"/>
			<point x="182.475" y="571"/>
			<point x="241" y="631"/>
			<point x="267" y="716" type="curve" smooth="yes"/>
			<point x="276" y="744"/>
			<point x="267.763" y="769"/>
			<point x="242" y="769" type="curve" smooth="yes"/>
			<point x="222" y="769"/>
			<point x="210" y="757"/>
			<point x="189" y="707" type="curve" smooth="yes"/>
			<point x="166" y="655"/>
			<point x="123" y="636"/>
		</contour>
	</outline>
	<anchor name="_top" x="48.476" y="485"/>
	<anchor name="top" x="92.076" y="703"/>
</glyph>
<glyph name="dotaccentcmb" format="2">
	<unicode hex="0307"/>
	<outline>
		<contour>
			<point x="78.364" y="587" type="curve" smooth="yes"/>
			<point x="117.364" y="587"/>
			<point x="138.364" y="614"/>
			<point x="142.364" y="635" type="curve" smooth="yes"/>
			<point x="150.364" y="673"/>
			<point x="130.364" y="711"/>
			<point x="84.364" y="711" type="curve" smooth="yes"/>
			<point x="51.364" y="711"/>
			<point x="21.364" y="687"/>
			<point x="15.364" y="656" type="curve" smooth="yes"/>
			<point x="7.364" y="617"/>
			<point x="35.364" y="587"/>
		</contour>
	</outline>
	<anchor name="_top" x="48.164" y="484"/>
	<anchor name="top" x="81.364" y="650"/>
</glyph>
<glyph name="dieresiscomb" format="2">
	<unicode hex="0308"/>
	<outline>
		<contour>
			<point x="-46.318" y="578" type="curve" smooth="yes"/>
			<point x="-1.318" y="578"/>
			<point x="23" y="607"/>
			<point x="30" y="639" type="curve" smooth="yes"/>
			<point x="37" y="676"/>
			<point x="18.682" y="708"/>
			<point x="-33.318" y="708" type="curve" smooth="yes"/>
			<point x="-65.318" y="708"/>
			<point x="-91" y="680"/>
			<point x="-98" y="649" type="curve" smooth="yes"/>
			<point x="-106" y="608"/>
			<point x="-86.318" y="578"/>
		</contour>
		<contour>
			<point x="186.682" y="588" type="curve" smooth="yes"/>
			<point x="232.682" y="588"/>
			<point x="258" y="625"/>
			<point x="262" y="646" type="curve" smooth="yes"/>
			<point x="269" y="680"/>
			<point x="246.682" y="712"/>
			<point x="201.682" y="712" type="curve" smooth="yes"/>
			<point x="168.682" y="712"/>
			<point x="141" y="685"/>
			<point x="134" y="654" type="curve" smooth="yes"/>
			<point x="127" y="619"/>
			<point x="150.682" y="588"/>
		</contour>
	</outline>
	<anchor name="_top" x="48.683" y="485"/>
	<anchor name="top" x="81.683" y="650"/>
</glyph>
<glyph name="pi" format="2">
	<unicode hex="03C0"/>
	<advance width="700"/>
	<outline>
		<contour>
			<point x="446.633" y="136" type="curve" smooth="yes"/>
			<point x="469.633" y="250"/>
			<point x="502.633" y="335"/>
			<point x="535.633" y="407" type="curve" smooth="yes"/>
			<point x="556.633" y="451"/>
			<point x="558.633" y="475"/>
			<point x="537.633" y="475" type="curve" smooth="yes"/>
			<point x="506.633" y="475"/>
			<point x="488.633" y="448"/>
			<point x="464.633" y="394" type="curve" smooth="yes"/>
			<point x="438.687" y="336.549"/>
			<point x="404.336" y="253.679"/>
			<point x="384" y="152" type="curve" smooth="yes"/>
			<point x="364.728" y="53.375"/>
			<point x="387" y="-13"/>
			<point x="475" y="-13" type="curve" smooth="yes"/>
			<point x="556.854" y="-13"/>
			<point x="608.64" y="14.037"/>
			<point x="614.633" y="43" type="curve" smooth="yes"/>
			<point x="618.397" y="61.819"/>
			<point x="610.289" y="72"/>
			<point x="594" y="72" type="curve" smooth="yes"/>
			<point x="564.426" y="72"/>
			<point x="564.426" y="53"/>
			<point x="480.633" y="53" type="curve" smooth="yes"/>
			<point x="447.633" y="53"/>
			<point x="434.633" y="74"/>
		</contour>
		<contour>
			<point x="175.633" y="-11" type="curve" smooth="yes"/>
			<point x="191.633" y="-11"/>
			<point x="201.633" y="0"/>
			<point x="206.633" y="35" type="curve" smooth="yes"/>
			<point x="210.633" y="64"/>
			<point x="219.633" y="122"/>
			<point x="233.633" y="189" type="curve" smooth="yes"/>
			<point x="248.633" y="266"/>
			<point x="272.633" y="358"/>
			<point x="297.633" y="425" type="curve" smooth="yes"/>
			<point x="310.633" y="458"/>
			<point x="290.633" y="476"/>
			<point x="266.633" y="476" type="curve" smooth="yes"/>
			<point x="245.633" y="476"/>
			<point x="232.633" y="460"/>
			<point x="224.633" y="436" type="curve" smooth="yes"/>
			<point x="198.633" y="353"/>
			<point x="182.633" y="293"/>
			<point x="162.633" y="194" type="curve" smooth="yes"/>
			<point x="154.633" y="157"/>
			<point x="146.633" y="104"/>
			<point x="141.633" y="42" type="curve" smooth="yes"/>
			<point x="140.633" y="7"/>
			<point x="152.633" y="-11"/>
		</contour>
		<contour>
			<point x="140.633" y="412" type="curve" smooth="yes"/>
			<point x="209.633" y="412"/>
			<point x="323.633" y="429"/>
			<point x="631.633" y="429" type="curve" smooth="yes"/>
			<point x="663.633" y="429"/>
			<point x="685" y="440"/>
			<point x="688.633" y="458" type="curve" smooth="yes"/>
			<point x="692" y="476"/>
			<point x="675.633" y="492"/>
			<point x="610.633" y="492" type="curve" smooth="yes"/>
			<point x="451.633" y="492"/>
			<point x="301.633" y="491"/>
			<point x="134.633" y="481" type="curve" smooth="yes"/>
			<point x="109.633" y="479"/>
			<point x="99.633" y="463"/>
			<point x="96.633" y="452" type="curve" smooth="yes"/>
			<point x="92.633" y="432"/>
			<point x="107.633" y="412"/>
		</contour>
	</outline>
</glyph>
<glyph name="Ljecyr" format="2">
	<unicode hex="0409"/>
	<advance width="1019"/>
	<outline>
		<contour>
			<point x="513.009" y="308" type="curve" smooth="yes"/>
			<point x="521.009" y="154"/>
			<point x="524.009" y="59"/>
			<point x="625.009" y="59" type="curve" smooth="yes"/>
			<point x="731.009" y="59"/>
			<point x="868.009" y="194"/>
			<point x="887.009" y="290" type="curve" smooth="yes"/>
			<point x="899.009" y="351"/>
			<point x="875.009" y="378"/>
			<point x="805.009" y="378" type="curve" smooth="yes"/>
			<point x="738.009" y="378"/>
			<point x="661.009" y="362"/>
			<point x="505.009" y="291" type="curve"/>
			<point x="493.009" y="347" type="line"/>
			<point x="616.009" y="413"/>
			<point x="722.009" y="448"/>
			<point x="831.009" y="448" type="curve" smooth="yes"/>
			<point x="923.009" y="448"/>
			<point x="985.009" y="402"/>
			<point x="965.009" y="300" type="curve" smooth="yes"/>
			<point x="939.009" y="169"/>
			<point x="758.009" y="-10"/>
			<point x="610.009" y="-10" type="curve" smooth="yes"/>
			<point x="448.009" y="-10"/>
			<point x="448.009" y="129"/>
			<point x="439.009" y="287" type="curve" smooth="yes"/>
			<point x="435.009" y="361"/>
			<point x="432.009" y="592"/>
			<point x="424.009" y="658" type="curve"/>
			<point x="434.009" y="647" type="line"/>
			<point x="381.009" y="573"/>
			<point x="279.009" y="386"/>
			<point x="207.009" y="264" type="curve" smooth="yes"/>
			<point x="147.009" y="158"/>
			<point x="84.009" y="59"/>
			<point x="52.009" y="19" type="curve" smooth="yes"/>
			<point x="36.009" y="-2"/>
			<point x="22.009" y="-9"/>
			<point x="5.009" y="-9" type="curve" smooth="yes"/>
			<point x="-12.991" y="-9"/>
			<point x="-20.991" y="7"/>
			<point x="-16.991" y="25" type="curve" smooth="yes"/>
			<point x="-12.991" y="46"/>
			<point x="42.009" y="113"/>
			<point x="150.009" y="298" type="curve" smooth="yes"/>
			<point x="236.009" y="437"/>
			<point x="300.009" y="550"/>
			<point x="336.009" y="610" type="curve" smooth="yes"/>
			<point x="375.009" y="675"/>
			<point x="411.009" y="712"/>
			<point x="456.009" y="712" type="curve" smooth="yes"/>
			<point x="484.009" y="712"/>
			<point x="496.009" y="676"/>
			<point x="501.009" y="618" type="curve" smooth="yes"/>
			<point x="503.009" y="575"/>
			<point x="510.009" y="386"/>
		</contour>
	</outline>
	<guideline x="46.792" y="658" angle="0" identifier="b3w6f6co8h"/>
	<guideline x="46.792" y="658" angle="0" identifier="jdn5JLBvkG"/>
	<guideline x="46.792" y="658" angle="0" identifier="mF84iu6Knu"/>
</glyph>
<glyph name="Tshecyr" format="2">
	<unicode hex="040B"/>
	<advance width="753"/>
	<outline>
		<contour>
			<point x="191.708" y="642" type="curve" smooth="yes"/>
			<point x="308.708" y="638"/>
			<point x="376.708" y="637"/>
			<point x="515.708" y="637" type="curve" smooth="yes"/>
			<point x="579.708" y="637"/>
			<point x="647.708" y="651"/>
			<point x="653.708" y="681" type="curve" smooth="yes"/>
			<point x="656.708" y="696"/>
			<point x="648.708" y="707"/>
			<point x="626.708" y="707" type="curve" smooth="yes"/>
			<point x="595.708" y="707"/>
			<point x="584.708" y="700"/>
			<point x="491.708" y="700" type="curve" smooth="yes"/>
			<point x="367.708" y="700"/>
			<point x="302.708" y="706"/>
			<point x="150.708" y="706" type="curve" smooth="yes"/>
			<point x="122.708" y="706"/>
			<point x="109.708" y="697"/>
			<point x="107.708" y="685" type="curve" smooth="yes"/>
			<point x="103.708" y="664"/>
			<point x="114.708" y="644"/>
		</contour>
		<contour>
			<point x="264.708" y="44" type="curve" smooth="yes"/>
			<point x="378.708" y="230"/>
			<point x="454.708" y="311"/>
			<point x="545.708" y="356" type="curve"/>
			<point x="565.708" y="315"/>
			<point x="553.708" y="216"/>
			<point x="556.708" y="136" type="curve" smooth="yes"/>
			<point x="559.708" y="42"/>
			<point x="573.708" y="-6"/>
			<point x="613.708" y="-6" type="curve" smooth="yes"/>
			<point x="629.708" y="-6"/>
			<point x="638.708" y="2"/>
			<point x="641.708" y="14" type="curve" smooth="yes"/>
			<point x="647.708" y="43"/>
			<point x="634.708" y="70"/>
			<point x="629.708" y="110" type="curve" smooth="yes"/>
			<point x="624.708" y="148"/>
			<point x="624.708" y="233"/>
			<point x="628.708" y="304" type="curve" smooth="yes"/>
			<point x="631.708" y="357"/>
			<point x="625.708" y="420"/>
			<point x="565.708" y="420" type="curve" smooth="yes"/>
			<point x="467.708" y="420"/>
			<point x="329.708" y="278"/>
			<point x="225.708" y="91" type="curve"/>
			<point x="246.708" y="88" type="line"/>
			<point x="259.708" y="192"/>
			<point x="276.708" y="336"/>
			<point x="339.708" y="573" type="curve" smooth="yes"/>
			<point x="359.708" y="652"/>
			<point x="357.708" y="677"/>
			<point x="328.708" y="677" type="curve" smooth="yes"/>
			<point x="311.708" y="677"/>
			<point x="298.708" y="659"/>
			<point x="291.708" y="633" type="curve" smooth="yes"/>
			<point x="208.708" y="342"/>
			<point x="187.708" y="173"/>
			<point x="179.708" y="89" type="curve" smooth="yes"/>
			<point x="172.708" y="9"/>
			<point x="188.708" y="-13"/>
			<point x="211.708" y="-13" type="curve" smooth="yes"/>
			<point x="234.708" y="-13"/>
			<point x="242.708" y="8"/>
		</contour>
	</outline>
</glyph>
<glyph name="Ushortcyr" format="2">
	<unicode hex="040E"/>
	<advance width="641"/>
	<outline>
		<contour>
			<point x="453.227" y="825" type="curve" smooth="yes"/>
			<point x="421.227" y="825"/>
			<point x="403.227" y="850"/>
			<point x="388.227" y="875" type="curve" smooth="yes"/>
			<point x="376.227" y="896"/>
			<point x="370.227" y="918"/>
			<point x="344.227" y="918" type="curve" smooth="yes"/>
			<point x="322.227" y="918"/>
			<point x="306.227" y="902"/>
			<point x="303.227" y="883" type="curve" smooth="yes"/>
			<point x="295.227" y="846"/>
			<point x="337.227" y="765"/>
			<point x="436.227" y="765" type="curve" smooth="yes"/>
			<point x="532.227" y="765"/>
			<point x="619.227" y="826"/>
			<point x="626.227" y="858" type="curve" smooth="yes"/>
			<point x="628.227" y="872"/>
			<point x="622.227" y="886"/>
			<point x="604.227" y="886" type="curve" smooth="yes"/>
			<point x="585.227" y="886"/>
			<point x="564.227" y="870"/>
			<point x="540.227" y="855" type="curve" smooth="yes"/>
			<point x="508.227" y="835"/>
			<point x="484.227" y="825"/>
		</contour>
		<component base="Ucyr" xOffset="-0.566"/>
	</outline>
	<anchor name="top" x="419.228" y="700"/>
</glyph>
<glyph name="Dzhecyr" format="2">
	<unicode hex="040F"/>
	<advance width="686"/>
	<outline>
		<contour>
			<point x="74" y="181" type="curve" smooth="yes"/>
			<point x="53" y="75"/>
			<point x="75" y="-9"/>
			<point x="207" y="-9" type="curve" smooth="yes"/>
			<point x="288" y="-9"/>
			<point x="387" y="14"/>
			<point x="438" y="28" type="curve" smooth="yes"/>
			<point x="491" y="45"/>
			<point x="525" y="79"/>
			<point x="546" y="144" type="curve" smooth="yes"/>
			<point x="572" y="224"/>
			<point x="591" y="291"/>
			<point x="609" y="380" type="curve" smooth="yes"/>
			<point x="632" y="492"/>
			<point x="643" y="615"/>
			<point x="642" y="647" type="curve" smooth="yes"/>
			<point x="640" y="680"/>
			<point x="635" y="712"/>
			<point x="602" y="712" type="curve" smooth="yes"/>
			<point x="585" y="712"/>
			<point x="579" y="693"/>
			<point x="575" y="673" type="curve" smooth="yes"/>
			<point x="569" y="646"/>
			<point x="562" y="506"/>
			<point x="536" y="374" type="curve" smooth="yes"/>
			<point x="512" y="256"/>
			<point x="486" y="164"/>
			<point x="452" y="75" type="curve"/>
			<point x="481" y="111" type="line"/>
			<point x="424" y="87"/>
			<point x="319" y="54"/>
			<point x="235" y="54" type="curve" smooth="yes"/>
			<point x="135" y="54"/>
			<point x="127" y="106"/>
			<point x="143" y="183" type="curve" smooth="yes"/>
			<point x="182" y="378"/>
			<point x="232" y="507"/>
			<point x="255" y="623" type="curve" smooth="yes"/>
			<point x="267" y="683"/>
			<point x="252" y="715"/>
			<point x="223" y="715" type="curve" smooth="yes"/>
			<point x="198" y="715"/>
			<point x="193" y="676"/>
			<point x="184" y="630" type="curve" smooth="yes"/>
			<point x="153" y="473"/>
			<point x="110" y="357"/>
		</contour>
		<contour>
			<point x="225" y="-127" type="curve" smooth="yes"/>
			<point x="218" y="-160"/>
			<point x="228" y="-197"/>
			<point x="262" y="-197" type="curve" smooth="yes"/>
			<point x="277" y="-197"/>
			<point x="290" y="-180"/>
			<point x="294" y="-163" type="curve" smooth="yes"/>
			<point x="299" y="-135"/>
			<point x="308" y="-67"/>
			<point x="322" y="2" type="curve" smooth="yes"/>
			<point x="327" y="31"/>
			<point x="319" y="44"/>
			<point x="304" y="44" type="curve" smooth="yes"/>
			<point x="288" y="44"/>
			<point x="265" y="32"/>
			<point x="261" y="13" type="curve" smooth="yes"/>
			<point x="255" y="-17"/>
			<point x="232" y="-92"/>
		</contour>
	</outline>
</glyph>
<glyph name="Decyr" format="2">
	<unicode hex="0414"/>
	<advance width="732"/>
	<outline>
		<contour>
			<point x="232" y="365" type="curve" smooth="yes"/>
			<point x="181" y="276"/>
			<point x="116" y="141"/>
			<point x="60" y="35" type="curve"/>
			<point x="130" y="19" type="line"/>
			<point x="166" y="97"/>
			<point x="239" y="243"/>
			<point x="285" y="325" type="curve" smooth="yes"/>
			<point x="335" y="414"/>
			<point x="404" y="541"/>
			<point x="478" y="633" type="curve"/>
			<point x="464" y="632" type="line"/>
			<point x="497" y="552"/>
			<point x="522" y="258"/>
			<point x="507" y="38" type="curve"/>
			<point x="580" y="52" type="line"/>
			<point x="588" y="266"/>
			<point x="559" y="554"/>
			<point x="543" y="633" type="curve" smooth="yes"/>
			<point x="534" y="677"/>
			<point x="524" y="708"/>
			<point x="496" y="708" type="curve" smooth="yes"/>
			<point x="462" y="708"/>
			<point x="433" y="679"/>
			<point x="398" y="631" type="curve" smooth="yes"/>
			<point x="354" y="570"/>
			<point x="295" y="476"/>
		</contour>
		<contour>
			<point x="599.863" y="5" type="line"/>
			<point x="591.863" y="-36"/>
			<point x="576.863" y="-97"/>
			<point x="569.863" y="-129" type="curve" smooth="yes"/>
			<point x="563.863" y="-162"/>
			<point x="573.863" y="-187"/>
			<point x="596.863" y="-187" type="curve" smooth="yes"/>
			<point x="609.863" y="-187"/>
			<point x="625.863" y="-178"/>
			<point x="637.863" y="-142" type="curve" smooth="yes"/>
			<point x="642.863" y="-123"/>
			<point x="659.863" y="-68"/>
			<point x="670.863" y="-14" type="curve" smooth="yes"/>
			<point x="680.863" y="36"/>
			<point x="658" y="54"/>
			<point x="607.863" y="60" type="curve" smooth="yes"/>
			<point x="581" y="63"/>
			<point x="474" y="63"/>
			<point x="379" y="63" type="curve" smooth="yes"/>
			<point x="184" y="63"/>
			<point x="84" y="61"/>
			<point x="50" y="58" type="curve" smooth="yes"/>
			<point x="1" y="54"/>
			<point x="-29.137" y="38"/>
			<point x="-38.137" y="-3" type="curve" smooth="yes"/>
			<point x="-48.137" y="-57"/>
			<point x="-47" y="-117"/>
			<point x="-46" y="-133" type="curve" smooth="yes"/>
			<point x="-43" y="-162"/>
			<point x="-35" y="-172"/>
			<point x="-21" y="-172" type="curve" smooth="yes"/>
			<point x="1" y="-172"/>
			<point x="16" y="-152"/>
			<point x="22" y="-122" type="curve" smooth="yes"/>
			<point x="29" y="-84"/>
			<point x="26" y="-33"/>
			<point x="38" y="30" type="curve"/>
			<point x="21.863" y="-10" type="line"/>
			<point x="88.863" y="-3"/>
			<point x="212.863" y="0"/>
			<point x="360.863" y="0" type="curve" smooth="yes"/>
			<point x="439.863" y="0"/>
			<point x="572.863" y="-4"/>
			<point x="624.863" y="-10" type="curve"/>
		</contour>
	</outline>
</glyph>
<glyph name="Elcyr" format="2">
	<unicode hex="041B"/>
	<advance width="659"/>
	<outline>
		<contour>
			<point x="-16.991" y="25" type="curve" smooth="yes"/>
			<point x="-20.991" y="7"/>
			<point x="-12.991" y="-9"/>
			<point x="5.009" y="-9" type="curve" smooth="yes"/>
			<point x="22.009" y="-9"/>
			<point x="40" y="-2"/>
			<point x="56" y="19" type="curve" smooth="yes"/>
			<point x="88" y="59"/>
			<point x="151" y="158"/>
			<point x="211" y="264" type="curve" smooth="yes"/>
			<point x="280" y="386"/>
			<point x="378" y="573"/>
			<point x="428" y="647" type="curve"/>
			<point x="409.009" y="647" type="line"/>
			<point x="438.009" y="582"/>
			<point x="492" y="312"/>
			<point x="476" y="64" type="curve" smooth="yes"/>
			<point x="473" y="14"/>
			<point x="476.009" y="-9"/>
			<point x="500.009" y="-9" type="curve" smooth="yes"/>
			<point x="520.009" y="-9"/>
			<point x="541" y="11"/>
			<point x="547" y="39" type="curve" smooth="yes"/>
			<point x="570" y="157"/>
			<point x="520" y="546"/>
			<point x="498" y="621" type="curve" smooth="yes"/>
			<point x="481" y="683"/>
			<point x="464.009" y="712"/>
			<point x="421.009" y="712" type="curve" smooth="yes"/>
			<point x="389.009" y="712"/>
			<point x="365.009" y="684"/>
			<point x="333.009" y="626" type="curve" smooth="yes"/>
			<point x="300.009" y="564"/>
			<point x="235.009" y="444"/>
			<point x="150.009" y="298" type="curve" smooth="yes"/>
			<point x="42.009" y="113"/>
			<point x="-12.991" y="46"/>
		</contour>
	</outline>
</glyph>
<glyph name="Emcyr" format="2">
	<unicode hex="041C"/>
	<advance width="977"/>
	<outline>
		<contour>
			<point x="844" y="-9" type="curve" smooth="yes"/>
			<point x="824" y="-9"/>
			<point x="809" y="8"/>
			<point x="803" y="40" type="curve" smooth="yes"/>
			<point x="789" y="116"/>
			<point x="780" y="406"/>
			<point x="789" y="647" type="curve"/>
			<point x="825" y="647" type="line"/>
			<point x="808" y="622"/>
			<point x="542" y="177"/>
			<point x="500" y="114" type="curve" smooth="yes"/>
			<point x="477" y="81"/>
			<point x="457" y="60"/>
			<point x="429" y="60" type="curve" smooth="yes"/>
			<point x="410" y="60"/>
			<point x="400" y="77"/>
			<point x="393" y="121" type="curve" smooth="yes"/>
			<point x="375" y="232"/>
			<point x="369" y="471"/>
			<point x="373" y="647" type="curve"/>
			<point x="393" y="640" type="line"/>
			<point x="327" y="569"/>
			<point x="236" y="423"/>
			<point x="188" y="326" type="curve" smooth="yes"/>
			<point x="127" y="198"/>
			<point x="94" y="75"/>
			<point x="84" y="38" type="curve" smooth="yes"/>
			<point x="76" y="11"/>
			<point x="61" y="-7"/>
			<point x="41" y="-7" type="curve" smooth="yes"/>
			<point x="24" y="-7"/>
			<point x="10" y="15"/>
			<point x="16" y="44" type="curve" smooth="yes"/>
			<point x="23" y="82"/>
			<point x="57" y="210"/>
			<point x="124" y="346" type="curve" smooth="yes"/>
			<point x="199" y="500"/>
			<point x="344" y="708"/>
			<point x="395" y="708" type="curve" smooth="yes"/>
			<point x="438" y="708"/>
			<point x="445" y="658"/>
			<point x="444" y="613" type="curve" smooth="yes"/>
			<point x="439" y="462"/>
			<point x="446" y="243"/>
			<point x="465" y="108" type="curve"/>
			<point x="438" y="129" type="line"/>
			<point x="540" y="289"/>
			<point x="723" y="614"/>
			<point x="760" y="664" type="curve" smooth="yes"/>
			<point x="778" y="688"/>
			<point x="796" y="703"/>
			<point x="814" y="703" type="curve" smooth="yes"/>
			<point x="841" y="703"/>
			<point x="858" y="675"/>
			<point x="861" y="625" type="curve" smooth="yes"/>
			<point x="863" y="600"/>
			<point x="858" y="444"/>
			<point x="859" y="304" type="curve" smooth="yes"/>
			<point x="860" y="100"/>
			<point x="879" y="37"/>
			<point x="876" y="20" type="curve" smooth="yes"/>
			<point x="872" y="2"/>
			<point x="859" y="-9"/>
		</contour>
	</outline>
</glyph>
<glyph name="Pecyr" format="2">
	<unicode hex="041F"/>
	<advance width="663"/>
	<outline>
		<contour>
			<point x="70.8483230067" y="86" type="curve" smooth="yes"/>
			<point x="58.8483230067" y="27"/>
			<point x="69.8483230067" y="-11"/>
			<point x="95.8483230067" y="-11" type="curve" smooth="yes"/>
			<point x="110.8483230067" y="-11"/>
			<point x="124.8483230067" y="1"/>
			<point x="131.8483230067" y="37" type="curve" smooth="yes"/>
			<point x="140.8483230067" y="78"/>
			<point x="187.8483230067" y="285"/>
			<point x="207.8483230067" y="385" type="curve" smooth="yes"/>
			<point x="223.8483230067" y="464"/>
			<point x="242.8483230067" y="585"/>
			<point x="243.8483230067" y="662" type="curve"/>
			<point x="171.8483230067" y="648" type="line"/>
			<point x="176.8483230067" y="566"/>
			<point x="149.8483230067" y="436"/>
			<point x="134.8483230067" y="359" type="curve" smooth="yes"/>
			<point x="113.8483230067" y="257"/>
			<point x="86.8483230067" y="164"/>
		</contour>
		<contour>
			<point x="90.8483230067" y="664" type="curve" smooth="yes"/>
			<point x="86.8483230067" y="645"/>
			<point x="120.8483230067" y="640"/>
			<point x="143.8483230067" y="640" type="curve" smooth="yes"/>
			<point x="170.8483230067" y="640"/>
			<point x="197.8483230067" y="644"/>
			<point x="238.8483230067" y="644" type="curve" smooth="yes"/>
			<point x="400.8483230067" y="644"/>
			<point x="555.8483230067" y="634"/>
			<point x="605.8483230067" y="623" type="curve"/>
			<point x="589.8483230067" y="651" type="line"/>
			<point x="567.8483230067" y="539"/>
			<point x="515.8483230067" y="335"/>
			<point x="499.8483230067" y="255" type="curve" smooth="yes"/>
			<point x="468.8483230067" y="100"/>
			<point x="463.8483230067" y="-12"/>
			<point x="498.8483230067" y="-12" type="curve" smooth="yes"/>
			<point x="520.8483230067" y="-12"/>
			<point x="532.8483230067" y="6"/>
			<point x="538.8483230067" y="34" type="curve" smooth="yes"/>
			<point x="543.8483230067" y="59"/>
			<point x="546.8483230067" y="145"/>
			<point x="570.8483230067" y="264" type="curve" smooth="yes"/>
			<point x="586.8483230067" y="344"/>
			<point x="629.8483230067" y="507"/>
			<point x="652.8483230067" y="619" type="curve" smooth="yes"/>
			<point x="663.8483230067" y="675"/>
			<point x="645.8483230067" y="685"/>
			<point x="581.8483230067" y="692" type="curve" smooth="yes"/>
			<point x="536.8483230067" y="697"/>
			<point x="357.8483230067" y="707"/>
			<point x="210.8483230067" y="707" type="curve" smooth="yes"/>
			<point x="139.8483230067" y="707"/>
			<point x="95.8483230067" y="691"/>
		</contour>
	</outline>
</glyph>
<glyph name="Ucyr" format="2">
	<unicode hex="0423"/>
	<advance width="641"/>
	<outline>
		<contour>
			<point x="236" y="585" type="curve" smooth="yes"/>
			<point x="245" y="632"/>
			<point x="259" y="668"/>
			<point x="263" y="691" type="curve" smooth="yes"/>
			<point x="266" y="703"/>
			<point x="265.227" y="715"/>
			<point x="249.227" y="715" type="curve" smooth="yes"/>
			<point x="220.227" y="715"/>
			<point x="179" y="643"/>
			<point x="162" y="559" type="curve" smooth="yes"/>
			<point x="134" y="418"/>
			<point x="153.227" y="282"/>
			<point x="285.227" y="282" type="curve" smooth="yes"/>
			<point x="384.227" y="282"/>
			<point x="459.227" y="338"/>
			<point x="534.227" y="489" type="curve"/>
			<point x="550" y="575" type="line"/>
			<point x="528" y="512"/>
			<point x="502.227" y="362"/>
			<point x="447.227" y="237" type="curve" smooth="yes"/>
			<point x="394.227" y="117"/>
			<point x="333" y="55"/>
			<point x="244" y="55" type="curve" smooth="yes"/>
			<point x="112" y="55"/>
			<point x="116" y="181"/>
			<point x="85" y="181" type="curve" smooth="yes"/>
			<point x="71" y="181"/>
			<point x="61" y="160"/>
			<point x="61" y="134" type="curve" smooth="yes"/>
			<point x="61" y="81"/>
			<point x="114" y="-7"/>
			<point x="231" y="-7" type="curve" smooth="yes"/>
			<point x="378" y="-7"/>
			<point x="457.227" y="100"/>
			<point x="515.227" y="238" type="curve" smooth="yes"/>
			<point x="563.227" y="355"/>
			<point x="606.227" y="547"/>
			<point x="622.227" y="626" type="curve" smooth="yes"/>
			<point x="633.227" y="680"/>
			<point x="636.227" y="711"/>
			<point x="611.227" y="711" type="curve" smooth="yes"/>
			<point x="579.227" y="711"/>
			<point x="547" y="624"/>
			<point x="507.227" y="547" type="curve" smooth="yes"/>
			<point x="449" y="434"/>
			<point x="379" y="343"/>
			<point x="306.227" y="343" type="curve" smooth="yes"/>
			<point x="216" y="343"/>
			<point x="208" y="443"/>
		</contour>
	</outline>
	<anchor name="top" x="419.228" y="700"/>
</glyph>
<glyph name="Tsecyr" format="2">
	<unicode hex="0426"/>
	<advance width="705"/>
	<outline>
		<contour>
			<point x="650" y="641" type="curve" smooth="yes"/>
			<point x="652" y="674"/>
			<point x="645" y="712"/>
			<point x="612" y="712" type="curve" smooth="yes"/>
			<point x="595" y="712"/>
			<point x="589" y="691"/>
			<point x="583" y="658" type="curve" smooth="yes"/>
			<point x="576" y="623"/>
			<point x="569" y="543"/>
			<point x="546" y="431" type="curve" smooth="yes"/>
			<point x="521" y="304"/>
			<point x="478" y="151"/>
			<point x="441" y="50" type="curve"/>
			<point x="510" y="34" type="line"/>
			<point x="553" y="160"/>
			<point x="598" y="332"/>
			<point x="623" y="453" type="curve" smooth="yes"/>
			<point x="638" y="532"/>
			<point x="648" y="607"/>
		</contour>
		<contour>
			<point x="258.969" y="623" type="curve" smooth="yes"/>
			<point x="270.969" y="683"/>
			<point x="255.969" y="715"/>
			<point x="226.969" y="715" type="curve" smooth="yes"/>
			<point x="201.969" y="715"/>
			<point x="196.969" y="676"/>
			<point x="187.969" y="630" type="curve" smooth="yes"/>
			<point x="156.969" y="473"/>
			<point x="112.969" y="357"/>
			<point x="77.969" y="181" type="curve" smooth="yes"/>
			<point x="51.7738217822" y="65"/>
			<point x="81" y="-9"/>
			<point x="193" y="-9" type="curve" smooth="yes"/>
			<point x="301.7487072011" y="-9"/>
			<point x="434" y="0"/>
			<point x="488" y="0" type="curve" smooth="yes"/>
			<point x="519" y="0"/>
			<point x="544.5457037037" y="-1.4285714286"/>
			<point x="566.969" y="-5" type="curve"/>
			<point x="552.969" y="17" type="line"/>
			<point x="552.969" y="4"/>
			<point x="548" y="-21"/>
			<point x="543.969" y="-41" type="curve" smooth="yes"/>
			<point x="535" y="-81"/>
			<point x="514.969" y="-139"/>
			<point x="511.969" y="-157" type="curve" smooth="yes"/>
			<point x="508.969" y="-172"/>
			<point x="512" y="-187"/>
			<point x="530.969" y="-187" type="curve" smooth="yes"/>
			<point x="556" y="-187"/>
			<point x="573.969" y="-167"/>
			<point x="587.969" y="-130" type="curve" smooth="yes"/>
			<point x="601.969" y="-95"/>
			<point x="612.969" y="-50"/>
			<point x="621.969" y="-5" type="curve" smooth="yes"/>
			<point x="628.969" y="29"/>
			<point x="620.969" y="66"/>
			<point x="559.969" y="66" type="curve" smooth="yes"/>
			<point x="451.969" y="66"/>
			<point x="334" y="52"/>
			<point x="206.969" y="52" type="curve" smooth="yes"/>
			<point x="131" y="52"/>
			<point x="127.969" y="92"/>
			<point x="146.969" y="183" type="curve" smooth="yes"/>
			<point x="185.969" y="378"/>
			<point x="234.969" y="507"/>
		</contour>
	</outline>
</glyph>
<glyph name="Shacyr" format="2">
	<unicode hex="0428"/>
	<advance width="951"/>
	<outline>
		<contour>
			<point x="387" y="-4" type="curve" smooth="yes"/>
			<point x="101" y="-4"/>
			<point x="43" y="61"/>
			<point x="74" y="215" type="curve" smooth="yes"/>
			<point x="99" y="343"/>
			<point x="163.867" y="596"/>
			<point x="180.867" y="653" type="curve" smooth="yes"/>
			<point x="190.867" y="690"/>
			<point x="199.867" y="708"/>
			<point x="216.867" y="708" type="curve" smooth="yes"/>
			<point x="244.867" y="708"/>
			<point x="253.867" y="678"/>
			<point x="247.867" y="648" type="curve" smooth="yes"/>
			<point x="239.867" y="612"/>
			<point x="186.867" y="430"/>
			<point x="152.867" y="258" type="curve" smooth="yes"/>
			<point x="129.867" y="145"/>
			<point x="135.867" y="106"/>
			<point x="170.867" y="88" type="curve" smooth="yes"/>
			<point x="209.867" y="67"/>
			<point x="286.867" y="58"/>
			<point x="394.867" y="58" type="curve" smooth="yes"/>
			<point x="617.867" y="58"/>
			<point x="714" y="70"/>
			<point x="748" y="125" type="curve" smooth="yes"/>
			<point x="764" y="151"/>
			<point x="789.867" y="232"/>
			<point x="806.867" y="315" type="curve" smooth="yes"/>
			<point x="838.867" y="477"/>
			<point x="843.867" y="637"/>
			<point x="849.867" y="667" type="curve" smooth="yes"/>
			<point x="853.867" y="685"/>
			<point x="869.867" y="706"/>
			<point x="887.867" y="706" type="curve" smooth="yes"/>
			<point x="905.867" y="706"/>
			<point x="923.867" y="683"/>
			<point x="921.867" y="655" type="curve" smooth="yes"/>
			<point x="918.867" y="609"/>
			<point x="900" y="426"/>
			<point x="877.867" y="316" type="curve" smooth="yes"/>
			<point x="859" y="223"/>
			<point x="840" y="148"/>
			<point x="820" y="106" type="curve" smooth="yes"/>
			<point x="771" y="3"/>
			<point x="616" y="-4"/>
		</contour>
		<contour>
			<point x="393" y="34" type="line"/>
			<point x="396" y="106"/>
			<point x="408" y="212"/>
			<point x="435" y="329" type="curve" smooth="yes"/>
			<point x="461" y="443"/>
			<point x="500" y="589"/>
			<point x="510" y="639" type="curve" smooth="yes"/>
			<point x="517" y="673"/>
			<point x="527" y="697"/>
			<point x="548" y="697" type="curve" smooth="yes"/>
			<point x="566" y="697"/>
			<point x="582" y="666"/>
			<point x="575" y="632" type="curve" smooth="yes"/>
			<point x="561" y="559"/>
			<point x="529" y="444"/>
			<point x="502" y="327" type="curve" smooth="yes"/>
			<point x="477" y="214"/>
			<point x="464" y="114"/>
			<point x="460" y="44" type="curve"/>
		</contour>
	</outline>
</glyph>
<glyph name="Hardcyr" format="2">
	<unicode hex="042A"/>
	<advance width="698"/>
	<outline>
		<contour>
			<point x="284" y="706" type="curve" smooth="yes"/>
			<point x="213" y="706"/>
			<point x="91" y="688"/>
			<point x="86" y="664" type="curve" smooth="yes"/>
			<point x="82" y="643"/>
			<point x="93" y="627"/>
			<point x="122" y="627" type="curve" smooth="yes"/>
			<point x="165" y="627"/>
			<point x="241" y="651"/>
			<point x="307" y="640" type="curve"/>
			<point x="291" y="651" type="line"/>
			<point x="284" y="588"/>
			<point x="178" y="298"/>
			<point x="156" y="189" type="curve" smooth="yes"/>
			<point x="136" y="90"/>
			<point x="157" y="-9"/>
			<point x="283" y="-9" type="curve" smooth="yes"/>
			<point x="492" y="-9"/>
			<point x="657" y="196"/>
			<point x="657" y="320" type="curve" smooth="yes"/>
			<point x="657" y="377"/>
			<point x="597" y="402"/>
			<point x="487" y="402" type="curve" smooth="yes"/>
			<point x="389" y="402"/>
			<point x="293" y="382"/>
			<point x="227" y="363" type="curve"/>
			<point x="235" y="305" type="line"/>
			<point x="326" y="329"/>
			<point x="517" y="350"/>
			<point x="595" y="312" type="curve"/>
			<point x="582" y="364" type="line"/>
			<point x="582" y="357"/>
			<point x="582" y="352"/>
			<point x="582" y="329" type="curve" smooth="yes"/>
			<point x="582" y="197"/>
			<point x="438" y="60"/>
			<point x="292" y="60" type="curve" smooth="yes"/>
			<point x="229" y="60"/>
			<point x="210" y="106"/>
			<point x="225" y="181" type="curve" smooth="yes"/>
			<point x="247" y="289"/>
			<point x="350" y="585"/>
			<point x="359" y="632" type="curve" smooth="yes"/>
			<point x="371" y="691"/>
			<point x="348" y="706"/>
		</contour>
	</outline>
</glyph>
<glyph name="Ylongcyr" format="2">
	<unicode hex="042B"/>
	<advance width="827"/>
	<outline>
		<contour>
			<point x="814" y="621" type="curve" smooth="yes"/>
			<point x="823" y="667"/>
			<point x="822" y="709"/>
			<point x="797" y="709" type="curve" smooth="yes"/>
			<point x="776" y="709"/>
			<point x="765" y="689"/>
			<point x="749" y="635" type="curve" smooth="yes"/>
			<point x="728" y="567"/>
			<point x="702" y="446"/>
			<point x="684" y="357" type="curve" smooth="yes"/>
			<point x="662" y="243"/>
			<point x="648" y="144"/>
			<point x="644" y="84" type="curve" smooth="yes"/>
			<point x="640" y="32"/>
			<point x="641" y="-11"/>
			<point x="677" y="-11" type="curve" smooth="yes"/>
			<point x="689" y="-11"/>
			<point x="701" y="0"/>
			<point x="705" y="20" type="curve" smooth="yes"/>
			<point x="714" y="63"/>
			<point x="721" y="201"/>
			<point x="752" y="357" type="curve" smooth="yes"/>
			<point x="776" y="476"/>
			<point x="807" y="586"/>
		</contour>
		<contour>
			<point x="254" y="598" type="curve" smooth="yes"/>
			<point x="266" y="659"/>
			<point x="259" y="709"/>
			<point x="222" y="709" type="curve" smooth="yes"/>
			<point x="205" y="709"/>
			<point x="196" y="692"/>
			<point x="191" y="667" type="curve" smooth="yes"/>
			<point x="185" y="635"/>
			<point x="185" y="603"/>
			<point x="176" y="559" type="curve" smooth="yes"/>
			<point x="158" y="472"/>
			<point x="105" y="342"/>
			<point x="87" y="250" type="curve" smooth="yes"/>
			<point x="62" y="124"/>
			<point x="63" y="-10"/>
			<point x="215" y="-11" type="curve" smooth="yes"/>
			<point x="400.8823529412" y="-12.1764705882"/>
			<point x="574" y="215"/>
			<point x="574" y="343" type="curve" smooth="yes"/>
			<point x="574" y="397"/>
			<point x="523" y="435"/>
			<point x="428" y="435" type="curve" smooth="yes"/>
			<point x="324" y="435"/>
			<point x="231" y="404"/>
			<point x="131" y="350" type="curve"/>
			<point x="144" y="300" type="line"/>
			<point x="226" y="340"/>
			<point x="322" y="369"/>
			<point x="403" y="369" type="curve" smooth="yes"/>
			<point x="467" y="369"/>
			<point x="497" y="355"/>
			<point x="525" y="336" type="curve"/>
			<point x="505" y="378" type="line"/>
			<point x="506" y="356"/>
			<point x="508" y="348"/>
			<point x="502" y="324" type="curve" smooth="yes"/>
			<point x="463" y="170"/>
			<point x="333" y="58"/>
			<point x="225" y="58" type="curve" smooth="yes"/>
			<point x="140" y="58"/>
			<point x="129" y="113"/>
			<point x="156" y="247" type="curve" smooth="yes"/>
			<point x="179" y="362"/>
			<point x="236" y="509"/>
		</contour>
	</outline>
	<anchor name="top" x="513" y="700"/>
</glyph>
<glyph name="becyr" format="2">
	<unicode hex="0431"/>
	<advance width="599"/>
	<outline>
		<contour>
			<point x="252" y="-10" type="curve" smooth="yes"/>
			<point x="81" y="-10"/>
			<point x="52" y="149"/>
			<point x="93" y="356" type="curve" smooth="yes"/>
			<point x="125" y="515"/>
			<point x="222" y="651"/>
			<point x="323" y="687" type="curve" smooth="yes"/>
			<point x="368" y="703"/>
			<point x="439" y="710"/>
			<point x="497" y="723" type="curve" smooth="yes"/>
			<point x="553" y="736"/>
			<point x="596" y="756"/>
			<point x="615" y="756" type="curve" smooth="yes"/>
			<point x="634" y="756"/>
			<point x="652" y="738"/>
			<point x="648" y="720" type="curve" smooth="yes"/>
			<point x="644" y="700"/>
			<point x="620" y="687"/>
			<point x="588" y="678" type="curve" smooth="yes"/>
			<point x="483" y="649"/>
			<point x="407" y="655"/>
			<point x="340" y="628" type="curve" smooth="yes"/>
			<point x="265" y="598"/>
			<point x="193" y="502"/>
			<point x="167" y="372" type="curve" smooth="yes"/>
			<point x="120" y="138"/>
			<point x="155" y="51"/>
			<point x="260" y="51" type="curve" smooth="yes"/>
			<point x="363" y="51"/>
			<point x="473" y="165"/>
			<point x="492" y="260" type="curve" smooth="yes"/>
			<point x="509" y="343"/>
			<point x="480" y="393"/>
			<point x="392" y="393" type="curve" smooth="yes"/>
			<point x="305" y="393"/>
			<point x="215" y="348"/>
			<point x="118" y="256" type="curve"/>
			<point x="91" y="284" type="line"/>
			<point x="178" y="401"/>
			<point x="297" y="455"/>
			<point x="409" y="455" type="curve" smooth="yes"/>
			<point x="529" y="455"/>
			<point x="590" y="387"/>
			<point x="564" y="270" type="curve" smooth="yes"/>
			<point x="532" y="126"/>
			<point x="394" y="-10"/>
		</contour>
	</outline>
</glyph>
<glyph name="gecyr" format="2">
	<unicode hex="0433"/>
	<advance width="422"/>
	<outline>
		<contour>
			<point x="41" y="72" type="curve" smooth="yes"/>
			<point x="37" y="19"/>
			<point x="49" y="-10"/>
			<point x="75" y="-10" type="curve" smooth="yes"/>
			<point x="86" y="-10"/>
			<point x="98" y="-2"/>
			<point x="101" y="14" type="curve" smooth="yes"/>
			<point x="103" y="27"/>
			<point x="110" y="121"/>
			<point x="131" y="226" type="curve" smooth="yes"/>
			<point x="151" y="326"/>
			<point x="167" y="387"/>
			<point x="184" y="440" type="curve"/>
			<point x="148" y="417" type="line"/>
			<point x="193" y="427"/>
			<point x="223" y="432"/>
			<point x="276" y="432" type="curve" smooth="yes"/>
			<point x="342" y="432"/>
			<point x="357" y="426"/>
			<point x="399" y="426" type="curve" smooth="yes"/>
			<point x="428" y="426"/>
			<point x="457" y="434"/>
			<point x="461" y="456" type="curve" smooth="yes"/>
			<point x="464" y="467"/>
			<point x="457" y="477"/>
			<point x="444" y="481" type="curve" smooth="yes"/>
			<point x="418" y="489"/>
			<point x="356" y="494"/>
			<point x="307" y="494" type="curve" smooth="yes"/>
			<point x="262" y="494"/>
			<point x="214" y="491"/>
			<point x="172" y="484" type="curve" smooth="yes"/>
			<point x="132" y="477"/>
			<point x="113" y="457"/>
			<point x="101" y="392" type="curve" smooth="yes"/>
			<point x="88" y="330"/>
			<point x="46" y="124"/>
		</contour>
	</outline>
	<anchor name="top" x="293" y="485"/>
</glyph>
<glyph name="zhecyr" format="2">
	<unicode hex="0436"/>
	<advance width="706"/>
	<outline>
		<contour>
			<point x="451" y="463" type="curve" smooth="yes"/>
			<point x="455" y="487"/>
			<point x="449" y="500"/>
			<point x="433" y="500" type="curve" smooth="yes"/>
			<point x="408" y="500"/>
			<point x="386" y="463"/>
			<point x="378" y="441" type="curve" smooth="yes"/>
			<point x="358" y="381"/>
			<point x="342" y="320"/>
			<point x="331" y="267" type="curve" smooth="yes"/>
			<point x="315" y="184"/>
			<point x="298" y="130"/>
			<point x="287" y="74" type="curve" smooth="yes"/>
			<point x="280" y="40"/>
			<point x="281" y="-12"/>
			<point x="312" y="-12" type="curve" smooth="yes"/>
			<point x="334" y="-12"/>
			<point x="344" y="11"/>
			<point x="349" y="35" type="curve" smooth="yes"/>
			<point x="357" y="74"/>
			<point x="379" y="209"/>
			<point x="385" y="239" type="curve" smooth="yes"/>
			<point x="409" y="358"/>
			<point x="445" y="435"/>
		</contour>
		<contour>
			<point x="239" y="349" type="curve" smooth="yes"/>
			<point x="174" y="418"/>
			<point x="157" y="499"/>
			<point x="128" y="499" type="curve" smooth="yes"/>
			<point x="111" y="499"/>
			<point x="103" y="487"/>
			<point x="103" y="472" type="curve" smooth="yes"/>
			<point x="103" y="443"/>
			<point x="145" y="361"/>
			<point x="190" y="316" type="curve" smooth="yes"/>
			<point x="246" y="260"/>
			<point x="287" y="236"/>
			<point x="299" y="232" type="curve"/>
			<point x="286" y="260" type="line"/>
			<point x="270" y="252"/>
			<point x="232" y="236"/>
			<point x="175" y="198" type="curve" smooth="yes"/>
			<point x="78" y="133"/>
			<point x="-20" y="49"/>
			<point x="-20" y="18" type="curve" smooth="yes"/>
			<point x="-20" y="5"/>
			<point x="-12" y="-7"/>
			<point x="1" y="-7" type="curve" smooth="yes"/>
			<point x="25" y="-7"/>
			<point x="92" y="68"/>
			<point x="201" y="146" type="curve" smooth="yes"/>
			<point x="252" y="182"/>
			<point x="298" y="206"/>
			<point x="342" y="227" type="curve"/>
			<point x="352" y="260" type="line"/>
			<point x="326" y="273"/>
			<point x="289" y="296"/>
		</contour>
		<contour>
			<point x="597" y="344" type="curve" smooth="yes"/>
			<point x="659" y="390"/>
			<point x="726" y="451"/>
			<point x="726" y="476" type="curve" smooth="yes"/>
			<point x="726" y="488"/>
			<point x="717" y="499"/>
			<point x="702" y="499" type="curve" smooth="yes"/>
			<point x="683" y="499"/>
			<point x="644" y="457"/>
			<point x="593" y="416" type="curve" smooth="yes"/>
			<point x="537" y="371"/>
			<point x="440" y="298"/>
			<point x="373" y="267" type="curve" smooth="yes"/>
			<point x="370" y="265"/>
			<point x="367" y="261"/>
			<point x="367" y="258" type="curve" smooth="yes"/>
			<point x="365" y="251"/>
			<point x="368" y="245"/>
			<point x="370" y="241" type="curve" smooth="yes"/>
			<point x="396" y="198"/>
			<point x="432" y="145"/>
			<point x="483" y="92" type="curve" smooth="yes"/>
			<point x="538" y="36"/>
			<point x="587" y="-7"/>
			<point x="619" y="-7" type="curve" smooth="yes"/>
			<point x="637" y="-7"/>
			<point x="650" y="7"/>
			<point x="650" y="21" type="curve" smooth="yes"/>
			<point x="650" y="35"/>
			<point x="600" y="65"/>
			<point x="537" y="125" type="curve" smooth="yes"/>
			<point x="484" y="176"/>
			<point x="442" y="230"/>
			<point x="442" y="237" type="curve" smooth="yes"/>
			<point x="442" y="243"/>
			<point x="543" y="304"/>
		</contour>
	</outline>
	<anchor name="top" x="424" y="485"/>
</glyph>
<glyph name="zecyr" format="2">
	<unicode hex="0437"/>
	<advance width="487"/>
	<outline>
		<contour>
			<point x="93" y="403" type="curve" smooth="yes"/>
			<point x="93" y="394"/>
			<point x="99" y="386"/>
			<point x="108" y="386" type="curve" smooth="yes"/>
			<point x="126" y="386"/>
			<point x="168" y="437"/>
			<point x="269" y="437" type="curve" smooth="yes"/>
			<point x="333" y="437"/>
			<point x="372" y="414"/>
			<point x="372" y="374" type="curve" smooth="yes"/>
			<point x="372" y="333"/>
			<point x="314" y="300"/>
			<point x="233" y="285" type="curve" smooth="yes"/>
			<point x="173" y="274"/>
			<point x="152" y="273"/>
			<point x="152" y="253" type="curve" smooth="yes"/>
			<point x="152" y="239.8235294118"/>
			<point x="157" y="226.6470588235"/>
			<point x="206" y="221" type="curve" smooth="yes"/>
			<point x="305" y="205.5890410959"/>
			<point x="348" y="183"/>
			<point x="348" y="146" type="curve" smooth="yes"/>
			<point x="348" y="99"/>
			<point x="293.1111111111" y="53"/>
			<point x="192" y="53" type="curve" smooth="yes"/>
			<point x="71.1666666667" y="53"/>
			<point x="70.125" y="133"/>
			<point x="42" y="133" type="curve" smooth="yes"/>
			<point x="27.1034482759" y="133"/>
			<point x="15" y="114.5"/>
			<point x="15" y="96" type="curve" smooth="yes"/>
			<point x="15" y="41.3737373737"/>
			<point x="80.5421686747" y="-8"/>
			<point x="185" y="-8" type="curve" smooth="yes"/>
			<point x="305.8340425532" y="-8"/>
			<point x="414" y="62"/>
			<point x="414" y="152" type="curve" smooth="yes"/>
			<point x="414" y="225.4653465347"/>
			<point x="356.2" y="258"/>
			<point x="229" y="258" type="curve"/>
			<point x="230" y="245" type="line"/>
			<point x="375" y="252"/>
			<point x="440" y="322"/>
			<point x="440" y="385" type="curve" smooth="yes"/>
			<point x="440" y="454"/>
			<point x="387" y="498"/>
			<point x="278" y="498" type="curve" smooth="yes"/>
			<point x="160" y="498"/>
			<point x="93" y="439"/>
		</contour>
	</outline>
	<anchor name="top" x="275" y="485"/>
</glyph>
<glyph name="ishortcyr" format="2">
	<unicode hex="0439"/>
	<advance width="644"/>
	<outline>
		<contour>
			<point x="402" y="653" type="curve" smooth="yes"/>
			<point x="363" y="653"/>
			<point x="345" y="673"/>
			<point x="333" y="699" type="curve" smooth="yes"/>
			<point x="320" y="727"/>
			<point x="315" y="755"/>
			<point x="297" y="755" type="curve" smooth="yes"/>
			<point x="275" y="755"/>
			<point x="262" y="737"/>
			<point x="262" y="705" type="curve" smooth="yes"/>
			<point x="262" y="658"/>
			<point x="304" y="592"/>
			<point x="387" y="592" type="curve" smooth="yes"/>
			<point x="475" y="592"/>
			<point x="551" y="660"/>
			<point x="564" y="706" type="curve" smooth="yes"/>
			<point x="568" y="719"/>
			<point x="560" y="730"/>
			<point x="549" y="730" type="curve" smooth="yes"/>
			<point x="528" y="730"/>
			<point x="507" y="710"/>
			<point x="478" y="686" type="curve" smooth="yes"/>
			<point x="457" y="669"/>
			<point x="429" y="653"/>
		</contour>
		<component base="icyr"/>
	</outline>
	<anchor name="top" x="345" y="485"/>
	<guideline x="229.792" y="515" angle="90" identifier="p0aJ1s3JmT"/>
	<guideline x="245.792" y="464" angle="90" identifier="XJW6VjdRJe"/>
</glyph>
<glyph name="elcyr" format="2">
	<unicode hex="043B"/>
	<advance width="539"/>
	<outline>
		<contour>
			<point x="11" y="-12" type="curve" smooth="yes"/>
			<point x="-11" y="-12"/>
			<point x="-16" y="13"/>
			<point x="-10" y="43" type="curve" smooth="yes"/>
			<point x="-3" y="74"/>
			<point x="40" y="151"/>
			<point x="93" y="230" type="curve" smooth="yes"/>
			<point x="151" y="318"/>
			<point x="219" y="409"/>
			<point x="253" y="443" type="curve" smooth="yes"/>
			<point x="291" y="481"/>
			<point x="325" y="498"/>
			<point x="357" y="498" type="curve" smooth="yes"/>
			<point x="383" y="498"/>
			<point x="391" y="473"/>
			<point x="395" y="445" type="curve" smooth="yes"/>
			<point x="403" y="390"/>
			<point x="409" y="306"/>
			<point x="421" y="239" type="curve" smooth="yes"/>
			<point x="435" y="155"/>
			<point x="451" y="103"/>
			<point x="466" y="73" type="curve" smooth="yes"/>
			<point x="475" y="55"/>
			<point x="481" y="43"/>
			<point x="481" y="33" type="curve" smooth="yes"/>
			<point x="481" y="10"/>
			<point x="463" y="-9"/>
			<point x="444" y="-9" type="curve" smooth="yes"/>
			<point x="408" y="-9"/>
			<point x="386" y="62"/>
			<point x="368" y="143" type="curve" smooth="yes"/>
			<point x="355" y="203"/>
			<point x="327" y="376"/>
			<point x="323" y="452" type="curve"/>
			<point x="342" y="440" type="line"/>
			<point x="260" y="362"/>
			<point x="158" y="219"/>
			<point x="68" y="47" type="curve" smooth="yes"/>
			<point x="52" y="17"/>
			<point x="35" y="-12"/>
		</contour>
	</outline>
</glyph>
<glyph name="encyr" format="2">
	<unicode hex="043D"/>
	<advance width="569"/>
	<outline>
		<contour>
			<point x="83.1864059899" y="-11" type="curve" smooth="yes"/>
			<point x="41.1864059899" y="-11"/>
			<point x="30" y="55"/>
			<point x="50" y="157" type="curve" smooth="yes" identifier="a6HBRFdYJG"/>
			<point x="64" y="223"/>
			<point x="78" y="254"/>
			<point x="104" y="266" type="curve" smooth="yes"/>
			<point x="117" y="272"/>
			<point x="150" y="272"/>
			<point x="182" y="272" type="curve" smooth="yes"/>
			<point x="279" y="272"/>
			<point x="370.1864059899" y="280"/>
			<point x="462.1864059899" y="309" type="curve"/>
			<point x="478.1864059899" y="257" type="line"/>
			<point x="375.1864059899" y="219"/>
			<point x="242" y="212"/>
			<point x="127" y="212" type="curve"/>
			<point x="76.1864059899" y="215" type="line"/>
			<point x="93.1864059899" y="293"/>
			<point x="113" y="389"/>
			<point x="127" y="457" type="curve" smooth="yes" identifier="34K1Khi21E"/>
			<point x="132" y="485"/>
			<point x="147.1864059899" y="503"/>
			<point x="162.1864059899" y="503" type="curve" smooth="yes"/>
			<point x="184.1864059899" y="503"/>
			<point x="200" y="482"/>
			<point x="190" y="432" type="curve" smooth="yes" identifier="FxpLiuQbEO"/>
			<point x="179" y="374"/>
			<point x="144.1864059899" y="250"/>
			<point x="133.1864059899" y="193" type="curve" smooth="yes" identifier="8F9MFkhJ3c"/>
			<point x="115.1864059899" y="106"/>
			<point x="111.1864059899" y="36"/>
			<point x="107.1864059899" y="13" type="curve" smooth="yes" identifier="m0UZWOCckW"/>
			<point x="104.1864059899" y="-1"/>
			<point x="95.1864059899" y="-11"/>
		</contour>
		<contour>
			<point x="423.1864059899" y="-11" type="curve" smooth="yes"/>
			<point x="383.1864059899" y="-11"/>
			<point x="379.1864059899" y="85"/>
			<point x="404.1864059899" y="208" type="curve" smooth="yes" identifier="JMtoEjCdKP"/>
			<point x="429.1864059899" y="336"/>
			<point x="450.1864059899" y="404"/>
			<point x="466.1864059899" y="448" type="curve" smooth="yes"/>
			<point x="475.1864059899" y="474"/>
			<point x="486.1864059899" y="500"/>
			<point x="503.1864059899" y="500" type="curve" smooth="yes"/>
			<point x="529.1864059899" y="500"/>
			<point x="537" y="468"/>
			<point x="529" y="430" type="curve" smooth="yes" identifier="fCdTPtCwDy"/>
			<point x="519" y="382"/>
			<point x="497" y="327"/>
			<point x="486" y="268" type="curve" smooth="yes" identifier="xsnDixEJ8o"/>
			<point x="460" y="141"/>
			<point x="463" y="45"/>
			<point x="458" y="19" type="curve" smooth="yes" identifier="gDIv9lWjF3"/>
			<point x="454" y="0"/>
			<point x="438.1864059899" y="-11"/>
		</contour>
	</outline>
</glyph>
<glyph name="efcyr" format="2">
	<unicode hex="0444"/>
	<advance width="752"/>
	<outline>
		<contour>
			<point x="502" y="691" type="curve" smooth="yes"/>
			<point x="502" y="723"/>
			<point x="492" y="756"/>
			<point x="465" y="756" type="curve" smooth="yes"/>
			<point x="452" y="756"/>
			<point x="438" y="740"/>
			<point x="433" y="714" type="curve" smooth="yes"/>
			<point x="428" y="688"/>
			<point x="428" y="588"/>
			<point x="395" y="423" type="curve" smooth="yes"/>
			<point x="364" y="270"/>
			<point x="298" y="67"/>
			<point x="264" y="-106" type="curve" smooth="yes"/>
			<point x="243.3043478261" y="-209.4782608696"/>
			<point x="254.2444444444" y="-260"/>
			<point x="289" y="-260" type="curve" smooth="yes"/>
			<point x="305" y="-260"/>
			<point x="314" y="-245"/>
			<point x="317" y="-230" type="curve" smooth="yes"/>
			<point x="321" y="-212"/>
			<point x="321" y="-158"/>
			<point x="335" y="-92" type="curve" smooth="yes"/>
			<point x="364" y="55"/>
			<point x="432" y="260"/>
			<point x="463" y="415" type="curve" smooth="yes"/>
			<point x="486.0464332871" y="530.2321664357"/>
			<point x="502" y="635"/>
		</contour>
		<contour>
			<point x="423" y="432" type="curve"/>
			<point x="421" y="492" type="line"/>
			<point x="269" y="492"/>
			<point x="23" y="392.8333333333"/>
			<point x="23" y="186" type="curve" smooth="yes"/>
			<point x="23" y="44.1712707182"/>
			<point x="167.3902439024" y="-13"/>
			<point x="319" y="-13" type="curve" smooth="yes"/>
			<point x="546.004784689" y="-13"/>
			<point x="728" y="130"/>
			<point x="728" y="311" type="curve" smooth="yes"/>
			<point x="728" y="439"/>
			<point x="612" y="493"/>
			<point x="471" y="496" type="curve"/>
			<point x="450" y="436" type="line"/>
			<point x="582.3696682464" y="435"/>
			<point x="660" y="381"/>
			<point x="660" y="303" type="curve" smooth="yes"/>
			<point x="660" y="155"/>
			<point x="495.6455374166" y="49"/>
			<point x="335" y="49" type="curve" smooth="yes"/>
			<point x="157" y="49"/>
			<point x="93" y="108.2558139535"/>
			<point x="93" y="196" type="curve" smooth="yes"/>
			<point x="93" y="321.3837899197"/>
			<point x="239" y="425.4960629921"/>
		</contour>
	</outline>
</glyph>
<glyph name="shchacyr" format="2">
	<unicode hex="0449"/>
	<advance width="865"/>
	<outline>
		<contour>
			<point x="198" y="448" type="curve" smooth="yes"/>
			<point x="202" y="472"/>
			<point x="191" y="498"/>
			<point x="169" y="498" type="curve" smooth="yes"/>
			<point x="151" y="498"/>
			<point x="136" y="468"/>
			<point x="128" y="443" type="curve" smooth="yes"/>
			<point x="106" y="377"/>
			<point x="64" y="226"/>
			<point x="50" y="157" type="curve" smooth="yes"/>
			<point x="31" y="61"/>
			<point x="61" y="-12"/>
			<point x="185" y="-12" type="curve" smooth="yes"/>
			<point x="316" y="-12"/>
			<point x="676" y="5"/>
			<point x="748" y="11" type="curve"/>
			<point x="744" y="29" type="line"/>
			<point x="728" y="-36"/>
			<point x="692" y="-82"/>
			<point x="686" y="-108" type="curve" smooth="yes"/>
			<point x="683" y="-127"/>
			<point x="696" y="-141"/>
			<point x="711" y="-141" type="curve" smooth="yes"/>
			<point x="732" y="-141"/>
			<point x="747" y="-124"/>
			<point x="763" y="-95" type="curve" smooth="yes"/>
			<point x="780" y="-64"/>
			<point x="802" y="-9"/>
			<point x="807" y="18" type="curve" smooth="yes"/>
			<point x="816" y="59"/>
			<point x="798" y="77"/>
			<point x="754" y="77" type="curve" smooth="yes"/>
			<point x="707" y="77"/>
			<point x="442" y="52"/>
			<point x="183" y="52" type="curve" smooth="yes"/>
			<point x="121" y="52"/>
			<point x="106" y="93"/>
			<point x="117" y="149" type="curve" smooth="yes"/>
			<point x="147" y="301"/>
			<point x="191" y="415"/>
		</contour>
		<contour>
			<point x="476" y="423" type="curve" smooth="yes"/>
			<point x="481" y="451"/>
			<point x="473" y="479"/>
			<point x="448" y="479" type="curve" smooth="yes"/>
			<point x="429" y="479"/>
			<point x="417" y="458"/>
			<point x="408" y="431" type="curve" smooth="yes"/>
			<point x="391" y="376"/>
			<point x="377" y="320"/>
			<point x="366" y="264" type="curve" smooth="yes"/>
			<point x="353" y="200"/>
			<point x="340" y="89"/>
			<point x="341" y="26" type="curve"/>
			<point x="414" y="35" type="line"/>
			<point x="413" y="91"/>
			<point x="413" y="151"/>
			<point x="433" y="252" type="curve" smooth="yes"/>
			<point x="451" y="340"/>
			<point x="469" y="389"/>
		</contour>
		<contour>
			<point x="777" y="445" type="curve" smooth="yes"/>
			<point x="780" y="480"/>
			<point x="761" y="496"/>
			<point x="740" y="496" type="curve" smooth="yes"/>
			<point x="726" y="496"/>
			<point x="713" y="482"/>
			<point x="709" y="458" type="curve" smooth="yes"/>
			<point x="704" y="436"/>
			<point x="704" y="388"/>
			<point x="681" y="277" type="curve" smooth="yes"/>
			<point x="660" y="170"/>
			<point x="642" y="104"/>
			<point x="614" y="45" type="curve"/>
			<point x="685" y="40" type="line"/>
			<point x="709" y="95"/>
			<point x="725" y="147"/>
			<point x="751" y="273" type="curve" smooth="yes"/>
			<point x="762" y="329"/>
			<point x="772" y="384"/>
		</contour>
	</outline>
</glyph>
<glyph name="ylongcyr" format="2">
	<unicode hex="044B"/>
	<advance width="705"/>
	<outline>
		<contour>
			<point x="174" y="-11" type="curve" smooth="yes"/>
			<point x="81" y="-11"/>
			<point x="42" y="62"/>
			<point x="61.368" y="165" type="curve" smooth="yes"/>
			<point x="87" y="303"/>
			<point x="115.368" y="434"/>
			<point x="121.368" y="465" type="curve" smooth="yes"/>
			<point x="125.368" y="483"/>
			<point x="134.368" y="498"/>
			<point x="149.368" y="498" type="curve" smooth="yes"/>
			<point x="180.368" y="498"/>
			<point x="192.368" y="459"/>
			<point x="185.368" y="423" type="curve" smooth="yes"/>
			<point x="177.368" y="386"/>
			<point x="161.368" y="331"/>
			<point x="153.368" y="289" type="curve" smooth="yes"/>
			<point x="147.368" y="261"/>
			<point x="135.368" y="209"/>
			<point x="129.368" y="182" type="curve" smooth="yes"/>
			<point x="113.368" y="99"/>
			<point x="128" y="51"/>
			<point x="179.368" y="51" type="curve" smooth="yes"/>
			<point x="233" y="51"/>
			<point x="336" y="122"/>
			<point x="336" y="174" type="curve" smooth="yes"/>
			<point x="336" y="211"/>
			<point x="314" y="233"/>
			<point x="276" y="248" type="curve" smooth="yes"/>
			<point x="243" y="261"/>
			<point x="179" y="275"/>
			<point x="122" y="280" type="curve"/>
			<point x="136.368" y="330" type="line"/>
			<point x="208.368" y="340"/>
			<point x="319.368" y="372"/>
			<point x="411.368" y="407" type="curve" smooth="yes"/>
			<point x="512.368" y="445"/>
			<point x="577.368" y="494"/>
			<point x="609.368" y="494" type="curve" smooth="yes"/>
			<point x="639.368" y="494"/>
			<point x="662" y="468"/>
			<point x="654" y="432" type="curve" smooth="yes"/>
			<point x="645" y="384"/>
			<point x="635" y="343"/>
			<point x="626" y="301" type="curve" smooth="yes"/>
			<point x="616" y="249"/>
			<point x="601" y="161"/>
			<point x="597" y="97" type="curve" smooth="yes"/>
			<point x="596" y="69"/>
			<point x="596" y="29"/>
			<point x="593" y="14" type="curve" smooth="yes"/>
			<point x="590" y="-2"/>
			<point x="578.368" y="-10"/>
			<point x="564.368" y="-10" type="curve" smooth="yes"/>
			<point x="541.368" y="-10"/>
			<point x="530.368" y="19"/>
			<point x="529.368" y="55" type="curve" smooth="yes"/>
			<point x="527.368" y="125"/>
			<point x="535.368" y="189"/>
			<point x="549.368" y="261" type="curve" smooth="yes"/>
			<point x="561.368" y="320"/>
			<point x="585.368" y="425"/>
			<point x="590.368" y="449" type="curve"/>
			<point x="606" y="430" type="line"/>
			<point x="521" y="381"/>
			<point x="329" y="311"/>
			<point x="173" y="285" type="curve"/>
			<point x="180" y="308" type="line"/>
			<point x="189" y="309"/>
			<point x="214" y="312"/>
			<point x="243" y="312" type="curve" smooth="yes"/>
			<point x="283" y="312"/>
			<point x="409" y="281"/>
			<point x="409" y="184" type="curve" smooth="yes"/>
			<point x="409" y="89"/>
			<point x="268" y="-11"/>
		</contour>
	</outline>
	<anchor name="top" x="387.369" y="485"/>
</glyph>
<glyph name="njecyr" format="2">
	<unicode hex="045A"/>
	<advance width="832"/>
	<outline>
		<contour>
			<point x="107.186" y="13" type="curve" smooth="yes"/>
			<point x="111.186" y="36"/>
			<point x="115.186" y="106"/>
			<point x="133.186" y="193" type="curve" smooth="yes"/>
			<point x="144.186" y="250"/>
			<point x="178.186" y="374"/>
			<point x="189.186" y="432" type="curve" smooth="yes"/>
			<point x="199.186" y="482"/>
			<point x="184.186" y="503"/>
			<point x="162.186" y="503" type="curve" smooth="yes"/>
			<point x="147.186" y="503"/>
			<point x="134.186" y="486"/>
			<point x="129.186" y="458" type="curve" smooth="yes"/>
			<point x="115.186" y="390"/>
			<point x="93.186" y="293"/>
			<point x="76.186" y="215" type="curve"/>
			<point x="117.186" y="212" type="line"/>
			<point x="228.186" y="212"/>
			<point x="367.186" y="218"/>
			<point x="462.186" y="247" type="curve"/>
			<point x="451.186" y="299" type="line"/>
			<point x="362.186" y="279"/>
			<point x="265.186" y="272"/>
			<point x="172.186" y="272" type="curve" smooth="yes"/>
			<point x="90.186" y="272"/>
			<point x="72.186" y="256"/>
			<point x="52.186" y="157" type="curve" smooth="yes"/>
			<point x="32.186" y="55"/>
			<point x="41.186" y="-11"/>
			<point x="83.186" y="-11" type="curve" smooth="yes"/>
			<point x="95.186" y="-11"/>
			<point x="104.186" y="-1"/>
		</contour>
		<contour>
			<point x="481.186" y="498" type="curve" smooth="yes"/>
			<point x="463.186" y="498"/>
			<point x="456.186" y="490"/>
			<point x="452.186" y="469" type="curve" smooth="yes"/>
			<point x="448.186" y="451"/>
			<point x="447.186" y="414"/>
			<point x="435.186" y="354" type="curve" smooth="yes"/>
			<point x="424.186" y="302"/>
			<point x="396.186" y="232"/>
			<point x="387.186" y="184" type="curve" smooth="yes"/>
			<point x="368.186" y="88"/>
			<point x="377.186" y="-10"/>
			<point x="509.186" y="-10" type="curve" smooth="yes"/>
			<point x="631.186" y="-10"/>
			<point x="769.186" y="117"/>
			<point x="791.186" y="224" type="curve" smooth="yes"/>
			<point x="803.186" y="283"/>
			<point x="769.186" y="332"/>
			<point x="681.186" y="332" type="curve" smooth="yes"/>
			<point x="607.186" y="332"/>
			<point x="511.186" y="308"/>
			<point x="446.186" y="292" type="curve" smooth="yes"/>
			<point x="432.186" y="288"/>
			<point x="428.186" y="275"/>
			<point x="426.186" y="263" type="curve" smooth="yes"/>
			<point x="423.186" y="251"/>
			<point x="430.186" y="233"/>
			<point x="441.186" y="237" type="curve"/>
			<point x="502.186" y="253"/>
			<point x="585.186" y="272"/>
			<point x="672.186" y="272" type="curve" smooth="yes"/>
			<point x="712.186" y="272"/>
			<point x="733.186" y="256"/>
			<point x="728.186" y="231" type="curve" smooth="yes"/>
			<point x="709.186" y="136"/>
			<point x="606.186" y="52"/>
			<point x="525.186" y="52" type="curve" smooth="yes"/>
			<point x="448.186" y="52"/>
			<point x="437.186" y="93"/>
			<point x="455.186" y="187" type="curve" smooth="yes"/>
			<point x="466.186" y="239"/>
			<point x="504.186" y="357"/>
			<point x="517.186" y="419" type="curve" smooth="yes"/>
			<point x="525.186" y="461"/>
			<point x="516.186" y="498"/>
		</contour>
	</outline>
	<guideline x="128.792" y="150" angle="90" identifier="s8WhqeeopN"/>
</glyph>
<glyph name="dzhecyr" format="2">
	<unicode hex="045F"/>
	<advance width="564"/>
	<outline>
		<contour>
			<point x="394.553" y="71" type="line"/>
			<point x="338.553" y="55"/>
			<point x="240.553" y="50"/>
			<point x="171.553" y="50" type="curve" smooth="yes"/>
			<point x="112.553" y="50"/>
			<point x="98.553" y="69"/>
			<point x="105.553" y="106" type="curve" smooth="yes"/>
			<point x="130.553" y="228"/>
			<point x="214.553" y="411"/>
			<point x="219.553" y="435" type="curve" smooth="yes"/>
			<point x="226.553" y="472"/>
			<point x="210.553" y="492"/>
			<point x="193.553" y="492" type="curve" smooth="yes"/>
			<point x="178.553" y="492"/>
			<point x="170.553" y="477"/>
			<point x="162.553" y="455" type="curve"/>
			<point x="129.553" y="389"/>
			<point x="58.553" y="194"/>
			<point x="42.553" y="115" type="curve" smooth="yes"/>
			<point x="27.553" y="42"/>
			<point x="47.553" y="-7"/>
			<point x="133.553" y="-7" type="curve" smooth="yes"/>
			<point x="249.553" y="-7"/>
			<point x="312.553" y="-4"/>
			<point x="370.553" y="8" type="curve" smooth="yes"/>
			<point x="432.553" y="21"/>
			<point x="457.553" y="73"/>
			<point x="471.553" y="146" type="curve" smooth="yes"/>
			<point x="490.553" y="239"/>
			<point x="505.553" y="362"/>
			<point x="507.553" y="437" type="curve" smooth="yes"/>
			<point x="508.553" y="469"/>
			<point x="499.553" y="494"/>
			<point x="471.553" y="494" type="curve" smooth="yes"/>
			<point x="456.553" y="494"/>
			<point x="450.553" y="481"/>
			<point x="446.553" y="458" type="curve" smooth="yes"/>
			<point x="438.553" y="419"/>
			<point x="435.553" y="288"/>
			<point x="415.553" y="190" type="curve" smooth="yes"/>
			<point x="405.553" y="141"/>
			<point x="399.553" y="92"/>
			<point x="365.553" y="42" type="curve"/>
		</contour>
		<contour>
			<point x="169.553" y="-101" type="curve" smooth="yes"/>
			<point x="162.553" y="-134"/>
			<point x="171.553" y="-171"/>
			<point x="205.553" y="-171" type="curve" smooth="yes"/>
			<point x="219.553" y="-171"/>
			<point x="232" y="-157"/>
			<point x="235.553" y="-137" type="curve" smooth="yes"/>
			<point x="240.553" y="-109"/>
			<point x="248.553" y="-56"/>
			<point x="259.553" y="2" type="curve" smooth="yes"/>
			<point x="265.553" y="31"/>
			<point x="256.553" y="44"/>
			<point x="239.553" y="44" type="curve" smooth="yes"/>
			<point x="205.993" y="44"/>
			<point x="183" y="-33"/>
		</contour>
	</outline>
	<guideline x="38.792" y="263" angle="90" identifier="rQENFQOEUJ"/>
	<guideline x="41.792" y="278" angle="90" identifier="rKZszPBnKc"/>
</glyph>
<glyph name="yatcyr" format="2">
	<unicode hex="0463"/>
	<advance width="594"/>
	<outline>
		<contour>
			<point x="108.431" y="432" type="curve" smooth="yes"/>
			<point x="153.431" y="432"/>
			<point x="225.431" y="441"/>
			<point x="424.431" y="441" type="curve" smooth="yes"/>
			<point x="457.431" y="441"/>
			<point x="479.431" y="451"/>
			<point x="482.431" y="467" type="curve" smooth="yes"/>
			<point x="485.431" y="479"/>
			<point x="473.431" y="498"/>
			<point x="426.431" y="498" type="curve" smooth="yes"/>
			<point x="314.431" y="498"/>
			<point x="208.431" y="494"/>
			<point x="90.431" y="488" type="curve" smooth="yes"/>
			<point x="63.431" y="486"/>
			<point x="53.431" y="472"/>
			<point x="51.431" y="462" type="curve" smooth="yes"/>
			<point x="48.431" y="447"/>
			<point x="60.431" y="432"/>
		</contour>
		<contour>
			<point x="290.431" y="762" type="curve" smooth="yes"/>
			<point x="273.431" y="762"/>
			<point x="267.431" y="756"/>
			<point x="264.431" y="739" type="curve" smooth="yes"/>
			<point x="260.431" y="719"/>
			<point x="254.431" y="681"/>
			<point x="242.431" y="618" type="curve" smooth="yes"/>
			<point x="223.431" y="526"/>
			<point x="150.431" y="335"/>
			<point x="128.431" y="223" type="curve" smooth="yes"/>
			<point x="105.431" y="108"/>
			<point x="114.431" y="-10"/>
			<point x="263.431" y="-10" type="curve" smooth="yes"/>
			<point x="385.431" y="-10"/>
			<point x="523.431" y="114"/>
			<point x="544.431" y="219" type="curve" smooth="yes"/>
			<point x="556.431" y="278"/>
			<point x="519.431" y="326"/>
			<point x="424.431" y="326" type="curve" smooth="yes"/>
			<point x="355.431" y="326"/>
			<point x="266.431" y="316"/>
			<point x="208.431" y="302" type="curve"/>
			<point x="185.431" y="298"/>
			<point x="181.431" y="282"/>
			<point x="178.431" y="267" type="curve" smooth="yes"/>
			<point x="176.431" y="257"/>
			<point x="180.431" y="244"/>
			<point x="195.431" y="246" type="curve" smooth="yes"/>
			<point x="251.431" y="253"/>
			<point x="327.431" y="263"/>
			<point x="408.431" y="263" type="curve" smooth="yes"/>
			<point x="458.431" y="263"/>
			<point x="485.431" y="246"/>
			<point x="482.431" y="230" type="curve" smooth="yes"/>
			<point x="463.431" y="136"/>
			<point x="360.431" y="52"/>
			<point x="279.431" y="52" type="curve" smooth="yes"/>
			<point x="183.431" y="52"/>
			<point x="169.431" y="106"/>
			<point x="194.431" y="228" type="curve" smooth="yes"/>
			<point x="214.431" y="330"/>
			<point x="300.431" y="566"/>
			<point x="324.431" y="683" type="curve" smooth="yes"/>
			<point x="332.431" y="725"/>
			<point x="323.431" y="762"/>
		</contour>
	</outline>
</glyph>
<glyph name="yusbigcyr" format="2">
	<unicode hex="046B"/>
	<advance width="664"/>
	<outline>
		<contour>
			<point x="219.532" y="202" type="curve"/>
			<point x="275.532" y="226" type="line"/>
			<point x="203.532" y="312"/>
			<point x="193.532" y="398"/>
			<point x="196.532" y="447" type="curve"/>
			<point x="170.532" y="437" type="line"/>
			<point x="245.532" y="430"/>
			<point x="464.532" y="419"/>
			<point x="565.532" y="430" type="curve"/>
			<point x="543.532" y="440" type="line"/>
			<point x="517.532" y="374"/>
			<point x="467.532" y="312"/>
			<point x="385.532" y="235" type="curve"/>
			<point x="417.532" y="201" type="line"/>
			<point x="512.532" y="280"/>
			<point x="588.532" y="370"/>
			<point x="599.532" y="423" type="curve" smooth="yes"/>
			<point x="604.532" y="451"/>
			<point x="589.532" y="480"/>
			<point x="538.532" y="480" type="curve" smooth="yes"/>
			<point x="463.532" y="480"/>
			<point x="283.532" y="490"/>
			<point x="244.532" y="490" type="curve" smooth="yes"/>
			<point x="179.532" y="490"/>
			<point x="141.532" y="457"/>
			<point x="133.532" y="417" type="curve" smooth="yes"/>
			<point x="123.532" y="363"/>
			<point x="160.532" y="272"/>
		</contour>
		<contour>
			<point x="263.532" y="51" type="curve" smooth="yes"/>
			<point x="258.532" y="25"/>
			<point x="261.532" y="-7"/>
			<point x="283.532" y="-7" type="curve" smooth="yes"/>
			<point x="294.532" y="-7"/>
			<point x="303.532" y="1"/>
			<point x="309.532" y="15" type="curve" smooth="yes"/>
			<point x="323.532" y="49"/>
			<point x="363.532" y="222"/>
			<point x="355.532" y="281" type="curve" smooth="yes"/>
			<point x="352.532" y="304"/>
			<point x="339.532" y="322"/>
			<point x="324.532" y="322" type="curve" smooth="yes"/>
			<point x="311.532" y="322"/>
			<point x="305.532" y="312"/>
			<point x="303.532" y="298" type="curve" smooth="yes"/>
			<point x="298.532" y="273"/>
			<point x="302.532" y="220"/>
			<point x="292.532" y="172" type="curve" smooth="yes"/>
			<point x="279.532" y="105"/>
			<point x="268.532" y="74"/>
		</contour>
		<contour>
			<point x="330.532" y="266" type="curve" smooth="yes"/>
			<point x="158.532" y="266"/>
			<point x="13.532" y="111"/>
			<point x="-2.468" y="32" type="curve" smooth="yes"/>
			<point x="-6.468" y="11"/>
			<point x="-3.468" y="-7"/>
			<point x="16.532" y="-7" type="curve" smooth="yes"/>
			<point x="32.532" y="-7"/>
			<point x="44.532" y="19"/>
			<point x="70.532" y="56" type="curve" smooth="yes"/>
			<point x="121.532" y="132"/>
			<point x="191.532" y="209"/>
			<point x="323.532" y="210" type="curve" smooth="yes"/>
			<point x="430.532" y="211"/>
			<point x="473.532" y="155"/>
			<point x="513.532" y="63" type="curve"/>
			<point x="533.532" y="27"/>
			<point x="533.532" y="-10"/>
			<point x="559.532" y="-10" type="curve" smooth="yes"/>
			<point x="573.532" y="-10"/>
			<point x="582.532" y="-1"/>
			<point x="585.532" y="15" type="curve" smooth="yes"/>
			<point x="599.532" y="86"/>
			<point x="528.532" y="266"/>
		</contour>
	</outline>
</glyph>
<glyph name="izhitsacyr" format="2">
	<unicode hex="0475"/>
	<advance width="572"/>
	<outline>
		<contour>
			<point x="477.796" y="387" type="curve" smooth="yes"/>
			<point x="496.796" y="411"/>
			<point x="510.796" y="421"/>
			<point x="523.796" y="421" type="curve" smooth="yes"/>
			<point x="547.796" y="421"/>
			<point x="556.796" y="395"/>
			<point x="578.796" y="395" type="curve" smooth="yes"/>
			<point x="589.796" y="395"/>
			<point x="596.796" y="407"/>
			<point x="598.796" y="416" type="curve" smooth="yes"/>
			<point x="605.796" y="452"/>
			<point x="585.796" y="495"/>
			<point x="545.796" y="495" type="curve" smooth="yes"/>
			<point x="504.796" y="495"/>
			<point x="468.796" y="471"/>
			<point x="425.796" y="421" type="curve" smooth="yes"/>
			<point x="348.796" y="331"/>
			<point x="301.796" y="203"/>
			<point x="217.796" y="64" type="curve"/>
			<point x="249.796" y="67" type="line"/>
			<point x="214.796" y="145"/>
			<point x="205.796" y="271"/>
			<point x="187.796" y="366" type="curve" smooth="yes"/>
			<point x="174.796" y="429"/>
			<point x="166.796" y="492"/>
			<point x="111.796" y="492" type="curve" smooth="yes"/>
			<point x="91.796" y="492"/>
			<point x="78.796" y="482"/>
			<point x="76.796" y="472" type="curve" smooth="yes"/>
			<point x="70.796" y="438"/>
			<point x="99.796" y="442"/>
			<point x="127.796" y="286" type="curve" smooth="yes"/>
			<point x="144.796" y="191"/>
			<point x="155.796" y="76"/>
			<point x="178.796" y="27" type="curve" smooth="yes"/>
			<point x="191.796" y="1"/>
			<point x="202.796" y="-10"/>
			<point x="220.796" y="-10" type="curve" smooth="yes"/>
			<point x="240.796" y="-10"/>
			<point x="253.796" y="-2"/>
			<point x="269.796" y="25" type="curve" smooth="yes"/>
			<point x="349.796" y="160"/>
			<point x="410.796" y="307"/>
		</contour>
	</outline>
</glyph>
<glyph name="geupcyr" format="2">
	<unicode hex="0491"/>
	<advance width="420"/>
	<outline>
		<contour>
			<point x="74.754" y="-10" type="curve" smooth="yes"/>
			<point x="48.754" y="-10"/>
			<point x="36.754" y="19"/>
			<point x="40.754" y="72" type="curve" smooth="yes"/>
			<point x="45.754" y="124"/>
			<point x="87.754" y="330"/>
			<point x="99.754" y="392" type="curve" smooth="yes"/>
			<point x="112.754" y="457"/>
			<point x="130.754" y="477"/>
			<point x="171.754" y="484" type="curve" smooth="yes"/>
			<point x="213.754" y="491"/>
			<point x="261.754" y="494"/>
			<point x="306.754" y="494" type="curve" smooth="yes"/>
			<point x="333.754" y="494"/>
			<point x="367.754" y="492"/>
			<point x="391.754" y="492" type="curve" smooth="yes"/>
			<point x="400.754" y="492"/>
			<point x="409.754" y="548"/>
			<point x="416.754" y="577" type="curve" smooth="yes"/>
			<point x="421.754" y="596"/>
			<point x="434.754" y="607"/>
			<point x="444.754" y="607" type="curve" smooth="yes"/>
			<point x="465.754" y="607"/>
			<point x="480.754" y="586"/>
			<point x="477.754" y="558" type="curve" smooth="yes"/>
			<point x="474.754" y="537"/>
			<point x="469.754" y="507"/>
			<point x="462.754" y="471" type="curve" smooth="yes"/>
			<point x="457.754" y="447"/>
			<point x="436.754" y="430"/>
			<point x="403.754" y="430" type="curve" smooth="yes"/>
			<point x="360.754" y="430"/>
			<point x="342.754" y="432"/>
			<point x="274.754" y="432" type="curve" smooth="yes"/>
			<point x="221.754" y="432"/>
			<point x="191.754" y="427"/>
			<point x="146.754" y="417" type="curve"/>
			<point x="181.754" y="440" type="line"/>
			<point x="163.754" y="387"/>
			<point x="148.754" y="326"/>
			<point x="128.754" y="226" type="curve" smooth="yes"/>
			<point x="107.754" y="121"/>
			<point x="100.754" y="27"/>
			<point x="98.754" y="14" type="curve" smooth="yes"/>
			<point x="95.754" y="-2"/>
			<point x="85.754" y="-10"/>
		</contour>
	</outline>
	<guideline x="38.792" y="263" angle="90" identifier="rQENFQOEUJ"/>
	<guideline x="41.792" y="278" angle="90" identifier="rKZszPBnKc"/>
	<guideline x="38.792" y="263" angle="90" identifier="1UpiQWPmoV"/>
	<guideline x="41.792" y="278" angle="90" identifier="pIIihmLULH"/>
	<guideline x="38.792" y="263" angle="90" identifier="vjTySaR57U"/>
	<guideline x="41.792" y="278" angle="90" identifier="PtsIxNZY3U"/>
</glyph>
<glyph name="Gestrokecyr" format="2">
	<unicode hex="0492"/>
	<advance width="539"/>
	<outline>
		<contour>
			<point x="121.469" y="313" type="curve" smooth="yes"/>
			<point x="170.469" y="313"/>
			<point x="267.469" y="325"/>
			<point x="403.469" y="325" type="curve" smooth="yes"/>
			<point x="427.469" y="325"/>
			<point x="444.469" y="333"/>
			<point x="446.469" y="345" type="curve" smooth="yes"/>
			<point x="449.469" y="360"/>
			<point x="422.469" y="386"/>
			<point x="333.469" y="386" type="curve" smooth="yes"/>
			<point x="267.469" y="386"/>
			<point x="152.469" y="377"/>
			<point x="79.469" y="373" type="curve" smooth="yes"/>
			<point x="51.469" y="371"/>
			<point x="38.469" y="361"/>
			<point x="36.469" y="348" type="curve" smooth="yes"/>
			<point x="32.469" y="330"/>
			<point x="53.469" y="313"/>
		</contour>
		<component base="Gecyr" xOffset="22.677"/>
	</outline>
	<anchor name="top" x="396.47" y="700"/>
</glyph>
<glyph name="Gehookcyr" format="2">
	<unicode hex="0494"/>
	<advance width="656"/>
	<outline>
		<contour>
			<point x="235.659" y="702" type="curve" smooth="yes"/>
			<point x="180.659" y="701"/>
			<point x="158.659" y="694"/>
			<point x="155.659" y="678" type="curve" smooth="yes"/>
			<point x="150.659" y="657"/>
			<point x="170.659" y="635"/>
			<point x="204.659" y="635" type="curve" smooth="yes"/>
			<point x="240.659" y="635"/>
			<point x="337.659" y="648"/>
			<point x="424.659" y="648" type="curve" smooth="yes"/>
			<point x="487.659" y="648"/>
			<point x="522.659" y="644"/>
			<point x="571.659" y="644" type="curve" smooth="yes"/>
			<point x="592.659" y="644"/>
			<point x="606.659" y="652"/>
			<point x="609.659" y="667" type="curve" smooth="yes"/>
			<point x="614.659" y="690"/>
			<point x="586.659" y="710"/>
			<point x="509.659" y="710" type="curve" smooth="yes"/>
			<point x="436.659" y="710"/>
			<point x="323.659" y="703"/>
		</contour>
		<contour>
			<point x="572.659" y="147" type="curve" smooth="yes"/>
			<point x="592.659" y="244"/>
			<point x="592.659" y="429"/>
			<point x="476.659" y="429" type="curve" smooth="yes"/>
			<point x="375.659" y="429"/>
			<point x="227.659" y="288"/>
			<point x="124.659" y="91" type="curve"/>
			<point x="145.659" y="88" type="line"/>
			<point x="158.659" y="192"/>
			<point x="175.659" y="336"/>
			<point x="238.659" y="573" type="curve" smooth="yes"/>
			<point x="258.659" y="652"/>
			<point x="256.659" y="677"/>
			<point x="227.659" y="677" type="curve" smooth="yes"/>
			<point x="210.659" y="677"/>
			<point x="197.659" y="659"/>
			<point x="190.659" y="633" type="curve" smooth="yes"/>
			<point x="107.659" y="342"/>
			<point x="86.659" y="173"/>
			<point x="78.659" y="89" type="curve" smooth="yes"/>
			<point x="71.659" y="9"/>
			<point x="87.659" y="-13"/>
			<point x="110.659" y="-13" type="curve" smooth="yes"/>
			<point x="133.659" y="-13"/>
			<point x="142.659" y="8"/>
			<point x="163.659" y="44" type="curve" smooth="yes"/>
			<point x="277.659" y="241"/>
			<point x="390.659" y="346"/>
			<point x="471.659" y="371" type="curve"/>
			<point x="505.659" y="328"/>
			<point x="522.659" y="252"/>
			<point x="501.659" y="146" type="curve" smooth="yes"/>
			<point x="469.659" y="-13"/>
			<point x="392.659" y="-83"/>
			<point x="331.659" y="-109" type="curve" smooth="yes"/>
			<point x="303.659" y="-121"/>
			<point x="274.659" y="-128"/>
			<point x="271.659" y="-144" type="curve" smooth="yes"/>
			<point x="269.659" y="-157"/>
			<point x="275.659" y="-177"/>
			<point x="303.659" y="-177" type="curve" smooth="yes"/>
			<point x="411.659" y="-177"/>
			<point x="534.659" y="-45"/>
		</contour>
	</outline>
</glyph>
<glyph name="gehookcyr" format="2">
	<unicode hex="0495"/>
	<advance width="527"/>
	<outline>
		<contour>
			<point x="118.778" y="94" type="line"/>
			<point x="110.778" y="146"/>
			<point x="124.778" y="196"/>
			<point x="133.778" y="240" type="curve" smooth="yes"/>
			<point x="148.778" y="313"/>
			<point x="162.778" y="369"/>
			<point x="181.778" y="440" type="curve"/>
			<point x="146.778" y="417" type="line"/>
			<point x="191.778" y="427"/>
			<point x="221.778" y="432"/>
			<point x="274.778" y="432" type="curve" smooth="yes"/>
			<point x="340.778" y="432"/>
			<point x="356.778" y="426"/>
			<point x="398.778" y="426" type="curve" smooth="yes"/>
			<point x="427.778" y="426"/>
			<point x="456.778" y="434"/>
			<point x="460.778" y="456" type="curve" smooth="yes"/>
			<point x="462.778" y="467"/>
			<point x="455.778" y="477"/>
			<point x="443.778" y="481" type="curve" smooth="yes"/>
			<point x="417.778" y="489"/>
			<point x="355.778" y="494"/>
			<point x="306.778" y="494" type="curve" smooth="yes"/>
			<point x="261.778" y="494"/>
			<point x="213.778" y="491"/>
			<point x="171.778" y="484" type="curve" smooth="yes"/>
			<point x="130.778" y="477"/>
			<point x="112.778" y="457"/>
			<point x="99.778" y="392" type="curve" smooth="yes"/>
			<point x="87.778" y="332"/>
			<point x="46.778" y="133"/>
			<point x="43.778" y="83" type="curve" smooth="yes"/>
			<point x="40.778" y="34"/>
			<point x="45.778" y="-10"/>
			<point x="70.778" y="-10" type="curve" smooth="yes"/>
			<point x="91.778" y="-10"/>
			<point x="105.778" y="6"/>
			<point x="124.778" y="33" type="curve" smooth="yes"/>
			<point x="213.778" y="165"/>
			<point x="288.778" y="218"/>
			<point x="354.778" y="236" type="curve"/>
			<point x="308.778" y="240" type="line"/>
			<point x="363.778" y="203"/>
			<point x="382.778" y="126"/>
			<point x="366.778" y="44" type="curve" smooth="yes"/>
			<point x="347.778" y="-49"/>
			<point x="296.778" y="-86"/>
			<point x="241.778" y="-110" type="curve" smooth="yes"/>
			<point x="208.778" y="-126"/>
			<point x="191.778" y="-132"/>
			<point x="188.778" y="-144" type="curve" smooth="yes"/>
			<point x="184.778" y="-164"/>
			<point x="200.778" y="-178"/>
			<point x="220.778" y="-178" type="curve" smooth="yes"/>
			<point x="290.778" y="-178"/>
			<point x="409.778" y="-94"/>
			<point x="437.778" y="47" type="curve" smooth="yes"/>
			<point x="456.778" y="139"/>
			<point x="438.778" y="287"/>
			<point x="336.778" y="287" type="curve" smooth="yes"/>
			<point x="273.778" y="287"/>
			<point x="185.778" y="211"/>
			<point x="100.778" y="96" type="curve"/>
		</contour>
	</outline>
</glyph>
<glyph name="Zhetailcyr" format="2">
	<unicode hex="0496"/>
	<advance width="938"/>
	<outline>
		<contour>
			<point x="766.156" y="50" type="curve" smooth="yes"/>
			<point x="706.156" y="50"/>
			<point x="552.156" y="277"/>
			<point x="569.156" y="362" type="curve" smooth="yes"/>
			<point x="581.156" y="420"/>
			<point x="768.156" y="561"/>
			<point x="934.156" y="647" type="curve" smooth="yes"/>
			<point x="950.156" y="655"/>
			<point x="963.156" y="666"/>
			<point x="965.156" y="677" type="curve" smooth="yes"/>
			<point x="969.156" y="696"/>
			<point x="955.156" y="711"/>
			<point x="937.156" y="711" type="curve" smooth="yes"/>
			<point x="861.156" y="711"/>
			<point x="516.156" y="436"/>
			<point x="503.156" y="368" type="curve" smooth="yes"/>
			<point x="483.156" y="271"/>
			<point x="633.156" y="-11"/>
			<point x="747.156" y="-11" type="curve" smooth="yes"/>
			<point x="774.156" y="-11"/>
			<point x="783.156" y="-6"/>
			<point x="796.156" y="0" type="curve"/>
			<point x="788.156" y="24" type="line"/>
			<point x="767.156" y="-22"/>
			<point x="744.156" y="-87"/>
			<point x="737.156" y="-121" type="curve" smooth="yes"/>
			<point x="731.156" y="-150"/>
			<point x="737.156" y="-177"/>
			<point x="762.156" y="-177" type="curve" smooth="yes"/>
			<point x="779.156" y="-177"/>
			<point x="788.156" y="-161"/>
			<point x="795.156" y="-138" type="curve" smooth="yes"/>
			<point x="818.156" y="-69"/>
			<point x="856.156" y="14"/>
			<point x="862.156" y="47" type="curve" smooth="yes"/>
			<point x="866.156" y="67"/>
			<point x="859.156" y="76"/>
			<point x="838.156" y="76" type="curve" smooth="yes"/>
			<point x="807.156" y="76"/>
			<point x="777.156" y="50"/>
		</contour>
		<contour>
			<point x="439.156" y="29" type="curve" smooth="yes"/>
			<point x="443.156" y="49"/>
			<point x="450.156" y="113"/>
			<point x="462.156" y="175" type="curve" smooth="yes"/>
			<point x="475.156" y="241"/>
			<point x="495.156" y="322"/>
			<point x="518.156" y="417" type="curve" smooth="yes"/>
			<point x="564.156" y="609"/>
			<point x="561.156" y="660"/>
			<point x="562.156" y="678" type="curve" smooth="yes"/>
			<point x="563.156" y="698"/>
			<point x="554.156" y="716"/>
			<point x="525.156" y="716" type="curve" smooth="yes"/>
			<point x="507.156" y="716"/>
			<point x="495.156" y="699"/>
			<point x="491.156" y="680" type="curve" smooth="yes"/>
			<point x="483.156" y="642"/>
			<point x="491.156" y="599"/>
			<point x="448.156" y="419" type="curve" smooth="yes"/>
			<point x="426.156" y="328"/>
			<point x="388.156" y="157"/>
			<point x="371.156" y="68" type="curve" smooth="yes"/>
			<point x="360.156" y="13"/>
			<point x="371.156" y="-13"/>
			<point x="397.156" y="-13" type="curve" smooth="yes"/>
			<point x="415.156" y="-13"/>
			<point x="434.156" y="6"/>
		</contour>
		<contour>
			<point x="438.156" y="369" type="curve" smooth="yes"/>
			<point x="454.156" y="448"/>
			<point x="262.156" y="704"/>
			<point x="204.156" y="704" type="curve" smooth="yes"/>
			<point x="181.156" y="704"/>
			<point x="166.156" y="690"/>
			<point x="163.156" y="674" type="curve" smooth="yes"/>
			<point x="160.156" y="662"/>
			<point x="164.156" y="647"/>
			<point x="181.156" y="634" type="curve" smooth="yes"/>
			<point x="263.156" y="570"/>
			<point x="381.156" y="414"/>
			<point x="372.156" y="371" type="curve" smooth="yes"/>
			<point x="359.156" y="307"/>
			<point x="171.156" y="154"/>
			<point x="22.156" y="50" type="curve" smooth="yes"/>
			<point x="9.156" y="41"/>
			<point x="-0.844" y="29"/>
			<point x="-2.844" y="19" type="curve" smooth="yes"/>
			<point x="-6.844" y="2"/>
			<point x="-0.844" y="-13"/>
			<point x="21.156" y="-13" type="curve" smooth="yes"/>
			<point x="75.156" y="-13"/>
			<point x="422.156" y="290"/>
		</contour>
	</outline>
	<guideline x="180.792" y="356" angle="90" identifier="JUwCnAo7xy"/>
	<guideline x="82.792" y="424" angle="90" identifier="pv43GWLurq"/>
</glyph>
<glyph name="zhetailcyr" format="2">
	<unicode hex="0497"/>
	<advance width="756"/>
	<outline>
		<contour>
			<point x="591.019" y="-87" type="curve" smooth="yes"/>
			<point x="586.019" y="-110"/>
			<point x="590.019" y="-141"/>
			<point x="616.019" y="-141" type="curve" smooth="yes"/>
			<point x="629.019" y="-141"/>
			<point x="640.019" y="-125"/>
			<point x="648.019" y="-99" type="curve" smooth="yes"/>
			<point x="672.019" y="-26"/>
			<point x="700.019" y="32"/>
			<point x="706.019" y="62" type="curve" smooth="yes"/>
			<point x="711.019" y="86"/>
			<point x="699.019" y="96"/>
			<point x="689.019" y="96" type="curve" smooth="yes"/>
			<point x="664.019" y="96"/>
			<point x="638.019" y="60"/>
			<point x="629.019" y="60" type="curve" smooth="yes"/>
			<point x="591.019" y="60"/>
			<point x="444.019" y="212"/>
			<point x="452.019" y="249" type="curve" smooth="yes"/>
			<point x="453.019" y="255"/>
			<point x="546.019" y="311"/>
			<point x="600.019" y="351" type="curve" smooth="yes"/>
			<point x="662.019" y="397"/>
			<point x="725.019" y="446"/>
			<point x="731.019" y="473" type="curve" smooth="yes"/>
			<point x="733.019" y="487"/>
			<point x="726.019" y="499"/>
			<point x="709.019" y="499" type="curve" smooth="yes"/>
			<point x="692.019" y="499"/>
			<point x="649.019" y="455"/>
			<point x="599.019" y="416" type="curve" smooth="yes"/>
			<point x="546.019" y="375"/>
			<point x="437.019" y="298"/>
			<point x="373.019" y="266" type="curve" smooth="yes"/>
			<point x="369.019" y="264"/>
			<point x="366.019" y="261"/>
			<point x="366.019" y="258" type="curve" smooth="yes"/>
			<point x="365.019" y="253"/>
			<point x="366.019" y="247"/>
			<point x="370.019" y="241" type="curve"/>
			<point x="397.019" y="189"/>
			<point x="430.019" y="135"/>
			<point x="474.019" y="88" type="curve" smooth="yes"/>
			<point x="527.019" y="31"/>
			<point x="579.019" y="-7"/>
			<point x="614.019" y="-7" type="curve" smooth="yes"/>
			<point x="630.019" y="-7"/>
			<point x="642.019" y="2"/>
			<point x="660.019" y="20" type="curve"/>
			<point x="638.019" y="37" type="line"/>
			<point x="613.019" y="-1"/>
			<point x="595.019" y="-67"/>
		</contour>
		<contour>
			<point x="-18.981" y="23" type="curve" smooth="yes"/>
			<point x="-22.981" y="7"/>
			<point x="-14.981" y="-7"/>
			<point x="1.019" y="-7" type="curve" smooth="yes"/>
			<point x="25.019" y="-7"/>
			<point x="90.019" y="70"/>
			<point x="201.019" y="146" type="curve" smooth="yes"/>
			<point x="252.019" y="181"/>
			<point x="299.019" y="205"/>
			<point x="342.019" y="227" type="curve"/>
			<point x="350.019" y="257" type="line"/>
			<point x="324.019" y="273"/>
			<point x="285.019" y="306"/>
			<point x="259.019" y="331" type="curve" smooth="yes"/>
			<point x="170.019" y="416"/>
			<point x="158.019" y="499"/>
			<point x="126.019" y="499" type="curve" smooth="yes"/>
			<point x="109.019" y="499"/>
			<point x="98.019" y="487"/>
			<point x="95.019" y="472" type="curve" smooth="yes"/>
			<point x="89.019" y="439"/>
			<point x="135.019" y="357"/>
			<point x="180.019" y="315" type="curve" smooth="yes"/>
			<point x="238.019" y="261"/>
			<point x="284.019" y="236"/>
			<point x="297.019" y="232" type="curve"/>
			<point x="288.019" y="256" type="line"/>
			<point x="272.019" y="248"/>
			<point x="234.019" y="234"/>
			<point x="177.019" y="196" type="curve" smooth="yes"/>
			<point x="80.019" y="131"/>
			<point x="-12.981" y="56"/>
		</contour>
		<contour>
			<point x="288.019" y="74" type="curve" smooth="yes"/>
			<point x="281.019" y="40"/>
			<point x="281.019" y="-12"/>
			<point x="312.019" y="-12" type="curve" smooth="yes"/>
			<point x="334.019" y="-12"/>
			<point x="342.019" y="11"/>
			<point x="347.019" y="35" type="curve" smooth="yes"/>
			<point x="355.019" y="74"/>
			<point x="377.019" y="209"/>
			<point x="383.019" y="239" type="curve" smooth="yes"/>
			<point x="407.019" y="358"/>
			<point x="443.019" y="435"/>
			<point x="449.019" y="463" type="curve" smooth="yes"/>
			<point x="453.019" y="487"/>
			<point x="449.019" y="500"/>
			<point x="433.019" y="500" type="curve" smooth="yes"/>
			<point x="408.019" y="500"/>
			<point x="387.019" y="463"/>
			<point x="379.019" y="441" type="curve" smooth="yes"/>
			<point x="359.019" y="381"/>
			<point x="343.019" y="320"/>
			<point x="332.019" y="267" type="curve" smooth="yes"/>
			<point x="316.019" y="184"/>
			<point x="299.019" y="130"/>
		</contour>
	</outline>
	<guideline x="38.792" y="263" angle="90" identifier="ZhgPyHPIJZ"/>
	<guideline x="41.792" y="278" angle="90" identifier="9Q6cXVobin"/>
</glyph>
<glyph name="zetailcyr" format="2">
	<unicode hex="0499"/>
	<advance width="487"/>
	<outline>
		<contour>
			<point x="123" y="-101" type="curve" smooth="yes"/>
			<point x="116" y="-134"/>
			<point x="125" y="-171"/>
			<point x="159" y="-171" type="curve" smooth="yes"/>
			<point x="173" y="-171"/>
			<point x="185" y="-157"/>
			<point x="189" y="-137" type="curve" smooth="yes"/>
			<point x="194" y="-109"/>
			<point x="202" y="-56"/>
			<point x="213" y="2" type="curve" smooth="yes"/>
			<point x="219" y="31"/>
			<point x="210" y="44"/>
			<point x="193" y="44" type="curve" smooth="yes"/>
			<point x="159" y="44"/>
			<point x="136" y="-33"/>
		</contour>
		<component base="zecyr"/>
	</outline>
	<anchor name="top" x="275.793" y="485"/>
</glyph>
<glyph name="katailcyr" format="2">
	<unicode hex="049B"/>
	<advance width="537"/>
	<outline>
		<contour>
			<point x="111.005" y="20" type="curve" smooth="yes"/>
			<point x="114.005" y="37"/>
			<point x="115.005" y="119"/>
			<point x="136.005" y="225" type="curve" smooth="yes"/>
			<point x="148.005" y="284"/>
			<point x="179.005" y="382"/>
			<point x="189.005" y="428" type="curve" smooth="yes"/>
			<point x="198.005" y="474"/>
			<point x="177.005" y="499"/>
			<point x="152.005" y="499" type="curve" smooth="yes"/>
			<point x="135.005" y="499"/>
			<point x="127.005" y="478"/>
			<point x="119.005" y="441" type="curve" smooth="yes"/>
			<point x="104.005" y="363"/>
			<point x="80.005" y="277"/>
			<point x="70.005" y="225" type="curve" smooth="yes"/>
			<point x="40.005" y="77"/>
			<point x="33.005" y="-10"/>
			<point x="79.005" y="-10" type="curve" smooth="yes"/>
			<point x="96.005" y="-10"/>
			<point x="107.005" y="2"/>
		</contour>
		<contour>
			<point x="408.005" y="55" type="curve" smooth="yes"/>
			<point x="352.005" y="55"/>
			<point x="219.005" y="195"/>
			<point x="230.005" y="248" type="curve" smooth="yes"/>
			<point x="234.005" y="269"/>
			<point x="314.005" y="344"/>
			<point x="427.005" y="411" type="curve" smooth="yes"/>
			<point x="468.005" y="435"/>
			<point x="505.005" y="452"/>
			<point x="510.005" y="476" type="curve" smooth="yes"/>
			<point x="513.005" y="491"/>
			<point x="505.005" y="499"/>
			<point x="492.005" y="499" type="curve" smooth="yes"/>
			<point x="416.005" y="499"/>
			<point x="210.005" y="322"/>
			<point x="172.005" y="268" type="curve" smooth="yes"/>
			<point x="166.005" y="261"/>
			<point x="163.005" y="253"/>
			<point x="161.005" y="246" type="curve" smooth="yes"/>
			<point x="159.005" y="234"/>
			<point x="162.005" y="220"/>
			<point x="170.005" y="200" type="curve" smooth="yes"/>
			<point x="217.005" y="95"/>
			<point x="314.005" y="-7"/>
			<point x="405.005" y="-7" type="curve" smooth="yes"/>
			<point x="419.005" y="-7"/>
			<point x="430.005" y="2"/>
			<point x="447.005" y="20" type="curve"/>
			<point x="431.005" y="37" type="line"/>
			<point x="395.005" y="-6"/>
			<point x="380.005" y="-67"/>
			<point x="376.005" y="-87" type="curve" smooth="yes"/>
			<point x="371.005" y="-110"/>
			<point x="377.005" y="-141"/>
			<point x="403.005" y="-141" type="curve" smooth="yes"/>
			<point x="416.005" y="-141"/>
			<point x="428.005" y="-125"/>
			<point x="435.005" y="-99" type="curve" smooth="yes"/>
			<point x="453.005" y="-37"/>
			<point x="484.005" y="26"/>
			<point x="490.005" y="55" type="curve" smooth="yes"/>
			<point x="495.005" y="79"/>
			<point x="483.005" y="89"/>
			<point x="473.005" y="89" type="curve" smooth="yes"/>
			<point x="446.005" y="89"/>
			<point x="419.005" y="55"/>
		</contour>
	</outline>
	<guideline x="38.792" y="263" angle="90" identifier="AEoq2U1whz"/>
	<guideline x="41.792" y="278" angle="90" identifier="lAjk0U2JTq"/>
</glyph>
<glyph name="Entailcyr" format="2">
	<unicode hex="04A2"/>
	<advance width="766"/>
	<outline>
		<contour>
			<point x="571.532" y="-121" type="curve" smooth="yes"/>
			<point x="565.532" y="-150"/>
			<point x="571.532" y="-177"/>
			<point x="596.532" y="-177" type="curve" smooth="yes"/>
			<point x="613.532" y="-177"/>
			<point x="622.532" y="-161"/>
			<point x="629.532" y="-138" type="curve" smooth="yes"/>
			<point x="652.532" y="-69"/>
			<point x="690.532" y="14"/>
			<point x="696.532" y="47" type="curve" smooth="yes"/>
			<point x="700.532" y="67"/>
			<point x="693.532" y="76"/>
			<point x="672.532" y="76" type="curve" smooth="yes"/>
			<point x="654.532" y="76"/>
			<point x="624.532" y="52"/>
			<point x="601.532" y="52" type="curve" smooth="yes"/>
			<point x="571.532" y="52"/>
			<point x="563.532" y="79"/>
			<point x="587.532" y="199" type="curve" smooth="yes"/>
			<point x="617.532" y="349"/>
			<point x="665.532" y="519"/>
			<point x="684.532" y="614" type="curve" smooth="yes"/>
			<point x="695.532" y="672"/>
			<point x="683.532" y="704"/>
			<point x="663.532" y="704" type="curve" smooth="yes"/>
			<point x="648.532" y="704"/>
			<point x="633.532" y="693"/>
			<point x="628.532" y="668" type="curve" smooth="yes"/>
			<point x="603.532" y="547"/>
			<point x="552.532" y="360"/>
			<point x="514.532" y="171" type="curve" smooth="yes"/>
			<point x="491.532" y="53"/>
			<point x="510.532" y="-11"/>
			<point x="573.532" y="-11" type="curve" smooth="yes"/>
			<point x="609.532" y="-11"/>
			<point x="628.532" y="3"/>
			<point x="648.532" y="19" type="curve"/>
			<point x="622.532" y="24" type="line"/>
			<point x="601.532" y="-22"/>
			<point x="578.532" y="-87"/>
		</contour>
		<contour>
			<point x="74.532" y="342" type="curve" smooth="yes"/>
			<point x="71.532" y="323"/>
			<point x="80.532" y="309"/>
			<point x="119.532" y="309" type="curve" smooth="yes"/>
			<point x="193.532" y="309"/>
			<point x="321.532" y="342"/>
			<point x="658.532" y="342" type="curve" smooth="yes"/>
			<point x="684.532" y="342"/>
			<point x="703.532" y="353"/>
			<point x="706.532" y="371" type="curve" smooth="yes"/>
			<point x="709.532" y="384"/>
			<point x="697.532" y="405"/>
			<point x="652.532" y="405" type="curve" smooth="yes"/>
			<point x="473.532" y="405"/>
			<point x="305.532" y="394"/>
			<point x="112.532" y="371" type="curve" smooth="yes"/>
			<point x="87.532" y="368"/>
			<point x="77.532" y="353"/>
		</contour>
		<contour>
			<point x="112.532" y="-12" type="curve" smooth="yes"/>
			<point x="126.532" y="-12"/>
			<point x="139.532" y="1"/>
			<point x="142.532" y="16" type="curve" smooth="yes"/>
			<point x="172.532" y="167"/>
			<point x="221.532" y="386"/>
			<point x="266.532" y="610" type="curve" smooth="yes"/>
			<point x="279.532" y="677"/>
			<point x="269.532" y="709"/>
			<point x="247.532" y="709" type="curve" smooth="yes"/>
			<point x="228.532" y="709"/>
			<point x="217.532" y="698"/>
			<point x="212.532" y="674" type="curve" smooth="yes"/>
			<point x="151.532" y="370"/>
			<point x="124.532" y="259"/>
			<point x="87.532" y="75" type="curve" smooth="yes"/>
			<point x="74.532" y="10"/>
			<point x="92.532" y="-12"/>
		</contour>
	</outline>
</glyph>
<glyph name="entailcyr" format="2">
	<unicode hex="04A3"/>
	<advance width="612"/>
	<outline>
		<contour>
			<point x="107.186" y="13" type="curve" smooth="yes"/>
			<point x="111.186" y="36"/>
			<point x="115.186" y="106"/>
			<point x="133.186" y="193" type="curve" smooth="yes"/>
			<point x="144.186" y="250"/>
			<point x="178.186" y="374"/>
			<point x="189.186" y="432" type="curve" smooth="yes"/>
			<point x="199.186" y="482"/>
			<point x="184.186" y="503"/>
			<point x="162.186" y="503" type="curve" smooth="yes"/>
			<point x="147.186" y="503"/>
			<point x="134.186" y="486"/>
			<point x="129.186" y="458" type="curve" smooth="yes"/>
			<point x="115.186" y="390"/>
			<point x="93.186" y="293"/>
			<point x="76.186" y="215" type="curve"/>
			<point x="117.186" y="212" type="line"/>
			<point x="228.186" y="212"/>
			<point x="367.186" y="218"/>
			<point x="467.186" y="253" type="curve"/>
			<point x="462.186" y="309" type="line"/>
			<point x="370.186" y="280"/>
			<point x="269.186" y="272"/>
			<point x="172.186" y="272" type="curve" smooth="yes"/>
			<point x="140.186" y="272"/>
			<point x="119.186" y="272"/>
			<point x="106.186" y="266" type="curve" smooth="yes"/>
			<point x="80.186" y="254"/>
			<point x="66.186" y="223"/>
			<point x="52.186" y="157" type="curve" smooth="yes"/>
			<point x="32.186" y="55"/>
			<point x="41.186" y="-11"/>
			<point x="83.186" y="-11" type="curve" smooth="yes"/>
			<point x="95.186" y="-11"/>
			<point x="104.186" y="-1"/>
		</contour>
		<contour>
			<point x="447.186" y="-8" type="curve" smooth="yes"/>
			<point x="473.186" y="-8"/>
			<point x="492.186" y="1"/>
			<point x="517.186" y="21" type="curve"/>
			<point x="508.186" y="39" type="line"/>
			<point x="477.186" y="-4"/>
			<point x="453.186" y="-63"/>
			<point x="449.186" y="-87" type="curve" smooth="yes"/>
			<point x="444.186" y="-110"/>
			<point x="450.186" y="-141"/>
			<point x="476.186" y="-141" type="curve" smooth="yes"/>
			<point x="489.186" y="-141"/>
			<point x="500.186" y="-125"/>
			<point x="508.186" y="-99" type="curve" smooth="yes"/>
			<point x="529.186" y="-34"/>
			<point x="558.186" y="19"/>
			<point x="564.186" y="51" type="curve" smooth="yes"/>
			<point x="569.186" y="75"/>
			<point x="557.186" y="85"/>
			<point x="547.186" y="85" type="curve" smooth="yes"/>
			<point x="526.186" y="85"/>
			<point x="501.186" y="56"/>
			<point x="473.186" y="56" type="curve" smooth="yes"/>
			<point x="444.186" y="56"/>
			<point x="443.186" y="125"/>
			<point x="465.186" y="233" type="curve" smooth="yes"/>
			<point x="491.186" y="366"/>
			<point x="517.186" y="392"/>
			<point x="528.186" y="443" type="curve" smooth="yes"/>
			<point x="534.186" y="474"/>
			<point x="527.186" y="500"/>
			<point x="503.186" y="500" type="curve" smooth="yes"/>
			<point x="486.186" y="500"/>
			<point x="476.186" y="473"/>
			<point x="466.186" y="448" type="curve" smooth="yes"/>
			<point x="448.186" y="405"/>
			<point x="420.186" y="336"/>
			<point x="395.186" y="208" type="curve" smooth="yes"/>
			<point x="370.186" y="86"/>
			<point x="387.186" y="-8"/>
		</contour>
	</outline>
	<guideline x="38.792" y="263" angle="90" identifier="rQENFQOEUJ"/>
	<guideline x="41.792" y="278" angle="90" identifier="rKZszPBnKc"/>
	<guideline x="38.792" y="263" angle="90" identifier="5E34WgFDuY"/>
	<guideline x="41.792" y="278" angle="90" identifier="Kcc90PHHKR"/>
	<guideline x="38.792" y="263" angle="90" identifier="zF1gezmNwb"/>
	<guideline x="41.792" y="278" angle="90" identifier="GTqYHIda0t"/>
</glyph>
<glyph name="Engecyr" format="2">
	<unicode hex="04A4"/>
	<advance width="932"/>
	<outline>
		<contour>
			<point x="119.532" y="309" type="curve" smooth="yes"/>
			<point x="190.532" y="309"/>
			<point x="311.532" y="332"/>
			<point x="634.532" y="332" type="curve" smooth="yes"/>
			<point x="660.532" y="332"/>
			<point x="679.532" y="343"/>
			<point x="682.532" y="361" type="curve" smooth="yes"/>
			<point x="685.532" y="374"/>
			<point x="673.532" y="395"/>
			<point x="628.532" y="395" type="curve" smooth="yes"/>
			<point x="456.532" y="395"/>
			<point x="295.532" y="387"/>
			<point x="112.532" y="371" type="curve" smooth="yes"/>
			<point x="87.532" y="368"/>
			<point x="77.532" y="353"/>
			<point x="74.532" y="342" type="curve" smooth="yes"/>
			<point x="71.532" y="323"/>
			<point x="80.532" y="309"/>
		</contour>
		<contour>
			<point x="688.532" y="656" type="curve"/>
			<point x="616.532" y="653" type="line"/>
			<point x="587.532" y="556"/>
			<point x="565.532" y="446"/>
			<point x="546.532" y="350" type="curve" smooth="yes"/>
			<point x="517.532" y="205"/>
			<point x="503.532" y="86"/>
			<point x="501.532" y="57" type="curve" smooth="yes"/>
			<point x="502.532" y="24"/>
			<point x="505.532" y="-8"/>
			<point x="529.532" y="-8" type="curve" smooth="yes"/>
			<point x="548.532" y="-8"/>
			<point x="564.532" y="8"/>
			<point x="568.532" y="31" type="curve" smooth="yes"/>
			<point x="575.532" y="63"/>
			<point x="578.532" y="162"/>
			<point x="617.532" y="353" type="curve" smooth="yes"/>
			<point x="636.532" y="449"/>
			<point x="660.532" y="564"/>
		</contour>
		<contour>
			<point x="622.532" y="701" type="curve" smooth="yes"/>
			<point x="578.532" y="698"/>
			<point x="561.532" y="691"/>
			<point x="558.532" y="674" type="curve" smooth="yes"/>
			<point x="554.532" y="656"/>
			<point x="566.532" y="637"/>
			<point x="596.532" y="637" type="curve" smooth="yes"/>
			<point x="626.532" y="637"/>
			<point x="703.532" y="643"/>
			<point x="784.532" y="643" type="curve" smooth="yes"/>
			<point x="832.532" y="643"/>
			<point x="894.532" y="643"/>
			<point x="945.532" y="643" type="curve" smooth="yes"/>
			<point x="987.532" y="643"/>
			<point x="1013.532" y="656"/>
			<point x="1018.532" y="681" type="curve" smooth="yes"/>
			<point x="1021.532" y="694"/>
			<point x="1013.532" y="705"/>
			<point x="957.532" y="705" type="curve" smooth="yes"/>
			<point x="830.532" y="705"/>
			<point x="664.532" y="703"/>
		</contour>
		<contour>
			<point x="112.532" y="-12" type="curve" smooth="yes"/>
			<point x="126.532" y="-12"/>
			<point x="139.532" y="1"/>
			<point x="142.532" y="16" type="curve" smooth="yes"/>
			<point x="172.532" y="167"/>
			<point x="221.532" y="386"/>
			<point x="266.532" y="610" type="curve" smooth="yes"/>
			<point x="279.532" y="677"/>
			<point x="269.532" y="709"/>
			<point x="247.532" y="709" type="curve" smooth="yes"/>
			<point x="228.532" y="709"/>
			<point x="217.532" y="698"/>
			<point x="212.532" y="674" type="curve" smooth="yes"/>
			<point x="151.532" y="370"/>
			<point x="124.532" y="259"/>
			<point x="87.532" y="75" type="curve" smooth="yes"/>
			<point x="74.532" y="10"/>
			<point x="92.532" y="-12"/>
		</contour>
	</outline>
</glyph>
<glyph name="engecyr" format="2">
	<unicode hex="04A5"/>
	<advance width="759"/>
	<outline>
		<contour>
			<point x="107.186" y="13" type="curve" smooth="yes"/>
			<point x="111.186" y="36"/>
			<point x="115.186" y="106"/>
			<point x="133.186" y="193" type="curve" smooth="yes"/>
			<point x="144.186" y="250"/>
			<point x="178.186" y="374"/>
			<point x="189.186" y="432" type="curve" smooth="yes"/>
			<point x="199.186" y="482"/>
			<point x="184.186" y="503"/>
			<point x="162.186" y="503" type="curve" smooth="yes"/>
			<point x="147.186" y="503"/>
			<point x="134.186" y="486"/>
			<point x="129.186" y="458" type="curve" smooth="yes"/>
			<point x="115.186" y="390"/>
			<point x="93.186" y="293"/>
			<point x="76.186" y="215" type="curve"/>
			<point x="117.186" y="212" type="line"/>
			<point x="232.186" y="212"/>
			<point x="375.186" y="219"/>
			<point x="478.186" y="257" type="curve"/>
			<point x="462.186" y="309" type="line"/>
			<point x="370.186" y="280"/>
			<point x="269.186" y="272"/>
			<point x="172.186" y="272" type="curve" smooth="yes"/>
			<point x="140.186" y="272"/>
			<point x="119.186" y="272"/>
			<point x="106.186" y="266" type="curve" smooth="yes"/>
			<point x="80.186" y="254"/>
			<point x="66.186" y="223"/>
			<point x="52.186" y="157" type="curve" smooth="yes"/>
			<point x="32.186" y="55"/>
			<point x="41.186" y="-11"/>
			<point x="83.186" y="-11" type="curve" smooth="yes"/>
			<point x="95.186" y="-11"/>
			<point x="104.186" y="-1"/>
		</contour>
		<contour>
			<point x="391.186" y="79" type="curve" smooth="yes"/>
			<point x="389.186" y="29"/>
			<point x="404.186" y="-10"/>
			<point x="433.186" y="-10" type="curve" smooth="yes"/>
			<point x="445.186" y="-10"/>
			<point x="456.186" y="-1"/>
			<point x="459.186" y="16" type="curve" smooth="yes"/>
			<point x="463.186" y="34"/>
			<point x="459.186" y="134"/>
			<point x="477.186" y="226" type="curve" smooth="yes"/>
			<point x="497.186" y="326"/>
			<point x="512.186" y="387"/>
			<point x="530.186" y="440" type="curve"/>
			<point x="495.186" y="417" type="line"/>
			<point x="540.186" y="427"/>
			<point x="570.186" y="432"/>
			<point x="623.186" y="432" type="curve" smooth="yes"/>
			<point x="684.186" y="432"/>
			<point x="698.186" y="426"/>
			<point x="737.186" y="426" type="curve" smooth="yes"/>
			<point x="766.186" y="426"/>
			<point x="795.186" y="434"/>
			<point x="799.186" y="456" type="curve" smooth="yes"/>
			<point x="801.186" y="467"/>
			<point x="794.186" y="477"/>
			<point x="782.186" y="481" type="curve" smooth="yes"/>
			<point x="758.186" y="489"/>
			<point x="701.186" y="494"/>
			<point x="655.186" y="494" type="curve" smooth="yes"/>
			<point x="610.186" y="494"/>
			<point x="562.186" y="491"/>
			<point x="520.186" y="484" type="curve" smooth="yes"/>
			<point x="478.186" y="477"/>
			<point x="457.186" y="447"/>
			<point x="446.186" y="388" type="curve" smooth="yes"/>
			<point x="433.186" y="327"/>
			<point x="393.186" y="139"/>
		</contour>
	</outline>
</glyph>
<glyph name="Estailcyr" format="2">
	<unicode hex="04AA"/>
	<advance width="618"/>
	<outline>
		<contour>
			<point x="242.168" y="13" type="curve" smooth="yes"/>
			<point x="236.168" y="-17"/>
			<point x="213.168" y="-92"/>
			<point x="206.168" y="-127" type="curve" smooth="yes"/>
			<point x="199.168" y="-160"/>
			<point x="209.168" y="-197"/>
			<point x="243.168" y="-197" type="curve" smooth="yes"/>
			<point x="258.168" y="-197"/>
			<point x="271.168" y="-180"/>
			<point x="274.168" y="-163" type="curve" smooth="yes"/>
			<point x="280.168" y="-135"/>
			<point x="289.168" y="-67"/>
			<point x="302.168" y="2" type="curve" smooth="yes"/>
			<point x="308.168" y="31"/>
			<point x="300.168" y="44"/>
			<point x="285.168" y="44" type="curve" smooth="yes"/>
			<point x="269.168" y="44"/>
			<point x="245.168" y="32"/>
		</contour>
		<component base="C" xOffset="-0.624"/>
	</outline>
	<anchor name="bottom" x="283.168" y="0"/>
	<anchor name="top" x="466.169" y="700"/>
</glyph>
<glyph name="Ustraightcyr" format="2">
	<unicode hex="04AE"/>
	<advance width="552"/>
	<outline>
		<contour>
			<point x="507.768" y="545" type="curve" smooth="yes"/>
			<point x="565.768" y="612"/>
			<point x="627.768" y="670"/>
			<point x="631.768" y="692" type="curve" smooth="yes"/>
			<point x="634.768" y="705"/>
			<point x="624.768" y="713"/>
			<point x="612.768" y="713" type="curve" smooth="yes"/>
			<point x="595.768" y="713"/>
			<point x="577.768" y="704"/>
			<point x="552.768" y="682" type="curve" smooth="yes"/>
			<point x="479.768" y="615"/>
			<point x="350.768" y="449"/>
			<point x="293.768" y="355" type="curve" smooth="yes"/>
			<point x="245.768" y="276"/>
			<point x="223.768" y="203"/>
			<point x="209.768" y="135" type="curve" smooth="yes"/>
			<point x="192.768" y="49"/>
			<point x="186.768" y="-12"/>
			<point x="218.768" y="-12" type="curve" smooth="yes"/>
			<point x="232.768" y="-12"/>
			<point x="249.768" y="0"/>
			<point x="256.768" y="37" type="curve" smooth="yes"/>
			<point x="277.768" y="140"/>
			<point x="289.768" y="220"/>
			<point x="320.768" y="286" type="curve" smooth="yes"/>
			<point x="347.768" y="344"/>
			<point x="425.768" y="452"/>
		</contour>
		<contour>
			<point x="182.768" y="620" type="curve" smooth="yes"/>
			<point x="162.768" y="672"/>
			<point x="161.768" y="705"/>
			<point x="139.768" y="705" type="curve" smooth="yes"/>
			<point x="124.768" y="705"/>
			<point x="109.768" y="686"/>
			<point x="104.768" y="658" type="curve" smooth="yes"/>
			<point x="98.768" y="628"/>
			<point x="108.768" y="598"/>
			<point x="123.768" y="568" type="curve" smooth="yes"/>
			<point x="169.768" y="475"/>
			<point x="194.768" y="462"/>
			<point x="257.768" y="305" type="curve" smooth="yes"/>
			<point x="266.768" y="282"/>
			<point x="269.768" y="268"/>
			<point x="285.768" y="268" type="curve" smooth="yes"/>
			<point x="298.768" y="268"/>
			<point x="309.768" y="282"/>
			<point x="312.768" y="296" type="curve" smooth="yes"/>
			<point x="315.768" y="312"/>
			<point x="315.768" y="327"/>
			<point x="311.768" y="340" type="curve" smooth="yes"/>
			<point x="263.768" y="488"/>
			<point x="221.768" y="516"/>
		</contour>
	</outline>
</glyph>
<glyph name="Ustraightstrokecyr" format="2">
	<unicode hex="04B0"/>
	<advance width="552"/>
	<outline>
		<contour>
			<point x="170.469" y="276" type="curve" smooth="yes"/>
			<point x="219.469" y="276"/>
			<point x="341.469" y="288"/>
			<point x="477.469" y="288" type="curve" smooth="yes"/>
			<point x="501.469" y="288"/>
			<point x="516.469" y="298"/>
			<point x="518.469" y="310" type="curve" smooth="yes"/>
			<point x="521.469" y="325"/>
			<point x="501.469" y="346"/>
			<point x="416.469" y="346" type="curve" smooth="yes"/>
			<point x="350.469" y="346"/>
			<point x="201.469" y="337"/>
			<point x="128.469" y="333" type="curve" smooth="yes"/>
			<point x="100.469" y="331"/>
			<point x="87.469" y="321"/>
			<point x="85.469" y="308" type="curve" smooth="yes"/>
			<point x="81.469" y="290"/>
			<point x="102.469" y="276"/>
		</contour>
		<component base="Ustraightcyr" xOffset="-0.323"/>
	</outline>
</glyph>
<glyph name="xatailcyr" format="2">
	<unicode hex="04B3"/>
	<advance width="542"/>
	<outline>
		<contour>
			<point x="415.301" y="57" type="curve" smooth="yes"/>
			<point x="394.301" y="57"/>
			<point x="335.301" y="106"/>
			<point x="262.301" y="237" type="curve" smooth="yes"/>
			<point x="183.301" y="370"/>
			<point x="159.301" y="490"/>
			<point x="133.301" y="490" type="curve" smooth="yes"/>
			<point x="116.301" y="490"/>
			<point x="103.301" y="474"/>
			<point x="99.301" y="454" type="curve" smooth="yes"/>
			<point x="90.301" y="409"/>
			<point x="171.301" y="249"/>
			<point x="208.301" y="187" type="curve" smooth="yes"/>
			<point x="259.301" y="105"/>
			<point x="331.301" y="-6"/>
			<point x="395.301" y="-6" type="curve" smooth="yes"/>
			<point x="414.301" y="-6"/>
			<point x="428.301" y="3"/>
			<point x="448.301" y="21" type="curve"/>
			<point x="429.301" y="29" type="line"/>
			<point x="397.301" y="-19"/>
			<point x="385.301" y="-65"/>
			<point x="381.301" y="-87" type="curve" smooth="yes"/>
			<point x="376.301" y="-110"/>
			<point x="382.301" y="-141"/>
			<point x="408.301" y="-141" type="curve" smooth="yes"/>
			<point x="421.301" y="-141"/>
			<point x="433.301" y="-125"/>
			<point x="440.301" y="-99" type="curve" smooth="yes"/>
			<point x="459.301" y="-30"/>
			<point x="485.301" y="25"/>
			<point x="492.301" y="58" type="curve" smooth="yes"/>
			<point x="496.301" y="82"/>
			<point x="484.301" y="92"/>
			<point x="474.301" y="92" type="curve" smooth="yes"/>
			<point x="449.301" y="92"/>
			<point x="424.301" y="57"/>
		</contour>
		<contour>
			<point x="492.301" y="426" type="curve" smooth="yes"/>
			<point x="518.301" y="442"/>
			<point x="530.301" y="454"/>
			<point x="533.301" y="470" type="curve" smooth="yes"/>
			<point x="536.301" y="487"/>
			<point x="529.301" y="497"/>
			<point x="514.301" y="497" type="curve" smooth="yes"/>
			<point x="491.301" y="497"/>
			<point x="452.301" y="482"/>
			<point x="384.301" y="428" type="curve" smooth="yes"/>
			<point x="195.301" y="282"/>
			<point x="42.301" y="127"/>
			<point x="1.301" y="58" type="curve" smooth="yes"/>
			<point x="-9.699" y="41"/>
			<point x="-13.699" y="29"/>
			<point x="-15.699" y="20" type="curve" smooth="yes"/>
			<point x="-20.699" y="-5"/>
			<point x="-10.699" y="-13"/>
			<point x="4.301" y="-13" type="curve" smooth="yes"/>
			<point x="15.301" y="-13"/>
			<point x="32.301" y="-2"/>
			<point x="44.301" y="16" type="curve" smooth="yes"/>
			<point x="156.301" y="175"/>
			<point x="330.301" y="327"/>
		</contour>
	</outline>
	<guideline x="38.792" y="263" angle="90" identifier="GUBu2fdSLX"/>
	<guideline x="41.792" y="278" angle="90" identifier="fGabLEmAux"/>
</glyph>
<glyph name="Chetailcyr" format="2">
	<unicode hex="04B6"/>
	<advance width="633"/>
	<outline>
		<contour>
			<point x="449.344" y="-11" type="curve" smooth="yes"/>
			<point x="485.344" y="-11"/>
			<point x="504.344" y="3"/>
			<point x="524.344" y="19" type="curve"/>
			<point x="498.344" y="24" type="line"/>
			<point x="477.344" y="-22"/>
			<point x="454.344" y="-87"/>
			<point x="447.344" y="-121" type="curve" smooth="yes"/>
			<point x="441.344" y="-150"/>
			<point x="447.344" y="-177"/>
			<point x="472.344" y="-177" type="curve" smooth="yes"/>
			<point x="489.344" y="-177"/>
			<point x="498.344" y="-161"/>
			<point x="505.344" y="-138" type="curve" smooth="yes"/>
			<point x="528.344" y="-69"/>
			<point x="566.344" y="14"/>
			<point x="572.344" y="47" type="curve" smooth="yes"/>
			<point x="576.344" y="67"/>
			<point x="569.344" y="76"/>
			<point x="548.344" y="76" type="curve" smooth="yes"/>
			<point x="530.344" y="76"/>
			<point x="499.344" y="50"/>
			<point x="476.344" y="50" type="curve" smooth="yes"/>
			<point x="460.344" y="50"/>
			<point x="448.344" y="78"/>
			<point x="472.344" y="199" type="curve" smooth="yes"/>
			<point x="526.344" y="468"/>
			<point x="598.344" y="590"/>
			<point x="607.344" y="637" type="curve" smooth="yes"/>
			<point x="614.344" y="671"/>
			<point x="611.344" y="706"/>
			<point x="584.344" y="706" type="curve" smooth="yes"/>
			<point x="558.344" y="706"/>
			<point x="532.344" y="625"/>
			<point x="493.344" y="549" type="curve" smooth="yes"/>
			<point x="439.344" y="449"/>
			<point x="326.344" y="321"/>
			<point x="222.344" y="321" type="curve" smooth="yes"/>
			<point x="165.344" y="321"/>
			<point x="164.344" y="384"/>
			<point x="175.344" y="438" type="curve" smooth="yes"/>
			<point x="189.344" y="511"/>
			<point x="219.344" y="596"/>
			<point x="228.344" y="642" type="curve" smooth="yes"/>
			<point x="237.344" y="683"/>
			<point x="221.344" y="712"/>
			<point x="200.344" y="712" type="curve" smooth="yes"/>
			<point x="176.344" y="712"/>
			<point x="164.344" y="669"/>
			<point x="156.344" y="631" type="curve" smooth="yes"/>
			<point x="143.344" y="567"/>
			<point x="120.344" y="498"/>
			<point x="107.344" y="435" type="curve" smooth="yes"/>
			<point x="89.344" y="344"/>
			<point x="98.344" y="252"/>
			<point x="204.344" y="252" type="curve" smooth="yes"/>
			<point x="286.344" y="252"/>
			<point x="395.344" y="312"/>
			<point x="497.344" y="447" type="curve"/>
			<point x="493.344" y="522" type="line"/>
			<point x="461.344" y="445"/>
			<point x="423.344" y="305"/>
			<point x="402.344" y="199" type="curve" smooth="yes"/>
			<point x="374.344" y="62"/>
			<point x="390.344" y="-11"/>
		</contour>
	</outline>
</glyph>
<glyph name="Chevertcyr" format="2">
	<unicode hex="04B8"/>
	<advance width="608"/>
	<outline>
		<contour>
			<point x="228.973" y="642" type="curve" smooth="yes"/>
			<point x="237.973" y="683"/>
			<point x="221.973" y="712"/>
			<point x="200.973" y="712" type="curve" smooth="yes"/>
			<point x="176.973" y="712"/>
			<point x="164.973" y="669"/>
			<point x="156.973" y="631" type="curve" smooth="yes"/>
			<point x="143.973" y="567"/>
			<point x="120.973" y="498"/>
			<point x="107.973" y="435" type="curve" smooth="yes"/>
			<point x="89.973" y="344"/>
			<point x="108.973" y="252"/>
			<point x="215.973" y="252" type="curve" smooth="yes"/>
			<point x="319.973" y="252"/>
			<point x="399.973" y="312"/>
			<point x="497.973" y="447" type="curve"/>
			<point x="493.973" y="522" type="line"/>
			<point x="463.973" y="452"/>
			<point x="428.973" y="325"/>
			<point x="409.973" y="229" type="curve" smooth="yes"/>
			<point x="398.973" y="173"/>
			<point x="388.973" y="95"/>
			<point x="390.973" y="46" type="curve" smooth="yes"/>
			<point x="392.973" y="7"/>
			<point x="407.973" y="-12"/>
			<point x="429.973" y="-12" type="curve" smooth="yes"/>
			<point x="442.973" y="-12"/>
			<point x="449.973" y="-5"/>
			<point x="453.973" y="15" type="curve" smooth="yes"/>
			<point x="460.973" y="51"/>
			<point x="456.973" y="118"/>
			<point x="480.973" y="238" type="curve" smooth="yes"/>
			<point x="529.973" y="483"/>
			<point x="599.973" y="594"/>
			<point x="607.973" y="637" type="curve" smooth="yes"/>
			<point x="614.973" y="671"/>
			<point x="611.973" y="706"/>
			<point x="584.973" y="706" type="curve" smooth="yes"/>
			<point x="558.973" y="706"/>
			<point x="532.973" y="625"/>
			<point x="493.973" y="549" type="curve" smooth="yes"/>
			<point x="440.973" y="449"/>
			<point x="357.973" y="321"/>
			<point x="232.973" y="321" type="curve" smooth="yes"/>
			<point x="167.973" y="321"/>
			<point x="164.973" y="384"/>
			<point x="175.973" y="438" type="curve" smooth="yes"/>
			<point x="189.973" y="511"/>
			<point x="219.973" y="596"/>
		</contour>
		<contour>
			<point x="296.973" y="510" type="curve" smooth="yes"/>
			<point x="273.973" y="510"/>
			<point x="262.973" y="478"/>
			<point x="253.973" y="434" type="curve" smooth="yes"/>
			<point x="241.973" y="375"/>
			<point x="208.973" y="281"/>
			<point x="193.973" y="204" type="curve" smooth="yes"/>
			<point x="185.973" y="165"/>
			<point x="183.973" y="108"/>
			<point x="212.973" y="108" type="curve" smooth="yes"/>
			<point x="229.973" y="108"/>
			<point x="241.973" y="129"/>
			<point x="245.973" y="148" type="curve" smooth="yes"/>
			<point x="251.973" y="182"/>
			<point x="271.973" y="274"/>
			<point x="278.973" y="312" type="curve" smooth="yes"/>
			<point x="287.973" y="353"/>
			<point x="312.973" y="418"/>
			<point x="319.973" y="453" type="curve" smooth="yes"/>
			<point x="326.973" y="488"/>
			<point x="313.973" y="510"/>
		</contour>
	</outline>
	<guideline x="545.792" y="346" angle="90" identifier="QSeZTfUsVl"/>
	<guideline x="491.792" y="356" angle="90" identifier="y4a83ysajM"/>
	<guideline x="499.792" y="417" angle="90" identifier="5MAjum6Wvb"/>
</glyph>
<glyph name="Shhacyr" format="2">
	<unicode hex="04BA"/>
	<advance width="642"/>
	<outline>
		<contour>
			<point x="464.753" y="69" type="curve" smooth="yes"/>
			<point x="466.753" y="23"/>
			<point x="489.753" y="-7"/>
			<point x="520.753" y="-7" type="curve" smooth="yes"/>
			<point x="534.753" y="-7"/>
			<point x="543.753" y="0"/>
			<point x="546.753" y="15" type="curve" smooth="yes"/>
			<point x="551.753" y="42"/>
			<point x="533.753" y="81"/>
			<point x="538.753" y="135" type="curve" smooth="yes"/>
			<point x="543.753" y="190"/>
			<point x="564.753" y="292"/>
			<point x="573.753" y="358" type="curve" smooth="yes"/>
			<point x="580.753" y="427"/>
			<point x="557.753" y="481"/>
			<point x="492.753" y="481" type="curve" smooth="yes"/>
			<point x="356.753" y="481"/>
			<point x="233.753" y="337"/>
			<point x="105.753" y="122" type="curve"/>
			<point x="115.753" y="109" type="line"/>
			<point x="119.753" y="122"/>
			<point x="178.753" y="297"/>
			<point x="214.753" y="473" type="curve" smooth="yes"/>
			<point x="225.753" y="529"/>
			<point x="236.753" y="594"/>
			<point x="235.753" y="653" type="curve" smooth="yes"/>
			<point x="234.753" y="690"/>
			<point x="224.753" y="708"/>
			<point x="202.753" y="708" type="curve" smooth="yes"/>
			<point x="191.753" y="708"/>
			<point x="177.753" y="683"/>
			<point x="169.753" y="646" type="curve" smooth="yes"/>
			<point x="162.753" y="610"/>
			<point x="159.753" y="538"/>
			<point x="138.753" y="437" type="curve" smooth="yes"/>
			<point x="115.753" y="318"/>
			<point x="65.753" y="160"/>
			<point x="48.753" y="73" type="curve" smooth="yes"/>
			<point x="38.753" y="27"/>
			<point x="49.753" y="-6"/>
			<point x="69.753" y="-6" type="curve" smooth="yes"/>
			<point x="107.753" y="-6"/>
			<point x="118.753" y="41"/>
			<point x="177.753" y="138" type="curve" smooth="yes"/>
			<point x="282.753" y="311"/>
			<point x="399.753" y="413"/>
			<point x="461.753" y="413" type="curve" smooth="yes"/>
			<point x="505.753" y="413"/>
			<point x="504.753" y="363"/>
			<point x="494.753" y="303" type="curve" smooth="yes"/>
			<point x="482.753" y="237"/>
			<point x="462.753" y="118"/>
		</contour>
	</outline>
</glyph>
<glyph name="Palochkacyr" format="2">
	<unicode hex="04C0"/>
	<advance width="278"/>
	<outline>
		<contour>
			<point x="101.254" y="-12" type="curve" smooth="yes"/>
			<point x="116.254" y="-12"/>
			<point x="129.254" y="4"/>
			<point x="134.254" y="30" type="curve" smooth="yes"/>
			<point x="146.254" y="89"/>
			<point x="189.254" y="338"/>
			<point x="237.254" y="580" type="curve" smooth="yes"/>
			<point x="255.254" y="670"/>
			<point x="242.254" y="709"/>
			<point x="213.254" y="709" type="curve" smooth="yes"/>
			<point x="197.254" y="709"/>
			<point x="187.254" y="696"/>
			<point x="181.254" y="665" type="curve" smooth="yes"/>
			<point x="171.254" y="616"/>
			<point x="136.254" y="389"/>
			<point x="102.254" y="219" type="curve" smooth="yes"/>
			<point x="94.254" y="178"/>
			<point x="76.254" y="85"/>
			<point x="72.254" y="67" type="curve" smooth="yes"/>
			<point x="62.254" y="14"/>
			<point x="76.254" y="-12"/>
		</contour>
	</outline>
</glyph>
<glyph name="Abrevecyr" format="2">
	<unicode hex="04D0"/>
	<advance width="713"/>
	<outline>
		<contour>
			<point x="525.675" y="841" type="curve" smooth="yes"/>
			<point x="486.675" y="841"/>
			<point x="471.675" y="857"/>
			<point x="461.675" y="884" type="curve" smooth="yes"/>
			<point x="449.675" y="914"/>
			<point x="441.675" y="940"/>
			<point x="423.675" y="940" type="curve" smooth="yes"/>
			<point x="404.675" y="940"/>
			<point x="388.675" y="926"/>
			<point x="384.675" y="904" type="curve" smooth="yes"/>
			<point x="375.675" y="858"/>
			<point x="413.675" y="777"/>
			<point x="506.675" y="777" type="curve" smooth="yes"/>
			<point x="594.675" y="777"/>
			<point x="678.675" y="844"/>
			<point x="687.675" y="891" type="curve" smooth="yes"/>
			<point x="690.675" y="904"/>
			<point x="685.675" y="915"/>
			<point x="674.675" y="915" type="curve" smooth="yes"/>
			<point x="653.675" y="915"/>
			<point x="630.675" y="891"/>
			<point x="601.675" y="870" type="curve" smooth="yes"/>
			<point x="580.675" y="853"/>
			<point x="552.675" y="841"/>
		</contour>
		<component base="A" xOffset="-1.117"/>
	</outline>
	<anchor name="bottom" x="304.558" y="0"/>
	<anchor name="ogonek" x="568.558" y="0"/>
	<anchor name="ring" x="490.359" y="699"/>
	<anchor name="top" x="490.559" y="700"/>
</glyph>
<glyph name="Obarcyr" format="2">
	<unicode hex="04E8"/>
	<advance width="726"/>
	<outline>
		<contour>
			<point x="128.628" y="298" type="line"/>
			<point x="292.628" y="329"/>
			<point x="470.628" y="278"/>
			<point x="615.628" y="288" type="curve"/>
			<point x="627.628" y="349" type="line"/>
			<point x="478.628" y="339"/>
			<point x="287.628" y="390"/>
			<point x="140.628" y="359" type="curve"/>
		</contour>
		<contour>
			<point x="340.628" y="567" type="curve" smooth="yes"/>
			<point x="371.628" y="584"/>
			<point x="394.628" y="605"/>
			<point x="382.628" y="630" type="curve" smooth="yes"/>
			<point x="376.628" y="644"/>
			<point x="367.628" y="645"/>
			<point x="359.628" y="645" type="curve" smooth="yes"/>
			<point x="325.628" y="645"/>
			<point x="125.628" y="519"/>
			<point x="79.628" y="290" type="curve" smooth="yes"/>
			<point x="47.628" y="131"/>
			<point x="115.628" y="-10"/>
			<point x="296.628" y="-10" type="curve" smooth="yes"/>
			<point x="484.628" y="-10"/>
			<point x="632.628" y="127"/>
			<point x="667.628" y="300" type="curve" smooth="yes"/>
			<point x="712.628" y="526"/>
			<point x="643.628" y="711"/>
			<point x="447.628" y="711" type="curve" smooth="yes"/>
			<point x="376.628" y="711"/>
			<point x="324.628" y="649"/>
			<point x="310.628" y="580" type="curve" smooth="yes"/>
			<point x="304.628" y="551"/>
			<point x="320.628" y="535"/>
			<point x="338.628" y="535" type="curve" smooth="yes"/>
			<point x="356.628" y="535"/>
			<point x="376.628" y="550"/>
			<point x="382.628" y="580" type="curve" smooth="yes"/>
			<point x="389.628" y="617"/>
			<point x="406.628" y="646"/>
			<point x="441.628" y="646" type="curve" smooth="yes"/>
			<point x="592.628" y="646"/>
			<point x="629.628" y="462"/>
			<point x="597.628" y="300" type="curve" smooth="yes"/>
			<point x="567.628" y="151"/>
			<point x="446.628" y="56"/>
			<point x="309.628" y="56" type="curve" smooth="yes"/>
			<point x="167.628" y="56"/>
			<point x="125.628" y="169"/>
			<point x="149.628" y="290" type="curve" smooth="yes"/>
			<point x="180.628" y="443"/>
			<point x="283.628" y="533"/>
		</contour>
	</outline>
</glyph>
<glyph name="getailcyr" format="2">
	<unicode hex="04F7"/>
	<advance width="422"/>
	<outline>
		<contour>
			<point x="109.714" y="56" type="curve" smooth="yes"/>
			<point x="88.714" y="56"/>
			<point x="111.714" y="142"/>
			<point x="128.714" y="226" type="curve" smooth="yes"/>
			<point x="148.714" y="326"/>
			<point x="163.714" y="387"/>
			<point x="181.714" y="440" type="curve"/>
			<point x="146.714" y="417" type="line"/>
			<point x="191.714" y="427"/>
			<point x="221.714" y="432"/>
			<point x="274.714" y="432" type="curve" smooth="yes"/>
			<point x="340.714" y="432"/>
			<point x="356.714" y="426"/>
			<point x="398.714" y="426" type="curve" smooth="yes"/>
			<point x="427.714" y="426"/>
			<point x="456.714" y="434"/>
			<point x="460.714" y="456" type="curve" smooth="yes"/>
			<point x="462.714" y="467"/>
			<point x="455.714" y="477"/>
			<point x="443.714" y="481" type="curve" smooth="yes"/>
			<point x="417.714" y="489"/>
			<point x="355.714" y="494"/>
			<point x="306.714" y="494" type="curve" smooth="yes"/>
			<point x="261.714" y="494"/>
			<point x="213.714" y="491"/>
			<point x="171.714" y="484" type="curve" smooth="yes"/>
			<point x="130.714" y="477"/>
			<point x="112.714" y="457"/>
			<point x="99.714" y="392" type="curve" smooth="yes"/>
			<point x="88.714" y="333"/>
			<point x="52.714" y="138"/>
			<point x="41.714" y="87" type="curve" smooth="yes"/>
			<point x="31.714" y="37"/>
			<point x="49.714" y="-6"/>
			<point x="89.714" y="-6" type="curve" smooth="yes"/>
			<point x="112.714" y="-6"/>
			<point x="127.714" y="-1"/>
			<point x="147.714" y="10" type="curve"/>
			<point x="138.714" y="39" type="line"/>
			<point x="114.714" y="-4"/>
			<point x="95.714" y="-55"/>
			<point x="89.714" y="-87" type="curve" smooth="yes"/>
			<point x="84.714" y="-110"/>
			<point x="90.714" y="-141"/>
			<point x="116.714" y="-141" type="curve" smooth="yes"/>
			<point x="129.714" y="-141"/>
			<point x="139.714" y="-131"/>
			<point x="148.714" y="-99" type="curve" smooth="yes"/>
			<point x="170.714" y="-25"/>
			<point x="187.714" y="4"/>
			<point x="194.714" y="40" type="curve" smooth="yes"/>
			<point x="199.714" y="64"/>
			<point x="187.714" y="74"/>
			<point x="177.714" y="74" type="curve" smooth="yes"/>
			<point x="157.714" y="74"/>
			<point x="136.714" y="56"/>
		</contour>
	</outline>
</glyph>
<glyph name="quoteleft" format="2">
	<unicode hex="2018"/>
	<advance width="212"/>
	<outline>
		<contour>
			<point x="327.18" y="809" type="curve" smooth="yes"/>
			<point x="308" y="809"/>
			<point x="292" y="804"/>
			<point x="254" y="766" type="curve" smooth="yes"/>
			<point x="184" y="694"/>
			<point x="128" y="601"/>
			<point x="113" y="527" type="curve" smooth="yes"/>
			<point x="106" y="489"/>
			<point x="117" y="455"/>
			<point x="145.18" y="455" type="curve" smooth="yes"/>
			<point x="164.18" y="455"/>
			<point x="177.18" y="469"/>
			<point x="200.18" y="524" type="curve" smooth="yes"/>
			<point x="223.18" y="580"/>
			<point x="257.18" y="646"/>
			<point x="327.18" y="713" type="curve" smooth="yes"/>
			<point x="353.18" y="738"/>
			<point x="357.18" y="746"/>
			<point x="359.18" y="755" type="curve" smooth="yes"/>
			<point x="365.18" y="779"/>
			<point x="355.18" y="809"/>
		</contour>
	</outline>
</glyph>
<glyph name="daggerdbl" format="2">
	<unicode hex="2021"/>
	<advance width="538"/>
	<outline>
		<contour>
			<point x="399.446" y="653" type="curve" smooth="yes"/>
			<point x="406.446" y="691"/>
			<point x="390.446" y="712"/>
			<point x="370.446" y="712" type="curve" smooth="yes"/>
			<point x="352.446" y="712"/>
			<point x="339.446" y="694"/>
			<point x="335.446" y="675" type="curve" smooth="yes"/>
			<point x="314.446" y="570"/>
			<point x="272.446" y="421"/>
			<point x="232.446" y="221" type="curve" smooth="yes"/>
			<point x="203.446" y="77"/>
			<point x="177.446" y="-41"/>
			<point x="165.446" y="-224" type="curve" smooth="yes"/>
			<point x="164.446" y="-246"/>
			<point x="173.446" y="-260"/>
			<point x="188.446" y="-260" type="curve" smooth="yes"/>
			<point x="201.446" y="-260"/>
			<point x="221.446" y="-250"/>
			<point x="228.446" y="-215" type="curve" smooth="yes"/>
			<point x="255.446" y="-82"/>
			<point x="246.446" y="-49"/>
			<point x="297.446" y="207" type="curve" smooth="yes"/>
			<point x="338.446" y="412"/>
			<point x="377.446" y="543"/>
		</contour>
		<contour>
			<point x="511.446" y="432" type="curve" smooth="yes"/>
			<point x="537.446" y="434"/>
			<point x="548.446" y="441"/>
			<point x="552.446" y="460" type="curve" smooth="yes"/>
			<point x="556.446" y="479"/>
			<point x="538.446" y="495"/>
			<point x="512.446" y="495" type="curve" smooth="yes"/>
			<point x="404.446" y="495"/>
			<point x="263.446" y="481"/>
			<point x="145.446" y="461" type="curve" smooth="yes"/>
			<point x="92.446" y="453"/>
			<point x="81.446" y="438"/>
			<point x="75.446" y="414" type="curve" smooth="yes"/>
			<point x="71.446" y="395"/>
			<point x="84.446" y="379"/>
			<point x="114.446" y="387" type="curve" smooth="yes"/>
			<point x="230.446" y="412"/>
			<point x="334.446" y="418"/>
		</contour>
		<contour>
			<point x="432.446" y="35" type="curve" smooth="yes"/>
			<point x="457.446" y="37"/>
			<point x="469.446" y="44"/>
			<point x="473.446" y="63" type="curve" smooth="yes"/>
			<point x="476.446" y="82"/>
			<point x="459.446" y="98"/>
			<point x="433.446" y="98" type="curve" smooth="yes"/>
			<point x="325.446" y="98"/>
			<point x="184.446" y="84"/>
			<point x="66.446" y="64" type="curve" smooth="yes"/>
			<point x="12.446" y="56"/>
			<point x="1.446" y="41"/>
			<point x="-4.554" y="17" type="curve" smooth="yes"/>
			<point x="-7.554" y="-2"/>
			<point x="4.446" y="-18"/>
			<point x="35.446" y="-10" type="curve" smooth="yes"/>
			<point x="151.446" y="15"/>
			<point x="254.446" y="21"/>
		</contour>
	</outline>
</glyph>
<glyph name="second" format="2">
	<unicode hex="2033"/>
	<advance width="419"/>
	<outline>
		<contour>
			<point x="114.892" y="425" type="curve" smooth="yes"/>
			<point x="133" y="425"/>
			<point x="148" y="434"/>
			<point x="166" y="459" type="curve" smooth="yes"/>
			<point x="203" y="515"/>
			<point x="237" y="602"/>
			<point x="249" y="661" type="curve" smooth="yes"/>
			<point x="258" y="704"/>
			<point x="239" y="717"/>
			<point x="214.892" y="717" type="curve" smooth="yes"/>
			<point x="193.892" y="717"/>
			<point x="181.892" y="704"/>
			<point x="175.892" y="675" type="curve" smooth="yes"/>
			<point x="141.892" y="507"/>
			<point x="103.892" y="491"/>
			<point x="95.892" y="449" type="curve" smooth="yes"/>
			<point x="91.892" y="432"/>
			<point x="101.892" y="425"/>
		</contour>
		<contour>
			<point x="322.892" y="425" type="curve" smooth="yes"/>
			<point x="341" y="425"/>
			<point x="356" y="434"/>
			<point x="374" y="459" type="curve" smooth="yes"/>
			<point x="411" y="515"/>
			<point x="445" y="602"/>
			<point x="457" y="661" type="curve" smooth="yes"/>
			<point x="466" y="704"/>
			<point x="447" y="717"/>
			<point x="422.892" y="717" type="curve" smooth="yes"/>
			<point x="401.892" y="717"/>
			<point x="389.892" y="704"/>
			<point x="383.892" y="675" type="curve" smooth="yes"/>
			<point x="349.892" y="507"/>
			<point x="311.892" y="491"/>
			<point x="303.892" y="449" type="curve" smooth="yes"/>
			<point x="299.892" y="432"/>
			<point x="309.892" y="425"/>
		</contour>
	</outline>
</glyph>
<glyph name="fraction" format="2">
	<unicode hex="2044"/>
	<advance width="220"/>
	<outline>
		<contour>
			<point x="621" y="661" type="curve" smooth="yes"/>
			<point x="697" y="712"/>
			<point x="662.531" y="737"/>
			<point x="643.531" y="737" type="curve" smooth="yes"/>
			<point x="622" y="737"/>
			<point x="603" y="730"/>
			<point x="576" y="713" type="curve" smooth="yes"/>
			<point x="259" y="514"/>
			<point x="13" y="275"/>
			<point x="-215" y="21" type="curve" smooth="yes"/>
			<point x="-238" y="-6"/>
			<point x="-227.469" y="-45"/>
			<point x="-203.469" y="-45" type="curve" smooth="yes"/>
			<point x="-190" y="-45"/>
			<point x="-173" y="-37"/>
			<point x="-156" y="-18" type="curve" smooth="yes"/>
			<point x="59" y="220"/>
			<point x="288" y="442"/>
		</contour>
	</outline>
</glyph>
<glyph name="rupee" format="2">
	<unicode hex="20A8"/>
	<advance width="909"/>
	<outline>
		<contour>
			<point x="566" y="-12" type="curve" smooth="yes"/>
			<point x="689" y="-12"/>
			<point x="805" y="35"/>
			<point x="824" y="123" type="curve" smooth="yes"/>
			<point x="854" y="271"/>
			<point x="647" y="253"/>
			<point x="644" y="338" type="curve"/>
			<point x="689" y="400"/>
			<point x="746" y="432"/>
			<point x="819" y="432" type="curve" smooth="yes"/>
			<point x="838" y="432"/>
			<point x="850" y="430"/>
			<point x="856" y="430" type="curve" smooth="yes"/>
			<point x="876" y="430"/>
			<point x="888" y="440"/>
			<point x="891" y="455" type="curve" smooth="yes"/>
			<point x="894" y="475"/>
			<point x="877" y="496"/>
			<point x="830" y="497" type="curve" smooth="yes"/>
			<point x="727" y="500"/>
			<point x="605" y="426"/>
			<point x="589" y="344" type="curve" smooth="yes"/>
			<point x="560" y="200"/>
			<point x="763" y="226"/>
			<point x="765" y="133" type="curve"/>
			<point x="735" y="70"/>
			<point x="659" y="50"/>
			<point x="566" y="50" type="curve" smooth="yes"/>
			<point x="426" y="50"/>
			<point x="308" y="129"/>
			<point x="259" y="232" type="curve"/>
			<point x="547" y="330"/>
			<point x="618" y="441"/>
			<point x="638" y="539" type="curve" smooth="yes"/>
			<point x="655" y="627"/>
			<point x="624" y="710"/>
			<point x="497" y="710" type="curve" smooth="yes"/>
			<point x="408" y="710"/>
			<point x="309" y="652"/>
			<point x="212" y="518" type="curve"/>
			<point x="215" y="598"/>
			<point x="193" y="631"/>
			<point x="169" y="631" type="curve" smooth="yes"/>
			<point x="139" y="631"/>
			<point x="132" y="613"/>
			<point x="140" y="570" type="curve" smooth="yes"/>
			<point x="156" y="495"/>
			<point x="152" y="453"/>
			<point x="146" y="405" type="curve"/>
			<point x="85" y="275"/>
			<point x="52" y="182"/>
			<point x="37" y="106" type="curve" smooth="yes"/>
			<point x="22" y="30"/>
			<point x="23" y="-13"/>
			<point x="54" y="-13" type="curve" smooth="yes"/>
			<point x="74" y="-13"/>
			<point x="85" y="-5"/>
			<point x="100" y="68" type="curve" smooth="yes"/>
			<point x="155" y="342"/>
			<point x="309" y="645"/>
			<point x="493" y="645" type="curve" smooth="yes"/>
			<point x="562" y="645"/>
			<point x="580" y="603"/>
			<point x="570" y="553" type="curve" smooth="yes"/>
			<point x="554" y="471"/>
			<point x="489" y="369"/>
			<point x="230" y="287" type="curve" smooth="yes"/>
			<point x="184" y="272"/>
			<point x="172" y="245"/>
			<point x="189" y="214" type="curve" smooth="yes"/>
			<point x="284" y="46"/>
			<point x="397" y="-12"/>
		</contour>
	</outline>
</glyph>
<glyph name="won" format="2">
	<unicode hex="20A9"/>
	<advance width="1000"/>
	<outline>
		<contour>
			<point x="261" y="632" type="curve" smooth="yes"/>
			<point x="272" y="687"/>
			<point x="275.716" y="712"/>
			<point x="244.716" y="712" type="curve" smooth="yes"/>
			<point x="220.716" y="712"/>
			<point x="205.716" y="688"/>
			<point x="200.716" y="663" type="curve" smooth="yes"/>
			<point x="161.716" y="468"/>
			<point x="159.716" y="168"/>
			<point x="197.716" y="49" type="curve" smooth="yes"/>
			<point x="212.716" y="2"/>
			<point x="230.716" y="-8"/>
			<point x="255.716" y="-8" type="curve" smooth="yes"/>
			<point x="280.716" y="-8"/>
			<point x="304.716" y="11"/>
			<point x="314.716" y="42" type="curve" smooth="yes"/>
			<point x="383.716" y="243"/>
			<point x="479.716" y="502"/>
			<point x="596.716" y="593" type="curve"/>
			<point x="576.716" y="596" type="line"/>
			<point x="641.716" y="498"/>
			<point x="556.716" y="178"/>
			<point x="603.716" y="60" type="curve" smooth="yes"/>
			<point x="630.716" y="-6"/>
			<point x="654.716" y="-12"/>
			<point x="681.716" y="-12" type="curve" smooth="yes"/>
			<point x="700.716" y="-12"/>
			<point x="718.716" y="1"/>
			<point x="743.716" y="42" type="curve" smooth="yes"/>
			<point x="832.716" y="188"/>
			<point x="892.716" y="476"/>
			<point x="964.716" y="621" type="curve" smooth="yes"/>
			<point x="993.716" y="680"/>
			<point x="991.716" y="712"/>
			<point x="966.716" y="712" type="curve" smooth="yes"/>
			<point x="943.716" y="712"/>
			<point x="931" y="705"/>
			<point x="907" y="661" type="curve" smooth="yes"/>
			<point x="828" y="504"/>
			<point x="771" y="198"/>
			<point x="675" y="58" type="curve"/>
			<point x="689" y="68" type="line"/>
			<point x="624" y="116"/>
			<point x="678" y="361"/>
			<point x="671" y="489" type="curve" smooth="yes"/>
			<point x="662" y="610"/>
			<point x="641" y="652"/>
			<point x="596" y="652" type="curve" smooth="yes"/>
			<point x="562" y="652"/>
			<point x="526" y="621"/>
			<point x="492" y="581" type="curve" smooth="yes"/>
			<point x="411" y="486"/>
			<point x="325" y="288"/>
			<point x="251" y="64" type="curve"/>
			<point x="265" y="62" type="line"/>
			<point x="226" y="242"/>
			<point x="235" y="488"/>
		</contour>
		<contour>
			<point x="113.716" y="358" type="curve" smooth="yes"/>
			<point x="86.716" y="356"/>
			<point x="69.716" y="342"/>
			<point x="66.716" y="326" type="curve" smooth="yes"/>
			<point x="62.716" y="303"/>
			<point x="75.716" y="288"/>
			<point x="99.716" y="288" type="curve" smooth="yes"/>
			<point x="154.716" y="288"/>
			<point x="280.716" y="295"/>
			<point x="359.716" y="301" type="curve" smooth="yes"/>
			<point x="394.716" y="304"/>
			<point x="410.716" y="323"/>
			<point x="414.716" y="344" type="curve" smooth="yes"/>
			<point x="417.716" y="360"/>
			<point x="410.716" y="372"/>
			<point x="388.716" y="371" type="curve" smooth="yes"/>
			<point x="315.716" y="368"/>
			<point x="202.716" y="365"/>
		</contour>
		<contour>
			<point x="666.716" y="388" type="curve" smooth="yes"/>
			<point x="645.716" y="387"/>
			<point x="632.716" y="373"/>
			<point x="628.716" y="357" type="curve" smooth="yes"/>
			<point x="624.716" y="334"/>
			<point x="637.716" y="318"/>
			<point x="661.716" y="319" type="curve" smooth="yes"/>
			<point x="715.716" y="321"/>
			<point x="825.716" y="325"/>
			<point x="897.716" y="329" type="curve" smooth="yes"/>
			<point x="949.716" y="332"/>
			<point x="971.716" y="352"/>
			<point x="976.716" y="375" type="curve" smooth="yes"/>
			<point x="979.716" y="390"/>
			<point x="970.716" y="401"/>
			<point x="944.716" y="401" type="curve" smooth="yes"/>
			<point x="873.716" y="401"/>
			<point x="754.716" y="392"/>
		</contour>
		<contour>
			<point x="422.716" y="373" type="curve" smooth="yes"/>
			<point x="394.716" y="371"/>
			<point x="377.716" y="357"/>
			<point x="374.716" y="341" type="curve" smooth="yes"/>
			<point x="370.716" y="319"/>
			<point x="383.716" y="304"/>
			<point x="408.716" y="305" type="curve" smooth="yes"/>
			<point x="450.716" y="307"/>
			<point x="545.716" y="314"/>
			<point x="609.716" y="318" type="curve" smooth="yes"/>
			<point x="630.716" y="319"/>
			<point x="641.716" y="339"/>
			<point x="645.716" y="359" type="curve" smooth="yes"/>
			<point x="648.716" y="374"/>
			<point x="641.716" y="386"/>
			<point x="620.716" y="385" type="curve" smooth="yes"/>
			<point x="567.716" y="383"/>
			<point x="485.716" y="378"/>
		</contour>
	</outline>
</glyph>
<glyph name="tugrik" format="2">
	<unicode hex="20AE"/>
	<advance width="615"/>
	<outline>
		<contour>
			<point x="141.277" y="376" type="curve" smooth="yes"/>
			<point x="113.277" y="368"/>
			<point x="99.277" y="360"/>
			<point x="97.277" y="349" type="curve" smooth="yes"/>
			<point x="93.277" y="331"/>
			<point x="107.277" y="321"/>
			<point x="129.277" y="321" type="curve" smooth="yes"/>
			<point x="180.277" y="321"/>
			<point x="314.277" y="366"/>
			<point x="477.277" y="384" type="curve" smooth="yes"/>
			<point x="521.277" y="389"/>
			<point x="545.277" y="396"/>
			<point x="548.277" y="411" type="curve" smooth="yes"/>
			<point x="552.277" y="429"/>
			<point x="533.277" y="443"/>
			<point x="494.277" y="443" type="curve" smooth="yes"/>
			<point x="444.277" y="443"/>
			<point x="262.277" y="409"/>
		</contour>
		<contour>
			<point x="191.277" y="639" type="curve" smooth="yes"/>
			<point x="318.277" y="635"/>
			<point x="393.277" y="634"/>
			<point x="545.277" y="634" type="curve" smooth="yes"/>
			<point x="609.277" y="634"/>
			<point x="677.277" y="650"/>
			<point x="684.277" y="685" type="curve" smooth="yes"/>
			<point x="687.277" y="700"/>
			<point x="679.277" y="711"/>
			<point x="657.277" y="711" type="curve" smooth="yes"/>
			<point x="626.277" y="711"/>
			<point x="614.277" y="700"/>
			<point x="521.277" y="700" type="curve" smooth="yes"/>
			<point x="386.277" y="700"/>
			<point x="315.277" y="706"/>
			<point x="150.277" y="706" type="curve" smooth="yes"/>
			<point x="122.277" y="706"/>
			<point x="109.277" y="697"/>
			<point x="107.277" y="685" type="curve" smooth="yes"/>
			<point x="103.277" y="663"/>
			<point x="113.277" y="641"/>
		</contour>
		<contour>
			<point x="111.277" y="219" type="curve" smooth="yes"/>
			<point x="82.277" y="212"/>
			<point x="68.277" y="197"/>
			<point x="65.277" y="182" type="curve" smooth="yes"/>
			<point x="63.277" y="169"/>
			<point x="72.277" y="161"/>
			<point x="87.277" y="161" type="curve" smooth="yes"/>
			<point x="140.277" y="161"/>
			<point x="297.277" y="213"/>
			<point x="446.277" y="232" type="curve" smooth="yes"/>
			<point x="491.277" y="238"/>
			<point x="515.277" y="244"/>
			<point x="518.277" y="259" type="curve" smooth="yes"/>
			<point x="522.277" y="279"/>
			<point x="508.277" y="294"/>
			<point x="478.277" y="294" type="curve" smooth="yes"/>
			<point x="426.277" y="294"/>
			<point x="221.277" y="242"/>
		</contour>
		<contour>
			<point x="349.277" y="626" type="curve" smooth="yes"/>
			<point x="314.277" y="501"/>
			<point x="290.277" y="398"/>
			<point x="273.277" y="316" type="curve" smooth="yes"/>
			<point x="252.277" y="209"/>
			<point x="243.277" y="136"/>
			<point x="239.277" y="89" type="curve" smooth="yes"/>
			<point x="232.277" y="9"/>
			<point x="248.277" y="-13"/>
			<point x="271.277" y="-13" type="curve" smooth="yes"/>
			<point x="286.277" y="-13"/>
			<point x="299.277" y="-6"/>
			<point x="303.277" y="13" type="curve" smooth="yes"/>
			<point x="309.277" y="46"/>
			<point x="302.277" y="120"/>
			<point x="342.277" y="322" type="curve" smooth="yes"/>
			<point x="355.277" y="385"/>
			<point x="372.277" y="462"/>
			<point x="397.277" y="554" type="curve" smooth="yes"/>
			<point x="419.277" y="642"/>
			<point x="418.277" y="670"/>
			<point x="387.277" y="670" type="curve" smooth="yes"/>
			<point x="370.277" y="670"/>
			<point x="356.277" y="652"/>
		</contour>
	</outline>
</glyph>
<glyph name="hryvnia" format="2">
	<unicode hex="20B4"/>
	<advance width="658"/>
	<outline>
		<contour>
			<point x="142" y="428" type="curve" smooth="yes"/>
			<point x="97" y="422"/>
			<point x="76" y="411"/>
			<point x="72" y="393" type="curve" smooth="yes"/>
			<point x="69" y="375"/>
			<point x="94" y="370"/>
			<point x="128" y="370" type="curve" smooth="yes"/>
			<point x="190" y="370"/>
			<point x="315" y="390"/>
			<point x="431" y="390" type="curve" smooth="yes"/>
			<point x="471" y="390"/>
			<point x="537" y="388"/>
			<point x="570" y="388" type="curve" smooth="yes"/>
			<point x="601" y="388"/>
			<point x="615" y="395"/>
			<point x="617" y="407" type="curve" smooth="yes"/>
			<point x="622" y="432"/>
			<point x="588" y="452"/>
			<point x="475" y="452" type="curve" smooth="yes"/>
			<point x="427" y="452"/>
			<point x="200" y="436"/>
		</contour>
		<contour>
			<point x="90" y="299" type="curve" smooth="yes"/>
			<point x="50" y="295"/>
			<point x="22" y="280"/>
			<point x="18" y="259" type="curve" smooth="yes"/>
			<point x="14" y="240"/>
			<point x="39" y="236"/>
			<point x="73" y="236" type="curve" smooth="yes"/>
			<point x="154" y="236"/>
			<point x="378" y="261"/>
			<point x="521" y="261" type="curve" smooth="yes"/>
			<point x="554" y="261"/>
			<point x="579" y="271"/>
			<point x="582" y="287" type="curve" smooth="yes"/>
			<point x="587" y="309"/>
			<point x="558" y="321"/>
			<point x="476" y="321" type="curve" smooth="yes"/>
			<point x="340" y="321"/>
			<point x="185" y="309"/>
		</contour>
		<contour>
			<point x="441" y="412" type="line" smooth="yes"/>
			<point x="525" y="481"/>
			<point x="580" y="536"/>
			<point x="592" y="597" type="curve" smooth="yes"/>
			<point x="607" y="671"/>
			<point x="561" y="706"/>
			<point x="481" y="706" type="curve" smooth="yes"/>
			<point x="348" y="706"/>
			<point x="170" y="608"/>
			<point x="162" y="568" type="curve" smooth="yes"/>
			<point x="160" y="557"/>
			<point x="164" y="550"/>
			<point x="178" y="550" type="curve" smooth="yes"/>
			<point x="215" y="550"/>
			<point x="360" y="641"/>
			<point x="464" y="641" type="curve" smooth="yes"/>
			<point x="499" y="641"/>
			<point x="524" y="624"/>
			<point x="516" y="588" type="curve" smooth="yes"/>
			<point x="507" y="539"/>
			<point x="459" y="494"/>
			<point x="382" y="431" type="curve" smooth="yes"/>
			<point x="201" y="282" type="line" smooth="yes"/>
			<point x="139" y="231"/>
			<point x="80" y="175"/>
			<point x="66" y="105" type="curve" smooth="yes"/>
			<point x="51" y="31"/>
			<point x="101" y="-14"/>
			<point x="183" y="-14" type="curve" smooth="yes"/>
			<point x="346" y="-14"/>
			<point x="504" y="91"/>
			<point x="515" y="148" type="curve" smooth="yes"/>
			<point x="518" y="161"/>
			<point x="514" y="170"/>
			<point x="501" y="170" type="curve" smooth="yes"/>
			<point x="467" y="168"/>
			<point x="361" y="51"/>
			<point x="213" y="51" type="curve" smooth="yes"/>
			<point x="149" y="51"/>
			<point x="137" y="81"/>
			<point x="144" y="117" type="curve" smooth="yes"/>
			<point x="153" y="160"/>
			<point x="181" y="199"/>
			<point x="264" y="267" type="curve" smooth="yes"/>
		</contour>
	</outline>
</glyph>
<glyph name="cedi" format="2">
	<unicode hex="20B5"/>
	<advance width="700"/>
	<outline>
		<contour>
			<point x="530" y="711" type="curve" smooth="yes"/>
			<point x="309" y="711"/>
			<point x="123" y="504"/>
			<point x="82" y="299" type="curve" smooth="yes"/>
			<point x="48" y="131"/>
			<point x="117" y="-10"/>
			<point x="346" y="-10" type="curve" smooth="yes"/>
			<point x="507" y="-10"/>
			<point x="608" y="90"/>
			<point x="616.746" y="136" type="curve" smooth="yes"/>
			<point x="620.746" y="154"/>
			<point x="616.746" y="169"/>
			<point x="603.746" y="169" type="curve" smooth="yes"/>
			<point x="559.746" y="169"/>
			<point x="526.746" y="55"/>
			<point x="347.746" y="55" type="curve" smooth="yes"/>
			<point x="195.746" y="55"/>
			<point x="116.746" y="138"/>
			<point x="146.746" y="288" type="curve" smooth="yes"/>
			<point x="180.746" y="460"/>
			<point x="343.746" y="646"/>
			<point x="524.746" y="646" type="curve" smooth="yes"/>
			<point x="629.746" y="646"/>
			<point x="630.746" y="585"/>
			<point x="620.746" y="533" type="curve" smooth="yes"/>
			<point x="609.746" y="481"/>
			<point x="582.746" y="444"/>
			<point x="621.746" y="444" type="curve" smooth="yes"/>
			<point x="650.746" y="444"/>
			<point x="677" y="476"/>
			<point x="688" y="531" type="curve" smooth="yes"/>
			<point x="707" y="624"/>
			<point x="657" y="711"/>
		</contour>
		<contour>
			<point x="194.746" y="-99" type="curve" smooth="yes"/>
			<point x="188.746" y="-128"/>
			<point x="202.746" y="-144"/>
			<point x="223.746" y="-145" type="curve" smooth="yes"/>
			<point x="238.746" y="-146"/>
			<point x="256.746" y="-132"/>
			<point x="259.746" y="-117" type="curve" smooth="yes"/>
			<point x="285.746" y="14"/>
			<point x="355.746" y="187"/>
			<point x="425.746" y="351" type="curve"/>
			<point x="357.746" y="351" type="line"/>
			<point x="286.746" y="182"/>
			<point x="216.746" y="10"/>
		</contour>
		<contour>
			<point x="597.746" y="790" type="curve" smooth="yes"/>
			<point x="602.746" y="813"/>
			<point x="587.746" y="832"/>
			<point x="566.746" y="832" type="curve" smooth="yes"/>
			<point x="547.746" y="832"/>
			<point x="535.746" y="818"/>
			<point x="531.746" y="802" type="curve" smooth="yes"/>
			<point x="511.746" y="711"/>
			<point x="434.746" y="533"/>
			<point x="357.746" y="351" type="curve"/>
			<point x="425.746" y="351" type="line"/>
			<point x="502.746" y="531"/>
			<point x="579.746" y="700"/>
		</contour>
	</outline>
	<guideline x="-53.21" y="755" angle="0" identifier="0DwZ2nfhdf"/>
</glyph>
